<?xml version="1.0" encoding="UTF-8" standalone="no"?>
<svg
   xmlns:dc="http://purl.org/dc/elements/1.1/"
   xmlns:cc="http://creativecommons.org/ns#"
   xmlns:rdf="http://www.w3.org/1999/02/22-rdf-syntax-ns#"
   xmlns:svg="http://www.w3.org/2000/svg"
   xmlns="http://www.w3.org/2000/svg"
   id="svg1194"
   version="1.1"
   viewBox="0 0 297 210"
   height="210mm"
   width="297mm">
  <defs
     id="defs1188" />
  <metadata
     id="metadata1191">
    <rdf:RDF>
      <cc:Work
         rdf:about="">
        <dc:format>image/svg+xml</dc:format>
        <dc:type
           rdf:resource="http://purl.org/dc/dcmitype/StillImage" />
        <dc:title></dc:title>
      </cc:Work>
    </rdf:RDF>
  </metadata>
  <g
     transform="translate(0,-87)"
     id="layer1">
    <g
       transform="matrix(0.26458333,0,0,0.26458333,-11.185821,102.60306)"
       id="g22" />
    <path
       d="m 155.47824,163.10118 c -0.0397,0.20373 -0.037,0.70115 0.0503,0.90223 0.0953,0.21961 0.34925,0.42334 0.59267,0.47625 0.33866,0.0741 0.64558,-0.0265 0.78846,-0.36512 0.0953,-0.22225 0.16139,-0.64029 0.15875,-0.82021 m 0.0291,4.16454 1.76212,-0.25135 c 0.17198,0 0.47625,-0.44715 0.29104,-0.50271 h -1.47637 l -0.47361,-1.37848 c -0.0556,-0.17463 -0.29368,-0.30427 -0.508,-0.37306 -0.2487,-0.0794 -0.98425,-0.1905 -1.21179,-0.1905 -0.26194,0 -0.55033,0.10054 -0.70908,0.29898 -0.42333,0.52916 -0.38365,1.54252 -0.46831,2.23043 0.037,0.6694 0.0582,1.20386 0.09,1.87325 0.005,0.0688 0.045,0.12171 0.10583,0.1614 0.0503,0.0317 0.20637,0.0608 0.2831,0.0608 0.0794,0.005 0.17992,-0.0714 0.18257,-0.18521 l 0.008,-0.51065 -0.0106,-1.37318 0.20108,-1.23825 m -0.29104,3.31787 -0.10848,3.76767 m 0.75142,0.003 0.48154,-3.99786 0.0344,-0.003 0.11641,4.00844 m 0.79375,-0.008 0.10055,-3.93435 c 0.037,-0.93927 0.0661,-1.27 0.0503,-1.8124 l -0.11113,-1.23296 m 1.25677,-0.57414 c 0.0767,0.30956 0.30692,0.56356 0.61119,0.68262 h 0.46831 c 0.30427,-0.11906 0.53446,-0.37306 0.61119,-0.68262 z m 1.15623,-0.37836 c 0.0423,-0.082 0.0661,-0.15081 0.0767,-0.20902 0.0476,-0.28045 -0.23548,-0.30427 -0.23548,-0.55298 0,-0.29897 0.41011,-0.27252 0.15875,-0.75935 m -0.54769,1.52135 c 0.0423,-0.082 0.0661,-0.15081 0.0767,-0.20902 0.0476,-0.28045 -0.23547,-0.30427 -0.23547,-0.55298 0,-0.29897 0.41275,-0.27252 0.15875,-0.75935 m -1.74358,-0.4948 c -0.003,-0.15082 0.0979,-0.43128 0.14552,-0.57415 0.0106,-0.0291 0.0503,-0.0503 0.0741,-0.0661 0.43657,-0.30692 0.18521,-0.93663 -0.33073,-0.8599 -0.14023,-0.43127 -0.92604,-0.50535 -1.14564,-0.11112 -0.49213,-0.17198 -0.85725,0.39687 -0.48948,0.78052 0.0185,0.0212 0.0556,0.0503 0.0609,0.0794 0.0212,0.14817 0.0661,0.4445 0.0318,0.59267 -0.0556,0.26458 1.66158,0.43127 1.65364,0.15875 z m 0.50271,5.842 h 4.47675 m 2.92629,-0.61913 -0.254,2.05846 c -0.0741,0.53446 -0.35189,0.78846 -0.83873,0.78317 l -1.6166,0.0106 m -0.41804,-6.20978 c 0.0291,-0.38893 0.37041,-0.6006 0.75671,-0.61912 0.38629,-0.0185 0.73554,0.15875 0.78052,0.54504 0.0238,0.20108 -0.0132,0.68263 -0.11113,0.86783 -0.0847,0.16405 -0.28575,0.32544 -0.51064,0.38894 -0.10848,0.0212 -0.13759,0.0212 -0.24607,0.0106 -0.22754,-0.0423 -0.43391,-0.18256 -0.52652,-0.33866 -0.10318,-0.17463 -0.15875,-0.65088 -0.14287,-0.85461 z m 0.61383,3.302 0.28046,1.18269 -0.09,0.14817 -1.24354,0.26458 c -0.35984,0.0714 -0.50006,0.52388 -0.46831,0.74877 l 0.22489,2.40507 m 0.75142,-0.005 0.0688,-2.14577 c 0,-0.082 0.045,-0.127 0.14023,-0.12965 h 1.35466 c 0.64559,0 0.78582,-0.50271 0.77523,-0.98954 -0.0212,-0.65088 -0.0529,-1.81504 -0.29633,-2.5109 -0.32808,-0.93133 -1.25148,-0.84666 -1.71715,-0.49741 -0.30162,0.23812 -0.59531,0.87577 -0.82814,1.19591 -0.0185,0.0185 -0.0423,0.0317 -0.0661,0.0397 l -1.50284,0.24077 c -0.37306,0.0873 -0.33073,0.64559 -0.0185,0.68527 h 1.61132 c 0.11112,-0.0132 0.19843,-0.0476 0.29104,-0.0979 l 1.01071,-0.82285 m 1.22766,3.18294 0.43921,1.94998 m 0.89429,-0.005 h -11.8692 m 6.37911,-4.16455 v 4.16455 M 19.729984,154.04148 c 0,0.69056 -0.55827,1.24884 -1.248833,1.24884 -0.690562,0 -1.248833,-0.55828 -1.248833,-1.24884 m 12.260791,-3.56923 H 19.95488 l -2.722562,3.55865 v 0.0106 h 14.980708 v -0.0106 z m -7.265458,3.56923 c 0,0.69056 -0.558271,1.24884 -1.248833,1.24884 -0.690563,0 -1.248834,-0.55828 -1.248834,-1.24884 m 4.992688,0 c 0,0.69056 -0.558271,1.24884 -1.248833,1.24884 -0.690563,0 -1.248834,-0.55828 -1.248834,-1.24884 m 4.995333,0 c 0,0.69056 -0.55827,1.24884 -1.248833,1.24884 -0.690562,0 -1.248833,-0.55828 -1.248833,-1.24884 m 4.995333,0 c 0,0.69056 -0.558271,1.24884 -1.248833,1.24884 -0.690563,0 -1.248834,-0.55828 -1.248834,-1.24884 m 4.992688,0 c 0,0.69056 -0.558271,1.24884 -1.248833,1.24884 -0.690563,0 -1.248834,-0.55828 -1.248834,-1.24884 m -9.985375,-0.0106 1.80975,-3.55864 m 0.687917,3.55864 0.859896,-3.55864 m 1.635125,3.56923 v -3.56923 m 4.995333,3.55864 -1.80975,-3.55864 m -0.687917,3.55864 -0.859895,-3.55864 m 4.394729,10.05681 v -4.83923 m -12.062354,4.83923 v -4.83923 m -0.664104,9.71285 v -4.87362 h 13.390562 v 4.87362 m -14.300729,0 h 15.20825 m -4.066646,-4.88156 -0.04498,-1.06892 m -3.037417,1.06892 0.203729,-1.60602 c 0.288396,-0.66675 3.116792,-0.66675 3.407834,0 l 0.219604,1.60602 m -3.063875,-1.06098 -0.05027,1.05833 m 1.976437,-3.8391 c -0.03704,-0.39952 -0.391583,-0.60061 -0.785812,-0.60061 -0.394229,0 -0.748771,0.20109 -0.785813,0.60061 -0.01852,0.20902 0.02646,0.70379 0.129646,0.89164 0.08996,0.16405 0.298979,0.32015 0.529167,0.37571 0.111125,0.0159 0.140229,0.0159 0.251354,0 0.232833,-0.0529 0.441854,-0.21166 0.531813,-0.37571 0.103187,-0.18785 0.148166,-0.68262 0.129645,-0.89164 z m -7.302499,1.42081 h 0.865187 v -1.08479 h -0.865187 z m 0.754062,1.69863 h 0.865188 v -1.0848 h -0.865188 z m -1.508125,0 h 0.865188 v -1.0848 h -0.865188 z m -1.103312,1.55575 H 30.734005 M 19.95488,150.47225 v -1.28587 h 9.538229 v 1.28587 m 253.107231,22.52096 h -2.62731 m -3.4634,-0.64294 -0.28839,1.20915 0.0926,0.15081 1.21444,0.26987 c 0.36777,0.0741 0.49741,0.52388 0.46566,0.75407 l -0.1561,2.31775 m -0.77258,-0.005 -0.0688,-2.13254 c 0,-0.0847 -0.045,-0.12965 -0.14552,-0.1323 h -1.38906 c -0.66146,0 -0.80433,-0.51329 -0.79375,-1.01335 0.0212,-0.66675 0.0529,-1.76477 0.30427,-2.4765 0.33602,-0.9525 1.28323,-0.86783 1.75948,-0.508 0.30956,0.24342 0.60854,0.89694 0.84667,1.22502 0.0185,0.0185 0.0423,0.0317 0.0688,0.0397 l 1.54781,0.24606 c 0.38365,0.09 0.33602,0.66146 0.0212,0.70115 l -1.66158,0.003 c -0.11378,-0.0132 -0.20109,-0.0476 -0.29898,-0.10054 l -1.03452,-0.84138 m 1.33614,-2.8866 c 0.037,-0.39688 -0.27517,-0.6694 -0.66146,-0.75142 -0.38629,-0.0847 -0.76993,0.037 -0.87841,0.42069 -0.0556,0.19844 -0.10055,0.69321 -0.0344,0.89694 0.0582,0.17991 0.23548,0.37571 0.45244,0.47889 0.10583,0.0397 0.13494,0.045 0.24606,0.0529 0.23548,-0.003 0.47096,-0.11377 0.58738,-0.254 0.13493,-0.16404 0.26722,-0.635 0.28839,-0.84402 z m -3.62214,3.23585 0.25929,2.10873 c 0.0767,0.54769 0.35983,0.80698 0.85725,0.80169 l 1.64306,0.0106 m 8.90058,-2.921 -0.25929,2.10873 c -0.0767,0.54769 -0.35983,0.80698 -0.85725,0.80169 l -1.60867,0.0106 m 0.93663,-6.59342 c 0.30162,-0.37836 1.45256,-0.25665 1.41552,0.40746 -0.0106,0.18785 -0.13229,0.71173 -0.25929,0.87048 -0.33338,0.41804 -1.20386,0.42068 -1.30969,-0.20373 -0.045,-0.24607 -0.0185,-0.8599 0.15346,-1.07421 z m -0.38365,3.00037 -0.0238,1.8415 c 0.005,0.0529 -0.0185,0.0953 -0.0794,0.11642 l -1.38907,0.29104 c -0.36777,0.0741 -0.46302,0.48684 -0.42862,0.71967 l 0.19314,2.35214 m 0.7673,-0.008 0.0688,-2.13254 c 0,-0.0847 0.045,-0.12964 0.14552,-0.13229 h 1.38906 c 0.66146,0 0.74877,-0.52123 0.79375,-0.89694 l 0.21167,-1.66158 c 0.0397,-0.33867 0.0767,-0.67998 0.008,-1.06627 -0.037,-0.27252 -0.24078,-0.45244 -0.48684,-0.51065 -0.32544,-0.0767 -1.20914,0.26459 -1.56369,0.37307 -0.12964,0.0185 -0.20108,-0.005 -0.23812,-0.13759 l -0.17198,-1.19856 c -0.0556,-0.38629 -0.71702,-0.25135 -0.67733,0.15875 l 0.10848,1.67217 c 0.0397,0.23018 0.28045,0.40481 0.44979,0.41275 l 1.67746,-0.17463 m -2.26219,-1.83621 -0.29898,-0.63764 c -0.0106,-0.0238 0,-0.0529 0.0238,-0.0661 l 1.06363,-0.635 0.46566,1.00012 -0.5371,0.21432 m -3.46604,2.5691 -0.082,-0.74612 h 1.03981 l -0.15081,1.37847 h -0.8255 m 0.61383,0 v 4.1619 m 4.83923,-1.84679 0.38365,1.73567 m -9.96686,-1.73567 -0.38364,1.73567 m -1.42082,0.11377 h 13.90915 m -31.39935,-11.61211 v -6.72836 h -26.27048 v 6.72836 m -1.14829,-10.87173 h 13.93031 v -3.75973 h -13.93031 z m 29.82119,10.87173 v -10.08327 h -2.60615 v -0.96838 h -5.04825 v 0.96838 h -1.17475 v -0.96838 h -5.05089 v 0.96838 h -17.19263 v 10.08327 m 17.18998,-10.08327 h 5.0509 m 1.17475,0 h 5.04825 m -24.74384,0 v -0.78846 m 8.99584,0.78846 v -0.78846 m -4.99004,4.14337 v 6.72836 m 5.207,-6.72836 v 6.72836 m 5.207,-6.72836 v 6.72836 m 5.207,-6.72836 v 6.72836 m -41.96292,0 h 58.801 m -46.02956,-5.42396 c 0.0609,0.22754 0.30427,1.23296 0.34131,1.47108 0.0185,0.11907 -0.0529,0.16934 -0.19315,0.16934 l -10.46691,0.11906 m 9.69962,1.20121 c -0.60854,0 -1.10066,0.49212 -1.10066,1.10066 0,0.60855 0.49212,1.10067 1.10066,1.10067 0.60854,0 1.10067,-0.49212 1.10067,-1.10067 0.003,-0.60589 -0.49213,-1.10066 -1.10067,-1.10066 z m -8.67039,0 c -0.60855,0 -1.10067,0.49212 -1.10067,1.10066 0,0.60855 0.49212,1.10067 1.10067,1.10067 0.60854,0 1.10066,-0.49212 1.10066,-1.10067 0,-0.60589 -0.49212,-1.10066 -1.10066,-1.10066 z m 9.65464,1.75683 0.39423,-0.0503 c 0.11642,-0.0159 0.27781,-0.0926 0.34661,-0.18785 0.13229,-0.18521 0.19579,-0.76994 0.23547,-1.09802 0.0291,-0.23548 -0.12964,-0.18257 -0.11906,-0.39688 0.0291,-0.54239 -0.11112,-1.61925 -0.29369,-2.30187 -0.13758,-0.53975 -0.22489,-0.66146 -0.96043,-0.68527 -2.159,-0.005 -4.31271,0.0185 -6.46377,0.0661 -0.48155,0.0238 -1.06892,0.13758 -1.50548,0.35983 -0.52652,0.26987 -1.17475,0.80698 -1.7489,1.0795 -0.50271,0.23812 -0.86783,0.38894 -1.11125,0.59002 -0.11112,0.0926 -0.18256,0.23283 -0.22225,0.38365 -0.0661,0.254 -0.0661,0.73025 -0.0847,1.00806 l -0.0661,0.0952 c -0.0317,0.0556 -0.0397,0.12435 -0.0344,0.20637 l 0.09,0.58473 c 0.0185,0.14023 0.12171,0.24077 0.27252,0.26723 l 0.62971,0.0741 m 1.9685,0.005 h 6.70719 m 45.58771,0.71173 v -1.81769 m -1.38378,-0.14816 c 0.23019,0.36777 0.63236,0.65616 1.02923,0.71702 m 0.35719,0.0132 c 0.64029,-0.0212 1.26471,-0.43657 1.39436,-0.85725 0.30691,-0.82815 0.33072,-1.27794 0.15875,-1.61925 -0.10055,-0.20109 -0.23813,-0.36248 -0.23813,-0.60061 0.003,-0.63764 -0.76465,-1.05833 -1.32292,-0.96043 -0.0476,0.008 -0.23548,0.0556 -0.38893,0.0979 m -3.47927,3.41312 c -0.89165,-0.14552 -1.59809,-0.62442 -1.77536,-1.28587 -0.43127,-1.30175 -0.42598,-2.00555 -0.10319,-2.54 0.0556,-0.09 0.11113,-0.17463 0.16669,-0.254 0.14552,-0.21432 0.27517,-0.4154 0.29104,-0.68792 0.0291,-0.49477 0.4445,-0.88371 0.80169,-1.14565 1.30969,-0.95514 3.08504,-0.21696 3.70417,1.26207 0.28575,0.68791 -0.11642,1.21179 0.13758,1.50812 0.29633,0.34396 0.21431,1.08479 0.11642,1.48696 -0.23019,0.97102 -1.67482,1.70921 -2.67759,1.7145 m -0.037,1.69862 v -3.18295 M 233.2254,160.0743 c -0.0185,-0.20373 -0.19314,-0.30692 -0.39158,-0.30692 -0.19579,0 -0.37306,0.10319 -0.39158,0.30692 -0.0106,0.10583 0.0132,0.35983 0.0635,0.45508 0.045,0.0847 0.14816,0.16404 0.26458,0.1905 0.0476,0.008 0.0767,0.008 0.12435,0 0.11642,-0.0265 0.21961,-0.10848 0.26459,-0.1905 0.0529,-0.0979 0.0767,-0.34925 0.0661,-0.45508 z m -0.89164,5.10116 -0.0476,-1.75948 -0.20902,-0.0212 -0.0635,-0.0635 -0.10055,-0.93927 0.045,-1.016 c 0.005,-0.0556 0.082,-0.12171 0.13759,-0.14023 0.58473,-0.1905 0.89693,-0.1905 1.48166,0 0.0556,0.0185 0.1323,0.0847 0.13759,0.14023 l 0.045,1.016 -0.10055,0.93927 -0.0635,0.0635 -0.20902,0.0212 -0.0476,1.75948 m -0.5027,-2.00025 v 2.00025 m -7.86342,-5.10116 c -0.0185,-0.20373 -0.19315,-0.30692 -0.39159,-0.30692 -0.19579,0 -0.37306,0.10319 -0.39158,0.30692 -0.0106,0.10583 0.0132,0.35983 0.0635,0.45508 0.045,0.0847 0.14817,0.16404 0.26458,0.1905 0.0476,0.008 0.0767,0.008 0.12436,0 0.11642,-0.0265 0.2196,-0.10848 0.26458,-0.1905 0.0529,-0.0979 0.0767,-0.34925 0.0662,-0.45508 z m -0.89429,5.10116 -0.0476,-1.75948 -0.20902,-0.0212 -0.0635,-0.0635 -0.10055,-0.93927 0.045,-1.016 c 0.005,-0.0556 0.082,-0.12171 0.13759,-0.14023 0.58473,-0.1905 0.89693,-0.1905 1.48166,0 0.0556,0.0185 0.1323,0.0847 0.13759,0.14023 l 0.045,1.016 -0.10055,0.93927 -0.0635,0.0635 -0.20902,0.0212 -0.0476,1.75948 m -0.5027,-2.00025 v 2.00025 M 57.227491,177.52968 H 38.03197 m 16.152812,-2.34157 c -0.277812,-1.02393 -1.108604,-1.77006 -2.090208,-1.77006 -1.209146,0 -2.19075,1.12713 -2.19075,2.51883 m 0.41275,-1.51341 c -0.269875,-0.13494 -0.566208,-0.21167 -0.878417,-0.21167 -1.209145,0 -2.19075,1.12713 -2.19075,2.51883 0,0.10055 0.0053,0.20109 0.01588,0.29634 m 8.501063,-0.0582 c 0,-0.9525 -0.672042,-1.72509 -1.500188,-1.72509 -0.828146,0 -1.500187,0.77259 -1.500187,1.72509 M 45.54085,167.8962 c 0.388937,-0.52122 0.923396,-0.92604 1.420812,-1.0451 m -1.420812,2.84163 c -0.386292,-0.52123 -0.923396,-0.92605 -1.420813,-1.04511 m 1.420813,2.54265 c 0.388937,-0.52123 0.923396,-0.92605 1.420812,-1.04511 m -1.420812,3.14325 c -0.124359,-1.22237 -0.923401,-1.80181 -1.420818,-1.91822 m 1.420813,-5.6568 v 11.13632 m -0.873125,-3.27819 c -0.645583,-0.20638 -1.124479,-0.889 -1.124479,-1.69598 v -6.60665 c 0,-0.96837 0.687916,-1.75948 1.529291,-1.75948 h 0.936625 c 0.841375,0 1.529292,0.79111 1.529292,1.75948 v 6.60665 c 0,0.96837 -0.687917,1.75948 -1.529292,1.75948 h -0.465666 m -4.976813,-2.37067 c 0.256646,-0.24077 0.590021,-0.44185 0.923396,-0.56091 m -0.923396,1.68275 c -0.256646,-0.24078 -0.587375,-0.44186 -0.923396,-0.56092 m 0.923396,1.49489 c 0.248709,-0.23283 0.566209,-0.42862 0.889,-0.54768 m -0.889,1.85737 c -0.08202,-0.56885 -0.502708,-0.91281 -0.896937,-1.08214 m 0.896937,-3.64332 v 6.94532 m -0.783166,-2.04523 c -0.579438,-0.127 -1.010709,-0.55563 -1.010709,-1.05834 v -4.11956 c 0,-0.60325 0.616479,-1.09802 1.373188,-1.09802 h 0.841375 c 0.754062,0 1.373187,0.49477 1.373187,1.09802 v 4.11956 c 0,0.60325 -0.616479,1.09802 -1.373187,1.09802 h -0.418042 m 8.440208,-7.96131 h 0.759355 m 0.256645,1.37848 h 0.759354 m 1.016,1.7145 h 0.759355 m -0.656167,-2.75696 h 0.759354 m 1.172104,-1.76477 h 0.759354 m -0.121708,2.55852 h 0.759354 m -13.827125,-1.02129 h 0.759355 m -1.449917,-1.7436 h 0.759354 m -2.553229,1.38641 h 0.759354 m 42.828104,-1.48358 h 18.663712 m -15.9729,-3.12738 c -0.132291,-0.13229 -0.896937,-0.89693 -0.896937,-0.89693 m 0.896937,0.60325 c 0.132292,-0.13229 0.896938,-0.89694 0.896938,-0.89694 m -0.896938,1.88383 c 0.132292,-0.13229 0.896938,-0.89693 0.896938,-0.89693 m -0.896938,3.3311 v -4.445 m -0.357187,2.72785 h -0.463021 c -0.312208,0 -0.5715,-0.23812 -0.608542,-0.53975 h -0.338666 c -0.248709,0 -0.455084,-0.20373 -0.455084,-0.45508 v -0.51594 c -0.259291,-0.0291 -0.463021,-0.25135 -0.463021,-0.51593 v -1.83886 c 0,-0.28575 0.232834,-0.52123 0.52123,-0.52123 h 0.264583 v -0.3466 c 0,-0.36777 0.301625,-0.66675 0.66675,-0.66675 h 1.695979 c 0.367771,0 0.66675,0.30162 0.66675,0.66675 v 0.0979 h 0.463021 c 0.248708,0 0.455083,0.20373 0.455083,0.45509 v 0.0847 h 0.452438 c 0.367771,0 0.66675,0.30163 0.66675,0.66675 v 1.84415 c 0,0.36777 -0.301625,0.66675 -0.66675,0.66675 h -0.291042 c -0.0026,0.24606 -0.206375,0.44979 -0.455083,0.44979 h -0.431271 c -0.0635,0.26723 -0.306917,0.46831 -0.595313,0.46831 H 85.19924 m 13.051896,-1.60337 c -0.132292,-0.13229 -0.896938,-0.89694 -0.896938,-0.89694 m 0.896938,1.92352 c -0.119063,-0.11906 -0.624417,-0.62441 -0.931333,-0.93133 m 0.931333,-0.40481 c 0.132292,-0.1323 0.896937,-0.89694 0.896937,-0.89694 m -0.896937,2.00025 c 0.119062,-0.11906 0.566208,-0.56621 0.92075,-0.92075 m -0.92075,3.44752 v -4.90273 m -0.481542,3.12473 c -0.22225,-0.0106 -0.587375,-0.11906 -0.822854,-0.22754 -0.714375,0 -1.293812,-0.71438 -1.293812,-1.42875 0,-0.19579 0.04233,-0.37836 0.119062,-0.54504 0.06085,-0.17463 0.03969,-0.32015 -0.05821,-0.43392 -0.15875,-0.18256 -0.254,-0.42069 -0.254,-0.68263 0,-0.33072 0.153458,-0.62441 0.391583,-0.81491 0.169333,-0.127 0.280458,-0.29369 0.28575,-0.52388 0,-0.71437 0.579438,-1.29646 1.296458,-1.29646 0.370417,0 0.706438,0.15611 0.941917,0.40746 0.127,0.127 0.264583,0.15082 0.407458,0.0979 0.145521,-0.0582 0.306917,-0.0926 0.473605,-0.0926 0.6985,0 1.264709,0.56621 1.264709,1.26471 -0.003,0.23548 0.082,0.41275 0.26458,0.51859 0.2249,0.1561 0.37042,0.41539 0.37042,0.71173 0,0.24606 -0.10319,0.46831 -0.26723,0.62441 -0.127,0.13494 -0.19844,0.16404 -0.1561,0.44979 0.0185,0.0926 0.0265,0.18786 0.0265,0.28311 0,0.8255 -0.6694,1.49489 -1.494902,1.49489 -0.132292,0 -0.259292,-0.0185 -0.383646,-0.0503 -0.187854,0.11377 -0.402166,0.19315 -0.637646,0.23019 m -6.275916,1.63513 v -0.635 h 2.600854 l -1.325562,-1.75684 h 0.960437 l -1.314979,-1.7436 h 0.788458 l -1.748896,-2.56381 -1.748895,2.56381 h 0.788458 l -1.314979,1.7436 h 0.960437 l -1.325562,1.75684 h 2.238375 m 1.362604,-3.50044 h -0.423333 m -0.227542,0 h -0.526521 m 1.531938,1.74625 h -1.018646 m -0.296334,0 h -0.709083 m 99.729021,7.23145 c -0.39423,0.48419 -1.397,0.48419 -1.78858,0 -0.39158,0.48419 -1.397,0.48419 -1.78858,0 -0.39423,0.48419 -1.397,0.48419 -1.79123,0 m 7.78933,-1.09802 c -0.39423,0.48419 -1.397,0.48154 -1.79123,0 -0.39158,0.48419 -1.397,0.48154 -1.78858,0 -0.39423,0.48419 -1.397,0.48154 -1.78859,0 m 0.21696,2.13254 c -0.39423,0.48154 -1.397,0.48154 -1.78858,0 -0.39423,0.48154 -1.397,0.48154 -1.78858,0 m 10.94052,-4.78631 c -1.06363,0.52916 -0.49477,1.00012 0.38364,1.22502 1.15359,0.26987 2.15106,0.35983 3.29671,0.54504 0.91017,0.1614 0.88106,0.5715 0.47625,0.79904 -0.59796,0.33602 -1.98702,0.48154 -2.1881,0.50536 -0.68527,0.0847 -1.69863,0.09 -2.4474,0.22754 -0.65087,0.0635 -0.8255,0.64029 -0.27252,0.762 3.22527,0.68262 -0.31221,1.35202 -3.10092,1.67216 -2.96862,0.33867 -9.73931,0.55034 -12.01473,-0.81491 -0.95779,-0.57415 -0.8837,-1.15623 0.20373,-1.42346 0.46832,-0.11377 1.13242,-0.22754 1.92088,-0.3175 0.21696,-0.0238 0.96573,-0.0873 1.36789,-0.23283 0.48155,-0.17727 0.55298,-0.45244 -0.14816,-0.58209 -0.53711,-0.0767 -1.07157,-0.15346 -1.52929,-0.22225 -1.2118,-0.23018 -0.76465,-0.74083 0.23812,-0.88371 1.12977,-0.16668 2.82046,-0.17197 3.8444,-0.24606 0.8546,-0.0608 1.5875,-0.30691 2.33098,-0.58473 1.1377,-0.42862 2.07433,-0.85196 3.28083,-1.03187 2.43681,-0.35984 6.20977,-0.32015 4.35769,0.60325 z m 2.19339,0.79639 v -1.96056 m -0.381,0.84931 h -0.10319 c -0.39952,0 -1.10595,-0.92868 -1.10595,-1.30968 v -1.18798 c 0,-0.18521 0.14023,-0.33602 0.30956,-0.33602 l 0.1561,-0.22225 c 0,-0.23813 0.17727,-0.43127 0.39688,-0.43127 h 0.82814 c 0.254,0 0.80169,0.39687 0.83344,0.51329 0.0741,0.26723 0.67733,0.16933 0.67733,0.75935 v 1.19063 c 0,0.38893 -0.26458,0.41804 -0.51858,0.6297 -0.20902,0.17463 -0.59267,0.39423 -0.65352,0.39423 h -0.43127 m -10.60979,-1.12183 h 0.36512 c 0.56357,0 0.30163,-0.46567 0.84932,-0.46567 0.38893,0 0.8255,-1.23825 0.8255,-1.28323 v -1.58485 c 0,-0.24606 -0.24342,-0.28575 -0.41275,-0.44979 l -0.30957,-0.29898 c -0.21696,-0.20902 -0.33866,-0.57679 -0.62971,-0.57679 h -1.04245 c -0.25136,0 -0.46302,0.0847 -0.51594,0.34131 0,0.005 -0.85725,0.67204 -0.89694,0.67469 -0.71702,0.0688 -0.55298,2.89983 -0.13758,3.04535 0.3466,0.12171 1.15094,0.59531 1.33879,0.59531 h 0.17992 m 0.41804,1.48432 v -2.32569 m -4.21217,2.78342 v -1.66159 m -0.38364,0.55034 h -0.10319 c -0.39952,0 -1.10596,-0.92869 -1.10596,-1.30969 v -0.88636 c 0,-0.14816 0.09,-0.27516 0.21431,-0.32014 0.18256,-0.0635 0.21431,-0.14023 0.26459,-0.34925 0.045,-0.18521 0.20108,-0.32015 0.38364,-0.32015 h 1.00806 c 0.0423,0 0.90752,0.62971 0.92869,0.70379 0.008,0.0291 0.32015,1.90765 -0.16139,2.18017 l -0.60855,0.30427 h -0.43127 m 7.49829,-1.60866 h 0.34661 m 0.79639,-0.88371 h 0.34661 m -1.38377,-0.96309 h 0.3466 m -0.77787,1.00807 h 0.3466 m 1.73038,1.22502 h 0.3466 m 1.60867,-2.34686 h 0.3466 m -1.62719,0.65617 h 0.34661 m -1.13506,-0.762 h 0.3466 m -1.05304,-0.78581 h 0.3466 m -4.06929,2.73314 c 0,0 0.17198,-0.25664 0.47096,-0.26723 0.30162,-0.0106 0.44979,-0.61912 0.44979,-0.61912 v -1.38906 m -1.14565,1.58485 c 0.0556,-0.0397 0.12965,-0.0767 0.22225,-0.0794 0.21167,-0.008 0.3175,-0.43656 0.3175,-0.43656 v -0.8255 m -4.72016,3.12473 0.27252,-0.1614 c 0.15875,-0.0952 0.24342,-0.37306 0.24342,-0.37306 l -0.0635,-0.83608 m 14.63939,1.48166 c 0.38629,0.037 0.42069,-0.49212 0.42069,-0.58208 v -0.90223 m -66.38547,-2.64013 v 1.30175 m -1.21444,-1.30175 v 1.30175 m 0.60855,-3.53748 v 5.84994 m 3.29406,-0.0185 v -1.39436 h 3.05329 v 1.39436 m -12.7,0 v -1.39436 h 3.05329 v 1.39436 m 2.63525,-13.69484 c -0.0344,-0.0926 -0.0556,-0.17462 -0.0688,-0.2487 -0.082,-0.52917 0.39952,-0.67205 0.39952,-1.13771 0,-0.56356 -0.69585,-0.61119 -0.26987,-1.53459 m 0.98954,2.921 c -0.0344,-0.0926 -0.0582,-0.17462 -0.0688,-0.2487 -0.0794,-0.52917 0.39952,-0.67205 0.39952,-1.13771 0,-0.56356 -0.6985,-0.61119 -0.26988,-1.53459 m 0.64294,3.74121 h 0.99748 c 0.0767,0 0.13758,0.0635 0.13758,0.13759 v 0.67468 c 0,0.0741 -0.0635,0.13759 -0.13758,0.13759 h -0.99748 m -2.56117,-1.28588 h 2.56382 v 1.94469 c 0,0.2249 -0.18786,0.4154 -0.4154,0.4154 h -1.73302 c -0.2249,0 -0.4154,-0.18786 -0.4154,-0.4154 z m 4.17513,6.61459 v 4.59316 m 4.24921,0 H 134.521 v 2.47121 m -9.65729,-2.47121 h 4.25185 v 2.47121 m 0,-7.06437 v 4.59316 m -4.25185,-3.9661 v 6.43466 h 13.90915 V 158.4574 M 126.54907,157.28 c 0,0.69586 -0.59002,1.25942 -1.31763,1.25942 -0.7276,0 -1.31762,-0.56356 -1.31762,-1.25942 m 12.93812,-3.07181 h -10.06739 l -2.87338,3.06123 v 0.0106 h 15.8115 v -0.0106 z m -7.66762,3.07181 c 0,0.69586 -0.59002,1.25942 -1.31763,1.25942 -0.7276,0 -1.31762,-0.56356 -1.31762,-1.25942 m 5.2705,0 c 0,0.69586 -0.59002,1.25942 -1.31763,1.25942 -0.7276,0 -1.31762,-0.56356 -1.31762,-1.25942 m 5.2705,0 c 0,0.69586 -0.59002,1.25942 -1.31763,1.25942 -0.7276,0 -1.31762,-0.56356 -1.31762,-1.25942 m 5.2705,0 c 0,0.69586 -0.59002,1.25942 -1.31763,1.25942 -0.7276,0 -1.31762,-0.56356 -1.31762,-1.25942 m 5.2705,0 c 0,0.69586 -0.59002,1.25942 -1.31763,1.25942 -0.7276,0 -1.31762,-0.56356 -1.31762,-1.25942 m -10.541,-0.0106 1.91029,-3.06123 m 0.72496,3.06123 0.90752,-3.06123 m 1.72773,3.07182 v -3.07182 m 5.2705,3.06123 -1.9103,-3.06123 m -0.72495,3.06123 -0.90752,-3.06123 m -0.2249,-0.82285 h 3.52954 v 0.8255 m -10.06739,-0.003 v -0.8255 h 3.175 m -33.209736,28.62108 0.314854,-0.44185 0.0079,-0.003 0.878417,0.48419 v 0.003 l -1.288521,-0.0476 -1.725083,0.19314 c -0.500063,0 -0.500063,0.75936 0,0.75936 l 1.862667,-0.0476 2.286,0.0476 c 0.328083,0 0.648229,-0.18786 0.756708,-0.50536 l 0.420684,-1.21179 m -0.25929,-0.44714 0.50536,0.70643 0.39423,1.25677 c 0.13758,0.381 0.80433,0.21167 0.67997,-0.14022 l -0.36777,-1.41817 c -0.005,-0.0318 -0.0185,-0.0662 -0.0344,-0.0979 l -0.68527,-1.28588 c -0.09,-0.16933 -0.2196,-0.25929 -0.40216,-0.32279 -0.378359,-0.12964 -0.791109,0.0714 -0.920755,0.44979 l -0.518583,1.49755 -1.362604,-0.79111 c -0.224896,-0.16404 -0.531813,-0.0873 -0.664105,0.15346 l -0.722312,1.28852 m 3.040062,-4.01373 c 0.03175,-0.0926 0.07673,-0.16404 0.127,-0.2196 0.328084,-0.34925 1.418167,-0.11642 1.314977,0.54504 -0.0291,0.18785 -0.18521,0.61912 -0.32279,0.76729 -0.150812,0.1614 -0.433916,0.25929 -0.661457,0.23019 -0.3175,-0.0397 -0.550334,-0.22225 -0.5715,-0.56092 -0.01323,-0.22225 0.05821,-0.60589 0.11377,-0.762 z m 7.011457,4.25979 v -7.93485 m -0.98954,5.82877 c -1.41287,-0.23019 -2.53471,-0.99219 -2.81517,-2.03994 -0.68262,-2.06375 -0.67733,-3.18294 -0.16668,-4.03225 0.0873,-0.14287 0.17727,-0.27516 0.26458,-0.40481 0.23283,-0.34131 0.43921,-0.65617 0.46302,-1.09008 0.045,-0.78582 0.70644,-1.40494 1.27265,-1.81769 0.6932,-0.50536 1.29645,-0.762 2.40506,-0.57415 0.20902,0.0344 1.35467,0.32015 1.55839,0.38365 0.96838,0.30162 1.4949,1.19592 1.91294,2.19339 0.45509,1.09009 -0.18785,1.92353 0.21961,2.39448 0.47095,0.54505 0.33866,1.7198 0.18785,2.35744 -0.36777,1.54252 -2.65642,2.71463 -4.24921,2.72256 m -0.0635,-3.91318 -1.32821,-0.81757 m 1.32821,1.92088 2.34686,-1.44463 m -2.34686,2.83369 -2.39977,-1.47902 m 7.56179,3.64067 c 1.016,-0.0344 2.00819,-0.69057 2.21457,-1.35996 0.48419,-1.31498 0.52387,-2.02671 0.25135,-2.56911 -0.045,-0.0926 -0.0952,-0.17462 -0.14287,-0.25664 -0.12436,-0.21696 -0.23548,-0.41804 -0.23548,-0.69586 0.003,-0.50006 -0.36777,-0.89429 -0.69057,-1.15887 -0.39423,-0.32279 -0.74348,-0.48419 -1.41023,-0.36513 -0.0794,0.0132 -0.3757,0.09 -0.61912,0.15346 m -1.56898,5.09323 c 0.36512,0.58473 1.00277,1.04246 1.63248,1.13771 m 0.56356,1.30175 v -2.20133 m 13.5308,2.81781 H 92.23073 m 26.07734,-0.0185 0.0423,-2.26484 0.0476,-1.94204 m -1.12183,0.25929 0.1561,1.75948 0.127,2.17488 m -0.7276,0 0.127,-2.17488 0.1561,-1.75948 m -1.12183,-0.26193 0.0476,1.94204 0.0423,2.26483 m 0.31485,-10.07798 c -0.0185,0.20902 0.0265,0.70644 0.1323,0.89429 0.09,0.16405 0.30427,0.3228 0.53975,0.37571 0.0926,0.0132 0.16404,0.0132 0.25664,0 0.23548,-0.0529 0.44715,-0.21166 0.53975,-0.37571 0.10319,-0.18785 0.15081,-0.68527 0.13229,-0.89429 -0.0794,-0.80698 -1.524,-0.80698 -1.60073,0 z m 5.15938,8.61484 0.14817,0.005 0.23018,-0.0714 c 0.0132,-0.41805 0.0212,-0.70644 0.003,-1.16152 l -0.18786,-0.67734 c -0.0741,-0.25664 -0.31485,-0.35189 -0.63235,-0.3466 -0.29633,0.005 -0.72496,0 -0.75406,-0.0185 l -0.79111,-0.51859 -0.30427,-1.66687 c -0.003,-0.32015 -0.16404,-1.59015 -0.3175,-1.90235 -0.14287,-0.28575 -0.29368,-0.49478 -0.62177,-0.5768 -0.32808,-0.082 -1.79387,-0.082 -2.12196,-0.003 -0.40745,0.0979 -0.71173,0.53975 -0.73818,0.94986 l -0.0741,1.15094 c -0.0185,0.15875 -0.0185,0.22225 -0.008,0.381 l 0.13493,1.72243 c 0.0132,0.0794 0.16669,0.16405 0.27252,0.23548 0.0503,0.0318 0.10848,0.0159 0.1614,-0.0159 m 5.39221,3.8735 0.12964,-0.97102 c 0.0106,-0.0476 0.0132,-0.0952 0.0106,-0.14552 l 0.0238,-0.38629 -0.0662,-1.3044 m -0.56885,2.98715 -0.0212,-1.01071 c -0.003,-0.0318 0,-0.0635 0.005,-0.0953 l 0.0714,-0.62442 m -2.54264,-5.75204 0.21166,1.45257 c 0.15611,0.64029 0.30957,1.28058 0.46302,1.92087 0.0556,0.14288 0.11907,-0.005 0.24342,0.11377 0.30692,0.29104 0.6985,0.64558 0.92075,0.87577 0.008,0.32015 0.0344,0.57415 0.037,0.87313 0.005,0.34396 -0.0132,0.73289 -0.0212,1.10331 -0.003,0.0714 0,0.12435 0.008,0.19315 l 0.14023,0.96308 m -1.99496,-4.2545 c -0.003,-0.56621 -0.0132,-1.12977 -0.0423,-1.68275 0.0159,-0.52388 0,-1.10331 0.0397,-1.63248 m -2.40771,0.003 c 0.0397,0.52917 0.0344,1.10596 0.0503,1.62983 -0.0344,0.63236 -0.0529,1.22238 -0.0609,1.88384 m 4.39208,-0.67469 c 0.0238,-0.26194 0.25929,-0.39159 0.51858,-0.39159 0.26194,0 0.49477,0.12965 0.52123,0.39159 0.0132,0.13758 -0.0185,0.46037 -0.0847,0.58208 -0.0582,0.10583 -0.19844,0.20902 -0.3519,0.24342 -0.0741,0.0106 -0.0926,0.0106 -0.16669,0 -0.15346,-0.0344 -0.29104,-0.13759 -0.35189,-0.24342 -0.0661,-0.12171 -0.0979,-0.44714 -0.0847,-0.58208 z m -23.396866,-2.78607 h 0.396875 m -1.338792,1.34144 h 0.396875 m -1.359958,-1.10331 h 0.396875 m 2.878666,0.0714 h 0.396875 m -2.579687,-1.03188 h 0.396875 M 79.92874,161.33264 v 3.83117 m -3.635375,-4.78367 v 4.76779 m 1.307041,-3.41048 c -0.388937,0.18521 -0.851958,0.27517 -1.322916,0.27252 m -0.526521,-0.045 c -1.121833,-0.17727 -2.143125,-0.88635 -2.143125,-2.07168 v -3.75179 c 0,-1.41553 1.328208,-2.09286 2.579688,-2.09286 1.251479,0 2.579687,0.67733 2.579687,2.09286 v 0.11377 m 0.669396,6.25475 c -0.799042,-0.045 -1.436688,-0.71438 -1.436688,-1.524 v -2.80459 c 0,-1.05833 0.992188,-1.56368 1.928813,-1.56368 0.933979,0 1.928812,0.50535 1.928812,1.56368 v 2.80459 c 0,0.83873 -0.687916,1.52664 -1.526646,1.52664 -0.01058,0 -0.216958,0 -0.418041,0 m -21.724937,2.6379 H 82.508427 M 69.647032,161.1527 h 2.849562 m -8.22325,0 h 0.873125 m 4.500563,-0.81227 h 2.849562 m -8.22325,0 h 0.891646 m 4.183062,1.6219 h 3.148542 m -8.22325,0 h 1.087438 m 3.053291,-4.99004 c -0.03969,-0.43127 -0.425979,-0.64823 -0.85725,-0.64823 -0.431271,0 -0.817562,0.21696 -0.85725,0.64823 -0.02117,0.22489 0.0291,0.75935 0.140229,0.96043 0.0979,0.17728 0.325438,0.34661 0.579438,0.40482 0.121708,0.0185 0.153458,0.0185 0.275167,0 0.254,-0.0582 0.481541,-0.22754 0.579437,-0.40482 0.111125,-0.20108 0.161396,-0.73554 0.140229,-0.96043 z m 0.410104,5.03766 0.418042,-0.0212 c 0.164042,0.0423 0.301625,-0.34925 0.3175,-0.47889 0.0926,-0.61119 0.04233,-1.72244 -0.267229,-2.286 -0.312208,-0.5715 -3.14325,-0.6059 -3.476625,0 -0.309563,0.56356 -0.359833,1.67216 -0.267229,2.286 0.01588,0.12964 0.153458,0.52123 0.3175,0.47889 l 0.418041,0.0212 m 1.640417,0.38365 -0.137583,2.55323 c -0.0344,0.28046 0.772583,0.24871 0.814916,0.0397 l 0.399521,-2.54 c 0.156104,-0.67469 -1.050396,-0.77788 -1.076854,-0.0529 z m -0.740833,0 0.137583,2.55323 c 0.0344,0.28046 -0.772583,0.24871 -0.814917,0.0397 l -0.39952,-2.54 c -0.153459,-0.67469 1.053041,-0.77788 1.076854,-0.0529 z m 2.029354,-1.20121 c -0.261938,0.0185 -0.550333,0.0476 -0.799042,0.12436 -0.137583,0.0423 -0.235479,0.32543 -0.174625,0.49477 m -1.367896,0 c 0.06086,-0.16934 -0.03704,-0.45244 -0.174625,-0.49477 -0.248708,-0.0794 -0.537104,-0.10584 -0.799041,-0.12436 m 3.077104,0.0185 -0.08996,-1.35202 m -2.749021,1.35202 0.08996,-1.35202 m 0.994833,2.90248 h 0.637646 m -3.585104,0 h 1.862667 m -1.254125,0 v 2.38919 m 7.614708,-2.38919 h -3.455458 m 2.846916,0 v 2.38919 m -10.84527,0 v -2.32304 m 0,-0.34396 v -8.74184 m 2.391833,0.36513 h -0.502708 l -0.407459,0.62177 v 0.0159 h 1.314979 v -0.0159 z m -2.391833,-0.36777 c 0,-0.86784 0.473604,-1.57163 1.060979,-1.57163 0.584729,0 1.058333,0.70379 1.058333,1.57163 m -2.119312,0 c 0,-0.86784 -0.473604,-1.57163 -1.058334,-1.57163 -0.584729,0 -1.058333,0.70379 -1.058333,1.57163 m 0.248708,0.36777 h -0.502708 l -0.407458,0.62177 v 0.0159 h 1.314979 v -0.0159 z m 117.354047,-7.12368 c 1.14565,0 2.07433,0.92869 2.07433,2.07434 0,1.14564 -0.92868,2.07168 -2.07433,2.07168 -1.14564,0 -2.07169,-0.92868 -2.07169,-2.07168 0,-1.14565 0.92869,-2.07434 2.07169,-2.07434 z m -17.92287,7.48771 c 0.39423,-1.12712 2.46856,-2.43416 4.57729,-2.11402 1.42346,-2.41035 6.70454,-2.71198 8.24706,-0.97367 0.62177,-0.48418 1.43933,-0.89693 2.39713,-1.21708 m 5.41866,0.73025 c 0.59267,-0.8546 1.83886,-1.44462 3.28348,-1.44462 1.86267,0 3.39725,0.9816 3.62215,2.24895 1.42081,-0.4445 3.4581,0.29634 4.12485,1.72773 0.99219,-0.51329 2.78342,-0.127 2.99244,1.06363 m -8.36877,-5.31019 c 0.48154,-0.8546 1.66423,-1.45785 3.048,-1.45785 1.06098,0 2.00554,0.35454 2.6035,0.90752 1.0451,-1.14829 2.87073,-1.91029 4.95035,-1.91029 1.77271,0 3.36021,0.55298 4.43706,1.4261 m -26.90812,1.06098 h -1.52929 m 1.80446,-1.3626 h -1.18798 m -0.41804,0 h -0.72761 m 3.61686,-1.48696 h -1.58221 m 9.32127,1.97908 h -2.62732 m 1.00278,-1.37319 h -1.18269 m -0.96044,-1.0795 h -1.36525 m -1.16152,-0.56885 h -0.9869 m 6.0034,1.64835 h 0.51594"
       style="clip-rule:evenodd;fill:none;fill-rule:evenodd;stroke:#000000;stroke-width:0.33742312;stroke-miterlimit:22.92560005"
       id="path32" />
  </g>
</svg>
