<?xml version="1.0" encoding="utf-8"?>
<!-- Generator: Adobe Illustrator 24.1.3, SVG Export Plug-In . SVG Version: 6.00 Build 0)  -->
<svg version="1.1" id="Layer_1" xmlns="http://www.w3.org/2000/svg" xmlns:xlink="http://www.w3.org/1999/xlink" x="0px" y="0px"
	 viewBox="0 0 1619 768" style="enable-background:new 0 0 1619 768;" xml:space="preserve">
<style type="text/css">
	.st0{fill-rule:evenodd;clip-rule:evenodd;fill:none;stroke:#000000;stroke-width:1.2753;stroke-miterlimit:22.9256;}
	.st1{fill-rule:evenodd;clip-rule:evenodd;fill:none;stroke:#000000;stroke-miterlimit:22.9256;}
	.st2{fill-rule:evenodd;clip-rule:evenodd;fill:none;stroke:#000000;stroke-width:1.1339;stroke-miterlimit:22.9256;}
	.st3{opacity:0.35;fill-rule:evenodd;clip-rule:evenodd;fill:#9393D8;}
	.st4{opacity:0.35;fill-rule:evenodd;clip-rule:evenodd;fill:#C1272D;}
	.st5{fill:#333333;}
	.st6{opacity:0.2;}
	.st7{fill-rule:evenodd;clip-rule:evenodd;fill:#93C8DB;}
	.st8{fill:none;stroke:#000000;stroke-miterlimit:22.9256;}
	.st9{fill:none;stroke:#000000;stroke-miterlimit:22.9256;stroke-dasharray:2.0377,2.0377;}
	.st10{fill:none;stroke:#000000;stroke-miterlimit:22.9256;stroke-dasharray:2.0004,2.0004;}
	.st11{fill:none;stroke:#000000;stroke-miterlimit:22.9256;stroke-dasharray:1.977,1.977;}
	.st12{opacity:0.2;fill-rule:evenodd;clip-rule:evenodd;fill:#6AAA70;}
</style>
<g>
	<path class="st0" d="M246.05,89.1c4.33,0,7.84,3.51,7.84,7.84c0,4.33-3.51,7.83-7.84,7.83c-4.33,0-7.83-3.51-7.83-7.83
		C238.22,92.61,241.73,89.1,246.05,89.1L246.05,89.1z M178.31,117.4c1.49-4.26,9.33-9.2,17.3-7.99c5.38-9.11,25.34-10.25,31.17-3.68
		c2.35-1.83,5.44-3.39,9.06-4.6 M256.32,103.89c2.24-3.23,6.95-5.46,12.41-5.46c7.04,0,12.84,3.71,13.69,8.5
		c5.37-1.68,13.07,1.12,15.59,6.53c3.75-1.94,10.52-0.48,11.31,4.02 M277.69,97.41c1.82-3.23,6.29-5.51,11.52-5.51
		c4.01,0,7.58,1.34,9.84,3.43c3.95-4.34,10.85-7.22,18.71-7.22c6.7,0,12.7,2.09,16.77,5.39 M232.83,97.51h-5.78 M233.87,92.36h-4.49
		 M227.8,92.36h-2.75 M238.72,86.74h-5.98 M267.97,94.22h-9.93 M261.83,89.03h-4.47 M253.73,84.95h-5.16 M244.18,82.8h-3.73
		 M263.14,89.03h1.95"/>
	<path class="st0" d="M313.09,237.62v14.48 M299.35,234.02v18.02 M304.29,239.15c-1.47,0.7-3.22,1.04-5,1.03 M297.3,240.01
		c-4.24-0.67-8.1-3.35-8.1-7.83V218c0-5.35,5.02-7.91,9.75-7.91c4.73,0,9.75,2.56,9.75,7.91v0.43 M311.23,242.07
		c-3.02-0.17-5.43-2.7-5.43-5.76v-10.6c0-4,3.75-5.91,7.29-5.91c3.53,0,7.29,1.91,7.29,5.91v10.6c0,3.17-2.6,5.77-5.77,5.77
		c-0.04,0-0.82,0-1.58,0 M230.92,252.05h91.92 M274.23,236.94H285 M253.92,236.94h3.3 M274.23,233.87H285 M253.92,233.87h3.37
		 M273.1,240H285 M253.92,240h4.11 M269.57,221.14c-0.15-1.63-1.61-2.45-3.24-2.45c-1.63,0-3.09,0.82-3.24,2.45
		c-0.08,0.85,0.11,2.87,0.53,3.63c0.37,0.67,1.23,1.31,2.19,1.53c0.46,0.07,0.58,0.07,1.04,0c0.96-0.22,1.82-0.86,2.19-1.53
		C269.46,224.01,269.65,221.99,269.57,221.14L269.57,221.14z M271.12,240.18l1.58-0.08c0.62,0.16,1.14-1.32,1.2-1.81
		c0.35-2.31,0.16-6.51-1.01-8.64c-1.18-2.16-11.88-2.29-13.14,0c-1.17,2.13-1.36,6.32-1.01,8.64c0.06,0.49,0.58,1.97,1.2,1.81
		l1.58,0.08 M267.72,241.63l-0.52,9.65c-0.13,1.06,2.92,0.94,3.08,0.15l1.51-9.6C272.38,239.28,267.82,238.89,267.72,241.63
		L267.72,241.63z M264.92,241.63l0.52,9.65c0.13,1.06-2.92,0.94-3.08,0.15l-1.51-9.6C260.27,239.28,264.83,238.89,264.92,241.63
		L264.92,241.63z M272.59,237.09c-0.99,0.07-2.08,0.18-3.02,0.47c-0.52,0.16-0.89,1.23-0.66,1.87 M263.74,239.43
		c0.23-0.64-0.14-1.71-0.66-1.87c-0.94-0.3-2.03-0.4-3.02-0.47 M271.69,237.16l-0.34-5.11 M260.96,237.16l0.34-5.11 M265.06,243.02
		h2.41 M253.92,243.02h7.04 M256.22,243.02v9.03 M285,243.02h-13.06 M282.7,243.02v9.03 M241.71,252.05v-8.78 M241.71,241.97v-33.04
		 M250.75,210.31h-1.9l-1.54,2.35v0.06h4.97v-0.06L250.75,210.31L250.75,210.31z M241.71,208.92c0-3.28,1.79-5.94,4.01-5.94
		c2.21,0,4,2.66,4,5.94 M241.71,208.92c0-3.28-1.79-5.94-4-5.94s-4,2.66-4,5.94 M234.65,210.31h-1.9l-1.54,2.35v0.06h4.97v-0.06
		L234.65,210.31z"/>
	<path class="st0" d="M367.38,296.46l1.19-1.67l0.03-0.01l3.32,1.83l0,0.01l-4.87-0.18l-6.52,0.73c-1.89,0-1.89,2.87,0,2.87
		l7.04-0.18l8.64,0.18c1.24,0,2.45-0.71,2.86-1.91l1.59-4.58 M379.68,291.86l1.91,2.67l1.49,4.75c0.52,1.44,3.04,0.8,2.57-0.53
		l-1.39-5.36c-0.02-0.12-0.07-0.25-0.13-0.37l-2.59-4.86c-0.34-0.64-0.83-0.98-1.52-1.22c-1.43-0.49-2.99,0.27-3.48,1.7l-1.96,5.66
		l-5.15-2.99c-0.85-0.62-2.01-0.33-2.51,0.58l-2.73,4.87 M375.68,281.59c0.12-0.35,0.29-0.62,0.48-0.83
		c1.24-1.32,5.36-0.44,4.97,2.06c-0.11,0.71-0.7,2.34-1.22,2.9c-0.57,0.61-1.64,0.98-2.5,0.87c-1.2-0.15-2.08-0.84-2.16-2.12
		C375.2,283.63,375.47,282.18,375.68,281.59L375.68,281.59z M402.18,297.69V267.7 M398.44,289.73c-5.34-0.87-9.58-3.75-10.64-7.71
		c-2.58-7.8-2.56-12.03-0.63-15.24c0.33-0.54,0.67-1.04,1-1.53c0.88-1.29,1.66-2.48,1.75-4.12c0.17-2.97,2.67-5.31,4.81-6.87
		c2.62-1.91,4.9-2.88,9.09-2.17c0.79,0.13,5.12,1.21,5.89,1.45c3.66,1.14,5.65,4.52,7.23,8.29c1.72,4.12-0.71,7.27,0.83,9.05
		c1.78,2.06,1.28,6.5,0.71,8.91c-1.39,5.83-10.04,10.26-16.06,10.29 M402.18,275.29l-5.02-3.09 M402.18,279.46l8.87-5.46
		 M402.18,284.71l-9.07-5.59 M421.69,292.88c3.84-0.13,7.59-2.61,8.37-5.14c1.83-4.97,1.98-7.66,0.95-9.71
		c-0.17-0.35-0.36-0.66-0.54-0.97c-0.47-0.82-0.89-1.58-0.89-2.63c0.01-1.89-1.39-3.38-2.61-4.38c-1.49-1.22-2.81-1.83-5.33-1.38
		c-0.3,0.05-1.42,0.34-2.34,0.58 M413.37,288.5c1.38,2.21,3.79,3.94,6.17,4.3 M421.67,297.72v-8.32 M472.81,300.05H350.3
		 M448.86,299.98l0.16-8.56l0.18-7.34 M444.96,285.06l0.59,6.65l0.48,8.22 M443.28,299.93l0.48-8.22l0.59-6.65 M440.11,284.07
		l0.18,7.34l0.16,8.56 M441.64,261.88c-0.07,0.79,0.1,2.67,0.5,3.38c0.34,0.62,1.15,1.22,2.04,1.42c0.35,0.05,0.62,0.05,0.97,0
		c0.89-0.2,1.69-0.8,2.04-1.42c0.39-0.71,0.57-2.59,0.5-3.38C447.39,258.83,441.93,258.83,441.64,261.88L441.64,261.88z
		 M461.14,294.44l0.56,0.02l0.87-0.27c0.05-1.58,0.08-2.67,0.01-4.39l-0.71-2.56c-0.28-0.97-1.19-1.33-2.39-1.31
		c-1.12,0.02-2.74,0-2.85-0.07l-2.99-1.96l-1.15-6.3c-0.01-1.21-0.62-6.01-1.2-7.19c-0.54-1.08-1.11-1.87-2.35-2.18
		c-1.24-0.31-6.78-0.31-8.02-0.01c-1.54,0.37-2.69,2.04-2.79,3.59l-0.28,4.35c-0.07,0.6-0.07,0.84-0.03,1.44l0.51,6.51
		c0.05,0.3,0.63,0.62,1.03,0.89c0.19,0.12,0.41,0.06,0.61-0.06 M460.35,299.58l0.49-3.67c0.04-0.18,0.05-0.36,0.04-0.55l0.09-1.46
		l-0.25-4.93 M458.57,300.26l-0.08-3.82c-0.01-0.12,0-0.24,0.02-0.36l0.27-2.36 M449.17,271.98l0.8,5.49
		c0.59,2.42,1.17,4.84,1.75,7.26c0.21,0.54,0.45-0.02,0.92,0.43c1.16,1.1,2.64,2.44,3.48,3.31c0.03,1.21,0.13,2.17,0.14,3.3
		c0.02,1.3-0.05,2.77-0.08,4.17c-0.01,0.27,0,0.47,0.03,0.73l0.53,3.64 M449.2,284.23c-0.01-2.14-0.05-4.27-0.16-6.36
		c0.06-1.98,0-4.17,0.15-6.17 M440.09,271.71c0.15,2,0.13,4.18,0.19,6.16c-0.13,2.39-0.2,4.62-0.23,7.12 M456.65,282.44
		c0.09-0.99,0.98-1.48,1.96-1.48c0.99,0,1.87,0.49,1.97,1.48c0.05,0.52-0.07,1.74-0.32,2.2c-0.22,0.4-0.75,0.79-1.33,0.92
		c-0.28,0.04-0.35,0.04-0.63,0c-0.58-0.13-1.1-0.52-1.33-0.92C456.72,284.18,456.6,282.95,456.65,282.44L456.65,282.44z
		 M368.22,271.91h1.5 M364.66,276.98h1.5 M361.02,272.81h1.5 M373.4,273.08h1.5 M365.15,269.18h1.5"/>
	<path class="st0" d="M471.86,178.58v4.92 M467.27,178.58v4.92 M469.57,170.13v22.11 M482.02,192.17v-5.27h11.54v5.27
		 M445.56,192.17v-5.27h11.54v5.27 M467.06,140.41c-0.13-0.35-0.21-0.66-0.26-0.94c-0.31-2,1.51-2.54,1.51-4.3
		c0-2.13-2.63-2.31-1.02-5.8 M471.03,140.41c-0.13-0.35-0.22-0.66-0.26-0.94c-0.3-2,1.51-2.54,1.51-4.3c0-2.13-2.64-2.31-1.02-5.8
		 M473.69,143.51h3.77c0.29,0,0.52,0.24,0.52,0.52v2.55c0,0.28-0.24,0.52-0.52,0.52h-3.77 M464.01,142.24h9.69v7.35
		c0,0.85-0.71,1.57-1.57,1.57h-6.55c-0.85,0-1.57-0.71-1.57-1.57V142.24L464.01,142.24z M479.79,167.24v17.36 M495.85,184.6h-16.07
		v9.34 M443.28,184.6h16.07v9.34 M459.35,167.24v17.36 M443.28,169.61v24.32h52.57v-24.32 M449.65,165.16
		c0,2.63-2.23,4.76-4.98,4.76c-2.75,0-4.98-2.13-4.98-4.76 M488.59,153.55h-38.05l-10.86,11.57v0.04h59.76v-0.04L488.59,153.55
		L488.59,153.55z M459.61,165.16c0,2.63-2.23,4.76-4.98,4.76c-2.75,0-4.98-2.13-4.98-4.76 M469.57,165.16
		c0,2.63-2.23,4.76-4.98,4.76c-2.75,0-4.98-2.13-4.98-4.76 M479.53,165.16c0,2.63-2.23,4.76-4.98,4.76c-2.75,0-4.98-2.13-4.98-4.76
		 M489.49,165.16c0,2.63-2.23,4.76-4.98,4.76c-2.75,0-4.98-2.13-4.98-4.76 M499.45,165.16c0,2.63-2.23,4.76-4.98,4.76
		s-4.98-2.13-4.98-4.76 M449.65,165.12l7.22-11.57 M459.61,165.12l3.43-11.57 M469.57,165.16v-11.61 M489.49,165.12l-7.22-11.57
		 M479.53,165.12l-3.43-11.57 M475.25,150.44h13.34v3.12 M450.54,153.55v-3.12h12"/>
	<path class="st1" d="M516.26,243.69c-1.49,1.83-5.28,1.83-6.76,0c-1.48,1.83-5.28,1.83-6.76,0c-1.49,1.83-5.28,1.83-6.77,0
		 M525.41,239.54c-1.49,1.83-5.28,1.82-6.77,0c-1.48,1.83-5.28,1.82-6.76,0c-1.49,1.83-5.28,1.82-6.76,0 M505.94,247.6
		c-1.49,1.82-5.28,1.82-6.76,0c-1.49,1.82-5.28,1.82-6.76,0 M533.77,229.51c-4.02,2-1.87,3.78,1.45,4.63
		c4.36,1.02,8.13,1.36,12.46,2.06c3.44,0.61,3.33,2.16,1.8,3.02c-2.26,1.27-7.51,1.82-8.27,1.91c-2.59,0.32-6.42,0.34-9.25,0.86
		c-2.46,0.24-3.12,2.42-1.03,2.88c12.19,2.58-1.18,5.11-11.72,6.32c-11.22,1.28-36.81,2.08-45.41-3.08
		c-3.62-2.17-3.34-4.37,0.77-5.38c1.77-0.43,4.28-0.86,7.26-1.2c0.82-0.09,3.65-0.33,5.17-0.88c1.82-0.67,2.09-1.71-0.56-2.2
		c-2.03-0.29-4.05-0.58-5.78-0.84c-4.58-0.87-2.89-2.8,0.9-3.34c4.27-0.63,10.66-0.65,14.53-0.93c3.23-0.23,6-1.16,8.81-2.21
		c4.3-1.62,7.84-3.22,12.4-3.9C526.51,225.87,540.77,226.02,533.77,229.51L533.77,229.51z M542.06,232.52v-7.41 M540.62,228.32
		h-0.39c-1.51,0-4.18-3.51-4.18-4.95v-4.49c0-0.7,0.53-1.27,1.17-1.27l0.59-0.84c0-0.9,0.67-1.63,1.5-1.63h3.13
		c0.96,0,3.03,1.5,3.15,1.94c0.28,1.01,2.56,0.64,2.56,2.87v4.5c0,1.47-1,1.58-1.96,2.38c-0.79,0.66-2.24,1.49-2.47,1.49h-1.63
		 M501.99,224.08h1.38c2.13,0,1.14-1.76,3.21-1.76c1.47,0,3.12-4.68,3.12-4.85v-5.99c0-0.93-0.92-1.08-1.56-1.7l-1.17-1.13
		c-0.82-0.79-1.28-2.18-2.38-2.18h-3.94c-0.95,0-1.75,0.32-1.95,1.29c0,0.02-3.24,2.54-3.39,2.55c-2.71,0.26-2.09,10.96-0.52,11.51
		c1.31,0.46,4.35,2.25,5.06,2.25h0.68 M502.11,229.68v-8.79 M486.19,231.41v-6.28 M484.74,227.21h-0.39c-1.51,0-4.18-3.51-4.18-4.95
		v-3.35c0-0.56,0.34-1.04,0.81-1.21c0.69-0.24,0.81-0.53,1-1.32c0.17-0.7,0.76-1.21,1.45-1.21h3.81c0.16,0,3.43,2.38,3.51,2.66
		c0.03,0.11,1.21,7.21-0.61,8.24l-2.3,1.15h-1.63 M514.55,221.14h1.31 M518.87,217.8h1.31 M514.95,214.16h1.31 M513.32,217.97h1.31
		 M521.17,222.6h1.31 M528.56,213.73h1.31 M523.72,216.21h1.31 M520.74,213.33h1.31 M518.07,210.36h1.31 M504,220.69
		c0,0,0.65-0.97,1.78-1.01c1.14-0.04,1.7-2.34,1.7-2.34v-5.25 M503.15,218.08c0.21-0.15,0.49-0.29,0.84-0.3
		c0.8-0.03,1.2-1.65,1.2-1.65v-3.12 M487.35,224.82l1.03-0.61c0.6-0.36,0.92-1.41,0.92-1.41l-0.24-3.16 M544.39,225.24
		c1.46,0.14,1.59-1.86,1.59-2.2v-3.41"/>
	<g>
		<path class="st2" d="M389.87,235.81v-2.4h9.83l-5.01-6.64h3.63l-4.97-6.59h2.98l-6.61-9.69l-6.61,9.69h2.98l-4.97,6.59h3.63
			l-5.01,6.64h8.46 M393.35,220.18h-1.6 M390.89,220.18h-1.99 M394.69,226.78h-3.85 M389.72,226.78h-2.68"/>
		<path class="st2" d="M413.62,223.85c-0.5-0.5-3.39-3.39-3.39-3.39 M413.62,227.73c-0.45-0.45-2.36-2.36-3.52-3.52 M413.62,222.68
			c0.5-0.5,3.39-3.39,3.39-3.39 M413.62,226.85c0.45-0.45,2.14-2.14,3.48-3.48 M413.62,236.4v-18.53 M411.8,229.68
			c-0.84-0.04-2.22-0.45-3.11-0.86c-2.7,0-4.89-2.7-4.89-5.4c0-0.74,0.16-1.43,0.45-2.06c0.23-0.66,0.15-1.21-0.22-1.64
			c-0.6-0.69-0.96-1.59-0.96-2.58c0-1.25,0.58-2.36,1.48-3.08c0.64-0.48,1.06-1.11,1.08-1.98c0-2.7,2.19-4.9,4.9-4.9
			c1.4,0,2.67,0.59,3.56,1.54c0.48,0.48,1,0.57,1.54,0.37c0.55-0.22,1.16-0.35,1.79-0.35c2.64,0,4.78,2.14,4.78,4.78
			c-0.01,0.89,0.31,1.56,1,1.96c0.85,0.59,1.4,1.57,1.4,2.69c0,0.93-0.39,1.77-1.01,2.36c-0.48,0.51-0.75,0.62-0.59,1.7
			c0.07,0.35,0.1,0.71,0.1,1.07c0,3.12-2.53,5.65-5.65,5.65c-0.5,0-0.98-0.07-1.45-0.19c-0.71,0.43-1.52,0.73-2.41,0.87"/>
		<path class="st2" d="M364.29,224.58c-0.5-0.5-3.39-3.39-3.39-3.39 M364.29,223.47c0.5-0.5,3.39-3.39,3.39-3.39 M364.29,227.2
			c0.5-0.5,3.39-3.39,3.39-3.39 M364.29,236.4v-16.8 M362.94,229.91h-1.75c-1.18,0-2.16-0.9-2.3-2.04h-1.28
			c-0.94,0-1.72-0.77-1.72-1.72v-1.95c-0.98-0.11-1.75-0.95-1.75-1.95v-6.95c0-1.08,0.88-1.97,1.97-1.97h1v-1.31
			c0-1.39,1.14-2.52,2.52-2.52h6.41c1.39,0,2.52,1.14,2.52,2.52v0.37h1.75c0.94,0,1.72,0.77,1.72,1.72v0.32h1.71
			c1.39,0,2.52,1.14,2.52,2.52v6.97c0,1.39-1.14,2.52-2.52,2.52h-1.1c-0.01,0.93-0.78,1.7-1.72,1.7h-1.63
			c-0.24,1.01-1.16,1.77-2.25,1.77h-2.75"/>
		<line class="st2" x1="354.12" y1="236.4" x2="424.66" y2="236.4"/>
	</g>
	<path class="st2" d="M177.29,278.48h-72.55 M165.79,269.63c-1.05-3.87-4.19-6.69-7.9-6.69c-4.57,0-8.28,4.26-8.28,9.52
		 M151.17,266.74c-1.02-0.51-2.14-0.8-3.32-0.8c-4.57,0-8.28,4.26-8.28,9.52c0,0.38,0.02,0.76,0.06,1.12 M171.76,276.36
		c0-3.6-2.54-6.52-5.67-6.52c-3.13,0-5.67,2.92-5.67,6.52 M133.12,242.07c1.47-1.97,3.49-3.5,5.37-3.95 M133.12,248.86
		c-1.46-1.97-3.49-3.5-5.37-3.95 M133.12,254.52c1.47-1.97,3.49-3.5,5.37-3.95 M133.12,262.45c-0.47-4.62-3.49-6.81-5.37-7.25
		 M133.12,233.82v42.09 M129.82,263.52c-2.44-0.78-4.25-3.36-4.25-6.41v-24.97c0-3.66,2.6-6.65,5.78-6.65h3.54
		c3.18,0,5.78,2.99,5.78,6.65v24.97c0,3.66-2.6,6.65-5.78,6.65h-1.76 M114.32,254.8c0.97-0.91,2.23-1.67,3.49-2.12 M114.32,259.04
		c-0.97-0.91-2.22-1.67-3.49-2.12 M114.32,262.57c0.94-0.88,2.14-1.62,3.36-2.07 M114.32,267.52c-0.31-2.15-1.9-3.45-3.39-4.09
		 M114.32,249.66v26.25 M111.36,268.18c-2.19-0.48-3.82-2.1-3.82-4v-15.57c0-2.28,2.33-4.15,5.19-4.15h3.18
		c2.85,0,5.19,1.87,5.19,4.15v15.57c0,2.28-2.33,4.15-5.19,4.15h-1.58 M146.23,238.24h2.87 M150.07,243.45h2.87 M156.78,249.93h2.87
		 M157.17,239.51h2.87 M164.47,232.84h2.87 M166.88,242.51h2.87 M117.49,238.65h2.87 M114.88,232.06h2.87 M108.1,237.3h2.87"/>
	<path class="st0" d="M376.08,191.76v-25.43h-99.29v25.43 M272.45,150.67h52.65v-14.21h-52.65V150.67L272.45,150.67z M385.16,191.76
		v-38.11h-9.85v-3.66h-19.08v3.66h-4.44v-3.66h-19.09v3.66h-64.98v38.11 M332.69,153.65h19.09 M356.22,153.65h19.08 M281.78,153.65
		v-2.98 M315.78,153.65v-2.98 M296.92,166.33l0,25.43 M316.6,166.33l0,25.43 M336.28,166.33l0,25.43 M355.96,166.33l0,25.43
		 M197.36,191.76h222.24 M245.63,171.26c0.23,0.86,1.15,4.66,1.29,5.56c0.07,0.45-0.2,0.64-0.73,0.64l-39.56,0.45 M243.29,182.45
		c-2.3,0-4.16,1.86-4.16,4.16c0,2.3,1.86,4.16,4.16,4.16c2.3,0,4.16-1.86,4.16-4.16C247.46,184.32,245.59,182.45,243.29,182.45
		L243.29,182.45z M210.52,182.45c-2.3,0-4.16,1.86-4.16,4.16c0,2.3,1.86,4.16,4.16,4.16c2.3,0,4.16-1.86,4.16-4.16
		C214.68,184.32,212.82,182.45,210.52,182.45L210.52,182.45z M247.01,189.09l1.49-0.19c0.44-0.06,1.05-0.35,1.31-0.71
		c0.5-0.7,0.74-2.91,0.89-4.15c0.11-0.89-0.49-0.69-0.45-1.5c0.11-2.05-0.42-6.12-1.11-8.7c-0.52-2.04-0.85-2.5-3.63-2.59
		c-8.16-0.02-16.3,0.07-24.43,0.25c-1.82,0.09-4.04,0.52-5.69,1.36c-1.99,1.02-4.44,3.05-6.61,4.08c-1.9,0.9-3.28,1.47-4.2,2.23
		c-0.42,0.35-0.69,0.88-0.84,1.45c-0.25,0.96-0.25,2.76-0.32,3.81l-0.25,0.36c-0.12,0.21-0.15,0.47-0.13,0.78l0.34,2.21
		c0.07,0.53,0.46,0.91,1.03,1.01l2.38,0.28 M214.23,189.09l25.35,0 M411.88,191.78v-6.87 M406.65,184.35
		c0.87,1.39,2.39,2.48,3.89,2.71 M411.89,187.11c2.42-0.08,4.78-1.65,5.27-3.24c1.16-3.13,1.25-4.83,0.6-6.12
		c-0.38-0.76-0.9-1.37-0.9-2.27c0.01-2.41-2.89-4-5-3.63c-0.18,0.03-0.89,0.21-1.47,0.37 M397.24,185.12
		c-3.37-0.55-6.04-2.36-6.71-4.86c-1.63-4.92-1.61-7.58-0.39-9.6c0.21-0.34,0.42-0.66,0.63-0.96c0.55-0.81,1.04-1.57,1.1-2.6
		c0.11-1.87,1.68-3.34,3.03-4.33c4.95-3.61,11.66-0.82,14,4.77c1.08,2.6-0.44,4.58,0.52,5.7c1.12,1.3,0.81,4.1,0.44,5.62
		c-0.87,3.67-6.33,6.46-10.12,6.48 M399.6,191.76v-12.03 M291.05,171.08c-0.07-0.77-0.73-1.16-1.48-1.16
		c-0.74,0-1.41,0.39-1.48,1.16c-0.04,0.4,0.05,1.36,0.24,1.72c0.17,0.32,0.56,0.62,1,0.72c0.18,0.03,0.29,0.03,0.47,0
		c0.44-0.1,0.83-0.41,1-0.72C291,172.43,291.09,171.48,291.05,171.08L291.05,171.08z M287.68,190.36l-0.18-6.65l-0.79-0.08
		l-0.24-0.24l-0.38-3.55l0.17-3.84c0.02-0.21,0.31-0.46,0.52-0.53c2.21-0.72,3.39-0.72,5.6,0c0.21,0.07,0.5,0.32,0.52,0.53
		l0.17,3.84l-0.38,3.55l-0.24,0.24l-0.79,0.08l-0.18,6.65 M289.58,182.8v7.56 M259.86,171.08c-0.07-0.77-0.73-1.16-1.48-1.16
		c-0.74,0-1.41,0.39-1.48,1.16c-0.04,0.4,0.05,1.36,0.24,1.72c0.17,0.32,0.56,0.62,1,0.72c0.18,0.03,0.29,0.03,0.47,0
		c0.44-0.1,0.83-0.41,1-0.72C259.81,172.43,259.9,171.48,259.86,171.08L259.86,171.08z M256.48,190.36l-0.18-6.65l-0.79-0.08
		l-0.24-0.24l-0.38-3.55l0.17-3.84c0.02-0.21,0.31-0.46,0.52-0.53c2.21-0.72,3.39-0.72,5.6,0c0.21,0.07,0.5,0.32,0.52,0.53
		l0.17,3.84l-0.38,3.55l-0.24,0.24l-0.79,0.08l-0.18,6.65 M258.38,182.8v7.56"/>
	<path class="st0" d="M539.45,178.12h-9.93 M516.43,175.69l-1.09,4.57l0.35,0.57l4.59,1.02c1.39,0.28,1.88,1.98,1.76,2.85
		l-0.59,8.76 M518.53,193.44l-0.26-8.06c0-0.32-0.17-0.49-0.55-0.5h-5.25c-2.5,0-3.04-1.94-3-3.83c0.08-2.52,0.2-6.67,1.15-9.36
		c1.27-3.6,4.85-3.28,6.65-1.92c1.17,0.92,2.3,3.39,3.2,4.63c0.07,0.07,0.16,0.12,0.26,0.15l5.85,0.93c1.45,0.34,1.27,2.5,0.08,2.65
		l-6.28,0.01c-0.43-0.05-0.76-0.18-1.13-0.38l-3.91-3.18 M520.39,163.67c0.14-1.5-1.04-2.53-2.5-2.84
		c-1.46-0.32-2.91,0.14-3.32,1.59c-0.21,0.75-0.38,2.62-0.13,3.39c0.22,0.68,0.89,1.42,1.71,1.81c0.4,0.15,0.51,0.17,0.93,0.2
		c0.89-0.01,1.78-0.43,2.22-0.96C519.81,166.24,520.31,164.46,520.39,163.67L520.39,163.67z M506.7,175.9l0.98,7.97
		c0.29,2.07,1.36,3.05,3.24,3.03l6.21,0.04 M550.77,175.9l-0.98,7.97c-0.29,2.07-1.36,3.05-3.24,3.03l-6.08,0.04 M544.01,162.02
		c1.14-1.43,5.49-0.97,5.35,1.54c-0.04,0.71-0.5,2.69-0.98,3.29c-1.26,1.58-4.55,1.59-4.95-0.77
		C543.26,165.15,543.36,162.83,544.01,162.02L544.01,162.02z M542.56,173.36l-0.09,6.96c0.02,0.2-0.07,0.36-0.3,0.44l-5.25,1.1
		c-1.39,0.28-1.75,1.84-1.62,2.72l0.73,8.89 M538.93,193.44l0.26-8.06c0-0.32,0.17-0.49,0.55-0.5h5.25c2.5,0,2.83-1.97,3-3.39
		l0.8-6.28c0.15-1.28,0.29-2.57,0.03-4.03c-0.14-1.03-0.91-1.71-1.84-1.93c-1.23-0.29-4.57,1-5.91,1.41
		c-0.49,0.07-0.76-0.02-0.9-0.52l-0.65-4.53c-0.21-1.46-2.71-0.95-2.56,0.6l0.41,6.32c0.15,0.87,1.06,1.53,1.7,1.56l6.34-0.66
		 M536.86,166.49l-1.13-2.41c-0.04-0.09,0-0.2,0.09-0.25l4.02-2.4l1.76,3.78l-2.03,0.81 M526.47,175.73l-0.31-2.82h3.93l-0.57,5.21
		h-3.12 M528.72,178.12v15.73 M547.01,186.87l1.45,6.56 M510.79,186.87l-1.45,6.56 M503.97,193.86h52.57"/>
	<path class="st0" d="M130.21,152.92c0,2.61-2.11,4.72-4.72,4.72c-2.61,0-4.72-2.11-4.72-4.72 M167.11,139.43h-36.05l-10.29,13.45
		v0.04h56.62v-0.04L167.11,139.43L167.11,139.43z M139.65,152.92c0,2.61-2.11,4.72-4.72,4.72c-2.61,0-4.72-2.11-4.72-4.72
		 M149.08,152.92c0,2.61-2.11,4.72-4.72,4.72s-4.72-2.11-4.72-4.72 M158.52,152.92c0,2.61-2.11,4.72-4.72,4.72s-4.72-2.11-4.72-4.72
		 M167.96,152.92c0,2.61-2.11,4.72-4.72,4.72c-2.61,0-4.72-2.11-4.72-4.72 M177.39,152.92c0,2.61-2.11,4.72-4.72,4.72
		c-2.61,0-4.72-2.11-4.72-4.72 M130.21,152.88l6.84-13.45 M139.65,152.88l3.25-13.45 M149.08,152.92v-13.49 M167.96,152.88
		l-6.84-13.45 M158.52,152.88l-3.25-13.45 M171.88,177.44v-18.29 M126.29,177.44v-18.29 M123.78,195.86v-18.42h50.61v18.42
		 M120.34,195.86h57.48 M162.45,177.41l-0.17-4.04 M150.8,177.41l0.77-6.07c1.09-2.52,11.78-2.52,12.88,0l0.83,6.07 M153.7,173.4
		l-0.19,4 M160.98,162.89c-0.14-1.51-1.48-2.27-2.97-2.27c-1.49,0-2.83,0.76-2.97,2.27c-0.07,0.79,0.1,2.66,0.49,3.37
		c0.34,0.62,1.13,1.21,2,1.42c0.42,0.06,0.53,0.06,0.95,0c0.88-0.2,1.67-0.8,2.01-1.42C160.88,165.55,161.05,163.68,160.98,162.89
		L160.98,162.89z M133.38,168.26h3.27v-4.1h-3.27V168.26L133.38,168.26z M136.23,174.68h3.27v-4.1h-3.27V174.68L136.23,174.68z
		 M130.53,174.68h3.27v-4.1h-3.27V174.68L130.53,174.68z M126.36,180.56h45.44 M131.06,139.43v-4.86h36.05v4.86"/>
	<path class="st0" d="M175.06,213.59c-0.15,0.77-0.14,2.65,0.19,3.41c0.36,0.83,1.32,1.6,2.24,1.8c1.28,0.28,2.44-0.1,2.98-1.38
		c0.36-0.84,0.61-2.42,0.6-3.1 M181.18,230.06l6.66-0.95c0.65,0,1.8-1.69,1.1-1.9l-5.58,0l-1.79-5.21
		c-0.21-0.66-1.11-1.15-1.92-1.41c-0.94-0.3-3.72-0.72-4.58-0.72c-0.99,0-2.08,0.38-2.68,1.13c-1.6,2-1.45,5.83-1.77,8.43
		c0.14,2.53,0.22,4.55,0.34,7.08c0.02,0.26,0.17,0.46,0.4,0.61c0.19,0.12,0.78,0.23,1.07,0.23c0.3,0.02,0.68-0.27,0.69-0.7
		l0.03-1.93l-0.04-5.19l0.76-4.68 M172.77,237.39l-0.41,14.24 M175.2,251.64l1.82-15.11l0.13-0.01l0.44,15.15 M180.59,251.64
		l0.38-14.87c0.14-3.55,0.25-4.8,0.19-6.85l-0.42-4.66 M185.49,223.09c0.29,1.17,1.16,2.13,2.31,2.58h1.77
		c1.15-0.45,2.02-1.41,2.31-2.58H185.49L185.49,223.09z M189.86,221.66c0.16-0.31,0.25-0.57,0.29-0.79
		c0.18-1.06-0.89-1.15-0.89-2.09c0-1.13,1.55-1.03,0.6-2.87 M187.79,221.66c0.16-0.31,0.25-0.57,0.29-0.79
		c0.18-1.06-0.89-1.15-0.89-2.09c0-1.13,1.56-1.03,0.6-2.87 M181.2,214.04c-0.01-0.57,0.37-1.63,0.55-2.17
		c0.04-0.11,0.19-0.19,0.28-0.25c1.65-1.16,0.7-3.54-1.25-3.25c-0.53-1.63-3.5-1.91-4.33-0.42c-1.86-0.65-3.24,1.5-1.85,2.95
		c0.07,0.08,0.21,0.19,0.23,0.3c0.08,0.56,0.25,1.68,0.12,2.24C174.74,214.44,181.23,215.07,181.2,214.04L181.2,214.04z
		 M183.1,236.12h16.92 M211.08,233.78l-0.96,7.78c-0.28,2.02-1.33,2.98-3.17,2.96l-6.11,0.04 M199.26,221.09
		c0.11-1.47,1.4-2.27,2.86-2.34c1.46-0.07,2.78,0.6,2.95,2.06c0.09,0.76-0.05,2.58-0.42,3.28c-0.32,0.62-1.08,1.23-1.93,1.47
		c-0.41,0.08-0.52,0.08-0.93,0.04c-0.86-0.16-1.64-0.69-1.99-1.28C199.41,223.66,199.2,221.86,199.26,221.09L199.26,221.09z
		 M201.58,233.57l1.06,4.47l-0.34,0.56l-4.7,1c-1.36,0.27-1.89,1.98-1.77,2.83l0.85,9.09 M199.52,251.5l0.26-8.11
		c0-0.31,0.17-0.48,0.53-0.49h5.12c2.44,0,2.97-1.9,2.93-3.74c-0.08-2.46-0.2-6.86-1.12-9.49c-1.24-3.52-4.73-3.2-6.49-1.88
		c-1.14,0.9-2.25,3.31-3.13,4.52c-0.07,0.07-0.16,0.12-0.25,0.15l-5.68,0.91c-1.41,0.33-1.25,2.44-0.07,2.59l6.09,0
		c0.42-0.05,0.75-0.18,1.1-0.37l3.82-3.11 M207.27,244.51l1.66,7.37 M212.31,251.86h-44.86 M191.56,236.12v15.74"/>
</g>
<path class="st3" d="M544.18,588H108.82C89.12,588,73,571.88,73,552.18V360.82c0-19.7,16.12-35.82,35.82-35.82h435.36
	c19.7,0,35.82,16.12,35.82,35.82v191.36C580,571.88,563.88,588,544.18,588z"/>
<g>
	<g>
		<path class="st0" d="M796.05,86.1c4.33,0,7.84,3.51,7.84,7.84c0,4.33-3.51,7.83-7.84,7.83c-4.33,0-7.83-3.51-7.83-7.83
			C788.22,89.61,791.73,86.1,796.05,86.1L796.05,86.1z M728.31,114.4c1.49-4.26,9.33-9.2,17.3-7.99
			c5.38-9.11,25.34-10.25,31.17-3.68c2.35-1.83,5.44-3.39,9.06-4.6 M806.32,100.89c2.24-3.23,6.95-5.46,12.41-5.46
			c7.04,0,12.84,3.71,13.69,8.5c5.37-1.68,13.07,1.12,15.59,6.53c3.75-1.94,10.52-0.48,11.31,4.02 M827.69,94.41
			c1.82-3.23,6.29-5.51,11.52-5.51c4.01,0,7.58,1.34,9.84,3.43c3.95-4.34,10.85-7.22,18.71-7.22c6.7,0,12.7,2.09,16.77,5.39
			 M782.83,94.51h-5.78 M783.87,89.36h-4.49 M777.8,89.36h-2.75 M788.72,83.74h-5.98 M817.97,91.22h-9.93 M811.83,86.03h-4.47
			 M803.73,81.95h-5.16 M794.18,79.8h-3.73 M813.14,86.03h1.95"/>
		<path class="st0" d="M863.09,234.62v14.48 M849.35,231.02v18.02 M854.29,236.15c-1.47,0.7-3.22,1.04-5,1.03 M847.3,237.01
			c-4.24-0.67-8.1-3.35-8.1-7.83V215c0-5.35,5.02-7.91,9.75-7.91c4.73,0,9.75,2.56,9.75,7.91v0.43 M861.23,239.07
			c-3.02-0.17-5.43-2.7-5.43-5.76v-10.6c0-4,3.75-5.91,7.29-5.91c3.53,0,7.29,1.91,7.29,5.91v10.6c0,3.17-2.6,5.77-5.77,5.77
			c-0.04,0-0.82,0-1.58,0 M780.92,249.05h91.92 M824.23,233.94H835 M803.92,233.94h3.3 M824.23,230.87H835 M803.92,230.87h3.37
			 M823.1,237H835 M803.92,237h4.11 M819.57,218.14c-0.15-1.63-1.61-2.45-3.24-2.45c-1.63,0-3.09,0.82-3.24,2.45
			c-0.08,0.85,0.11,2.87,0.53,3.63c0.37,0.67,1.23,1.31,2.19,1.53c0.46,0.07,0.58,0.07,1.04,0c0.96-0.22,1.82-0.86,2.19-1.53
			C819.46,221.01,819.65,218.99,819.57,218.14L819.57,218.14z M821.12,237.18l1.58-0.08c0.62,0.16,1.14-1.32,1.2-1.81
			c0.35-2.31,0.16-6.51-1.01-8.64c-1.18-2.16-11.88-2.29-13.14,0c-1.17,2.13-1.36,6.32-1.01,8.64c0.06,0.49,0.58,1.97,1.2,1.81
			l1.58,0.08 M817.72,238.63l-0.52,9.65c-0.13,1.06,2.92,0.94,3.08,0.15l1.51-9.6C822.38,236.28,817.82,235.89,817.72,238.63
			L817.72,238.63z M814.92,238.63l0.52,9.65c0.13,1.06-2.92,0.94-3.08,0.15l-1.51-9.6C810.27,236.28,814.83,235.89,814.92,238.63
			L814.92,238.63z M822.59,234.09c-0.99,0.07-2.08,0.18-3.02,0.47c-0.52,0.16-0.89,1.23-0.66,1.87 M813.74,236.43
			c0.23-0.64-0.14-1.71-0.66-1.87c-0.94-0.3-2.03-0.4-3.02-0.47 M821.69,234.16l-0.34-5.11 M810.96,234.16l0.34-5.11 M815.06,240.02
			h2.41 M803.92,240.02h7.04 M806.22,240.02v9.03 M835,240.02h-13.06 M832.7,240.02v9.03 M791.71,249.05v-8.78 M791.71,238.97
			v-33.04 M800.75,207.31h-1.9l-1.54,2.35v0.06h4.97v-0.06L800.75,207.31L800.75,207.31z M791.71,205.92c0-3.28,1.79-5.94,4.01-5.94
			c2.21,0,4,2.66,4,5.94 M791.71,205.92c0-3.28-1.79-5.94-4-5.94c-2.21,0-4,2.66-4,5.94 M784.65,207.31h-1.9l-1.54,2.35v0.06h4.97
			v-0.06L784.65,207.31z"/>
		<path class="st0" d="M917.38,293.46l1.19-1.67l0.03-0.01l3.32,1.83l0,0.01l-4.87-0.18l-6.52,0.73c-1.89,0-1.89,2.87,0,2.87
			l7.04-0.18l8.64,0.18c1.24,0,2.45-0.71,2.86-1.91l1.59-4.58 M929.68,288.86l1.91,2.67l1.49,4.75c0.52,1.44,3.04,0.8,2.57-0.53
			l-1.39-5.36c-0.02-0.12-0.07-0.25-0.13-0.37l-2.59-4.86c-0.34-0.64-0.83-0.98-1.52-1.22c-1.43-0.49-2.99,0.27-3.48,1.7l-1.96,5.66
			l-5.15-2.99c-0.85-0.62-2.01-0.33-2.51,0.58l-2.73,4.87 M925.68,278.59c0.12-0.35,0.29-0.62,0.48-0.83
			c1.24-1.32,5.36-0.44,4.97,2.06c-0.11,0.71-0.7,2.34-1.22,2.9c-0.57,0.61-1.64,0.98-2.5,0.87c-1.2-0.15-2.08-0.84-2.16-2.12
			C925.2,280.63,925.47,279.18,925.68,278.59L925.68,278.59z M952.18,294.69V264.7 M948.44,286.73c-5.34-0.87-9.58-3.75-10.64-7.71
			c-2.58-7.8-2.56-12.03-0.63-15.24c0.33-0.54,0.67-1.04,1-1.53c0.88-1.29,1.66-2.48,1.75-4.12c0.17-2.97,2.67-5.31,4.81-6.87
			c2.62-1.91,4.9-2.88,9.09-2.17c0.79,0.13,5.12,1.21,5.9,1.45c3.66,1.14,5.65,4.52,7.23,8.29c1.72,4.12-0.71,7.27,0.83,9.05
			c1.78,2.06,1.28,6.5,0.71,8.91c-1.39,5.83-10.04,10.26-16.06,10.29 M952.18,272.29l-5.02-3.09 M952.18,276.46l8.87-5.46
			 M952.18,281.71l-9.07-5.59 M971.69,289.88c3.84-0.13,7.59-2.61,8.37-5.14c1.83-4.97,1.98-7.66,0.95-9.71
			c-0.17-0.35-0.36-0.66-0.54-0.97c-0.47-0.82-0.89-1.58-0.89-2.63c0.01-1.89-1.39-3.38-2.61-4.38c-1.49-1.22-2.81-1.83-5.33-1.38
			c-0.3,0.05-1.42,0.34-2.34,0.58 M963.37,285.5c1.38,2.21,3.79,3.94,6.17,4.3 M971.67,294.72v-8.32 M1022.81,297.05H900.3
			 M998.86,296.98l0.16-8.56l0.18-7.34 M994.96,282.06l0.59,6.65l0.48,8.22 M993.28,296.93l0.48-8.22l0.59-6.65 M990.11,281.07
			l0.18,7.34l0.16,8.56 M991.64,258.88c-0.07,0.79,0.1,2.67,0.5,3.38c0.34,0.62,1.15,1.22,2.04,1.42c0.35,0.05,0.62,0.05,0.97,0
			c0.89-0.2,1.69-0.8,2.04-1.42c0.39-0.71,0.57-2.59,0.5-3.38C997.39,255.83,991.93,255.83,991.64,258.88L991.64,258.88z
			 M1011.14,291.44l0.56,0.02l0.87-0.27c0.05-1.58,0.08-2.67,0.01-4.39l-0.71-2.56c-0.28-0.97-1.19-1.33-2.39-1.31
			c-1.12,0.02-2.74,0-2.85-0.07l-2.99-1.96l-1.15-6.3c-0.01-1.21-0.62-6.01-1.2-7.19c-0.54-1.08-1.11-1.87-2.35-2.18
			c-1.24-0.31-6.78-0.31-8.02-0.01c-1.54,0.37-2.69,2.04-2.79,3.59l-0.28,4.35c-0.07,0.6-0.07,0.84-0.03,1.44l0.51,6.51
			c0.05,0.3,0.63,0.62,1.03,0.89c0.19,0.12,0.41,0.06,0.61-0.06 M1010.35,296.58l0.49-3.67c0.04-0.18,0.05-0.36,0.04-0.55l0.09-1.46
			l-0.25-4.93 M1008.57,297.26l-0.08-3.82c-0.01-0.12,0-0.24,0.02-0.36l0.27-2.36 M999.17,268.98l0.8,5.49
			c0.59,2.42,1.17,4.84,1.75,7.26c0.21,0.54,0.45-0.02,0.92,0.43c1.16,1.1,2.64,2.44,3.48,3.31c0.03,1.21,0.13,2.17,0.14,3.3
			c0.02,1.3-0.05,2.77-0.08,4.17c-0.01,0.27,0,0.47,0.03,0.73l0.53,3.64 M999.2,281.23c-0.01-2.14-0.05-4.27-0.16-6.36
			c0.06-1.98,0-4.17,0.15-6.17 M990.09,268.71c0.15,2,0.13,4.18,0.19,6.16c-0.13,2.39-0.2,4.62-0.23,7.12 M1006.65,279.44
			c0.09-0.99,0.98-1.48,1.96-1.48c0.99,0,1.87,0.49,1.97,1.48c0.05,0.52-0.07,1.74-0.32,2.2c-0.22,0.4-0.75,0.79-1.33,0.92
			c-0.28,0.04-0.35,0.04-0.63,0c-0.58-0.13-1.1-0.52-1.33-0.92C1006.72,281.18,1006.6,279.95,1006.65,279.44L1006.65,279.44z
			 M918.22,268.91h1.5 M914.66,273.98h1.5 M911.02,269.81h1.5 M923.4,270.08h1.5 M915.15,266.18h1.5"/>
		<path class="st0" d="M1021.86,175.58v4.92 M1017.27,175.58v4.92 M1019.57,167.13v22.11 M1032.02,189.17v-5.27h11.54v5.27
			 M995.56,189.17v-5.27h11.54v5.27 M1017.06,137.41c-0.13-0.35-0.21-0.66-0.26-0.94c-0.31-2,1.51-2.54,1.51-4.3
			c0-2.13-2.63-2.31-1.02-5.8 M1021.03,137.41c-0.13-0.35-0.22-0.66-0.26-0.94c-0.3-2,1.51-2.54,1.51-4.3c0-2.13-2.64-2.31-1.02-5.8
			 M1023.69,140.51h3.77c0.29,0,0.52,0.24,0.52,0.52v2.55c0,0.28-0.24,0.52-0.52,0.52h-3.77 M1014.01,139.24h9.69v7.35
			c0,0.85-0.71,1.57-1.57,1.57h-6.55c-0.85,0-1.57-0.71-1.57-1.57V139.24L1014.01,139.24z M1029.79,164.24v17.36 M1045.85,181.6
			h-16.07v9.34 M993.28,181.6h16.07v9.34 M1009.35,164.24v17.36 M993.28,166.61v24.32h52.57v-24.32 M999.65,162.16
			c0,2.63-2.23,4.76-4.98,4.76c-2.75,0-4.98-2.13-4.98-4.76 M1038.59,150.55h-38.05l-10.86,11.57v0.04h59.76v-0.04L1038.59,150.55
			L1038.59,150.55z M1009.61,162.16c0,2.63-2.23,4.76-4.98,4.76c-2.75,0-4.98-2.13-4.98-4.76 M1019.57,162.16
			c0,2.63-2.23,4.76-4.98,4.76c-2.75,0-4.98-2.13-4.98-4.76 M1029.53,162.16c0,2.63-2.23,4.76-4.98,4.76
			c-2.75,0-4.98-2.13-4.98-4.76 M1039.49,162.16c0,2.63-2.23,4.76-4.98,4.76c-2.75,0-4.98-2.13-4.98-4.76 M1049.45,162.16
			c0,2.63-2.23,4.76-4.98,4.76s-4.98-2.13-4.98-4.76 M999.65,162.12l7.22-11.57 M1009.61,162.12l3.43-11.57 M1019.57,162.16v-11.61
			 M1039.49,162.12l-7.22-11.57 M1029.53,162.12l-3.43-11.57 M1025.25,147.44h13.34v3.12 M1000.54,150.55v-3.12h12"/>
		<path class="st1" d="M1066.26,240.69c-1.49,1.83-5.28,1.83-6.76,0c-1.48,1.83-5.28,1.83-6.76,0c-1.49,1.83-5.28,1.83-6.77,0
			 M1075.41,236.54c-1.49,1.83-5.28,1.82-6.77,0c-1.48,1.83-5.28,1.82-6.76,0c-1.49,1.83-5.28,1.82-6.76,0 M1055.94,244.6
			c-1.49,1.82-5.28,1.82-6.76,0c-1.49,1.82-5.28,1.82-6.76,0 M1083.77,226.51c-4.02,2-1.87,3.78,1.45,4.63
			c4.36,1.02,8.13,1.36,12.46,2.06c3.44,0.61,3.33,2.16,1.8,3.02c-2.26,1.27-7.51,1.82-8.27,1.91c-2.59,0.32-6.42,0.34-9.25,0.86
			c-2.46,0.24-3.12,2.42-1.03,2.88c12.19,2.58-1.18,5.11-11.72,6.32c-11.22,1.28-36.81,2.08-45.41-3.08
			c-3.62-2.17-3.34-4.37,0.77-5.38c1.77-0.43,4.28-0.86,7.26-1.2c0.82-0.09,3.65-0.33,5.17-0.88c1.82-0.67,2.09-1.71-0.56-2.2
			c-2.03-0.29-4.05-0.58-5.78-0.84c-4.58-0.87-2.89-2.8,0.9-3.34c4.27-0.63,10.66-0.65,14.53-0.93c3.23-0.23,6-1.16,8.81-2.21
			c4.3-1.62,7.84-3.22,12.4-3.9C1076.51,222.87,1090.77,223.02,1083.77,226.51L1083.77,226.51z M1092.06,229.52v-7.41
			 M1090.62,225.32h-0.39c-1.51,0-4.18-3.51-4.18-4.95v-4.49c0-0.7,0.53-1.27,1.17-1.27l0.59-0.84c0-0.9,0.67-1.63,1.5-1.63h3.13
			c0.96,0,3.03,1.5,3.15,1.94c0.28,1.01,2.56,0.64,2.56,2.87v4.5c0,1.47-1,1.58-1.96,2.38c-0.79,0.66-2.24,1.49-2.47,1.49h-1.63
			 M1051.99,221.08h1.38c2.13,0,1.14-1.76,3.21-1.76c1.47,0,3.12-4.68,3.12-4.85v-5.99c0-0.93-0.92-1.08-1.56-1.7l-1.17-1.13
			c-0.82-0.79-1.28-2.18-2.38-2.18h-3.94c-0.95,0-1.75,0.32-1.95,1.29c0,0.02-3.24,2.54-3.39,2.55c-2.71,0.26-2.09,10.96-0.52,11.51
			c1.31,0.46,4.35,2.25,5.06,2.25h0.68 M1052.11,226.68v-8.79 M1036.19,228.41v-6.28 M1034.74,224.21h-0.39
			c-1.51,0-4.18-3.51-4.18-4.95v-3.35c0-0.56,0.34-1.04,0.81-1.21c0.69-0.24,0.81-0.53,1-1.32c0.17-0.7,0.76-1.21,1.45-1.21h3.81
			c0.16,0,3.43,2.38,3.51,2.66c0.03,0.11,1.21,7.21-0.61,8.24l-2.3,1.15h-1.63 M1064.55,218.14h1.31 M1068.87,214.8h1.31
			 M1064.95,211.16h1.31 M1063.32,214.97h1.31 M1071.17,219.6h1.31 M1078.56,210.73h1.31 M1073.72,213.21h1.31 M1070.74,210.33h1.31
			 M1068.07,207.36h1.31 M1054,217.69c0,0,0.65-0.97,1.78-1.01c1.14-0.04,1.7-2.34,1.7-2.34v-5.25 M1053.15,215.08
			c0.21-0.15,0.49-0.29,0.84-0.3c0.8-0.03,1.2-1.65,1.2-1.65v-3.12 M1037.35,221.82l1.03-0.61c0.6-0.36,0.92-1.41,0.92-1.41
			l-0.24-3.16 M1094.39,222.24c1.46,0.14,1.59-1.86,1.59-2.2v-3.41"/>
		<g>
			<path class="st2" d="M939.87,232.81v-2.4h9.83l-5.01-6.64h3.63l-4.97-6.59h2.98l-6.61-9.69l-6.61,9.69h2.98l-4.97,6.59h3.63
				l-5.01,6.64h8.46 M943.35,217.18h-1.6 M940.89,217.18h-1.99 M944.69,223.78h-3.85 M939.72,223.78h-2.68"/>
			<path class="st2" d="M963.62,220.85c-0.5-0.5-3.39-3.39-3.39-3.39 M963.62,224.73c-0.45-0.45-2.36-2.36-3.52-3.52 M963.62,219.68
				c0.5-0.5,3.39-3.39,3.39-3.39 M963.62,223.85c0.45-0.45,2.14-2.14,3.48-3.48 M963.62,233.4v-18.53 M961.8,226.68
				c-0.84-0.04-2.22-0.45-3.11-0.86c-2.7,0-4.89-2.7-4.89-5.4c0-0.74,0.16-1.43,0.45-2.06c0.23-0.66,0.15-1.21-0.22-1.64
				c-0.6-0.69-0.96-1.59-0.96-2.58c0-1.25,0.58-2.36,1.48-3.08c0.64-0.48,1.06-1.11,1.08-1.98c0-2.7,2.19-4.9,4.9-4.9
				c1.4,0,2.67,0.59,3.56,1.54c0.48,0.48,1,0.57,1.54,0.37c0.55-0.22,1.16-0.35,1.79-0.35c2.64,0,4.78,2.14,4.78,4.78
				c-0.01,0.89,0.31,1.56,1,1.96c0.85,0.59,1.4,1.57,1.4,2.69c0,0.93-0.39,1.77-1.01,2.36c-0.48,0.51-0.75,0.62-0.59,1.7
				c0.07,0.35,0.1,0.71,0.1,1.07c0,3.12-2.53,5.65-5.65,5.65c-0.5,0-0.98-0.07-1.45-0.19c-0.71,0.43-1.52,0.73-2.41,0.87"/>
			<path class="st2" d="M914.29,221.58c-0.5-0.5-3.39-3.39-3.39-3.39 M914.29,220.47c0.5-0.5,3.39-3.39,3.39-3.39 M914.29,224.2
				c0.5-0.5,3.39-3.39,3.39-3.39 M914.29,233.4v-16.8 M912.94,226.91h-1.75c-1.18,0-2.16-0.9-2.3-2.04h-1.28
				c-0.94,0-1.72-0.77-1.72-1.72v-1.95c-0.98-0.11-1.75-0.95-1.75-1.95v-6.95c0-1.08,0.88-1.97,1.97-1.97h1v-1.31
				c0-1.39,1.14-2.52,2.52-2.52h6.41c1.39,0,2.52,1.14,2.52,2.52v0.37h1.75c0.94,0,1.72,0.77,1.72,1.72v0.32h1.71
				c1.39,0,2.52,1.14,2.52,2.52v6.97c0,1.39-1.14,2.52-2.52,2.52h-1.1c-0.01,0.93-0.78,1.7-1.72,1.7h-1.63
				c-0.24,1.01-1.16,1.77-2.25,1.77h-2.75"/>
			<line class="st2" x1="904.12" y1="233.4" x2="974.66" y2="233.4"/>
		</g>
		<path class="st2" d="M727.29,275.48h-72.55 M715.79,266.63c-1.05-3.87-4.19-6.69-7.9-6.69c-4.57,0-8.28,4.26-8.28,9.52
			 M701.17,263.74c-1.02-0.51-2.14-0.8-3.32-0.8c-4.57,0-8.28,4.26-8.28,9.52c0,0.38,0.02,0.76,0.06,1.12 M721.76,273.36
			c0-3.6-2.54-6.52-5.67-6.52c-3.13,0-5.67,2.92-5.67,6.52 M683.12,239.07c1.47-1.97,3.49-3.5,5.37-3.95 M683.12,245.86
			c-1.46-1.97-3.49-3.5-5.37-3.95 M683.12,251.52c1.47-1.97,3.49-3.5,5.37-3.95 M683.12,259.45c-0.47-4.62-3.49-6.81-5.37-7.25
			 M683.12,230.82v42.09 M679.82,260.52c-2.44-0.78-4.25-3.36-4.25-6.41v-24.97c0-3.66,2.6-6.65,5.78-6.65h3.54
			c3.18,0,5.78,2.99,5.78,6.65v24.97c0,3.66-2.6,6.65-5.78,6.65h-1.76 M664.32,251.8c0.97-0.91,2.23-1.67,3.49-2.12 M664.32,256.04
			c-0.97-0.91-2.22-1.67-3.49-2.12 M664.32,259.57c0.94-0.88,2.14-1.62,3.36-2.07 M664.32,264.52c-0.31-2.15-1.9-3.45-3.39-4.09
			 M664.32,246.66v26.25 M661.36,265.18c-2.19-0.48-3.82-2.1-3.82-4v-15.57c0-2.28,2.33-4.15,5.19-4.15h3.18
			c2.85,0,5.19,1.87,5.19,4.15v15.57c0,2.28-2.33,4.15-5.19,4.15h-1.58 M696.23,235.24h2.87 M700.07,240.45h2.87 M706.78,246.93
			h2.87 M707.17,236.51h2.87 M714.47,229.84h2.87 M716.88,239.51h2.87 M667.49,235.65h2.87 M664.88,229.06h2.87 M658.1,234.3h2.87"
			/>
		<path class="st0" d="M926.08,188.76v-25.43h-99.29v25.43 M822.45,147.67h52.65v-14.21h-52.65V147.67L822.45,147.67z
			 M935.16,188.76v-38.11h-9.85v-3.66h-19.09v3.66h-4.44v-3.66h-19.09v3.66h-64.98v38.11 M882.69,150.65h19.09 M906.22,150.65h19.09
			 M831.78,150.65v-2.98 M865.78,150.65v-2.98 M846.92,163.33l0,25.43 M866.6,163.33l0,25.43 M886.28,163.33l0,25.43 M905.96,163.33
			l0,25.43 M747.36,188.76h222.24 M795.63,168.26c0.23,0.86,1.15,4.66,1.29,5.56c0.07,0.45-0.2,0.64-0.73,0.64l-39.56,0.45
			 M793.29,179.45c-2.3,0-4.16,1.86-4.16,4.16c0,2.3,1.86,4.16,4.16,4.16c2.3,0,4.16-1.86,4.16-4.16
			C797.46,181.32,795.59,179.45,793.29,179.45L793.29,179.45z M760.52,179.45c-2.3,0-4.16,1.86-4.16,4.16c0,2.3,1.86,4.16,4.16,4.16
			c2.3,0,4.16-1.86,4.16-4.16C764.68,181.32,762.82,179.45,760.52,179.45L760.52,179.45z M797.01,186.09l1.49-0.19
			c0.44-0.06,1.05-0.35,1.31-0.71c0.5-0.7,0.74-2.91,0.89-4.15c0.11-0.89-0.49-0.69-0.45-1.5c0.11-2.05-0.42-6.12-1.11-8.7
			c-0.52-2.04-0.85-2.5-3.63-2.59c-8.16-0.02-16.3,0.07-24.43,0.25c-1.82,0.09-4.04,0.52-5.69,1.36c-1.99,1.02-4.44,3.05-6.61,4.08
			c-1.9,0.9-3.28,1.47-4.2,2.23c-0.42,0.35-0.69,0.88-0.84,1.45c-0.25,0.96-0.25,2.76-0.32,3.81l-0.25,0.36
			c-0.12,0.21-0.15,0.47-0.13,0.78l0.34,2.21c0.07,0.53,0.46,0.91,1.03,1.01l2.38,0.28 M764.23,186.09l25.35,0 M961.88,188.78v-6.87
			 M956.65,181.35c0.87,1.39,2.39,2.48,3.89,2.71 M961.89,184.11c2.42-0.08,4.78-1.65,5.27-3.24c1.16-3.13,1.25-4.83,0.6-6.12
			c-0.38-0.76-0.9-1.37-0.9-2.27c0.01-2.41-2.89-4-5-3.63c-0.18,0.03-0.89,0.21-1.47,0.37 M947.24,182.12
			c-3.37-0.55-6.04-2.36-6.71-4.86c-1.63-4.92-1.61-7.58-0.39-9.6c0.2-0.34,0.42-0.66,0.63-0.96c0.55-0.81,1.05-1.57,1.1-2.6
			c0.11-1.87,1.68-3.34,3.03-4.33c4.95-3.61,11.66-0.82,14,4.77c1.08,2.6-0.44,4.58,0.52,5.7c1.12,1.3,0.81,4.1,0.44,5.62
			c-0.87,3.67-6.33,6.46-10.12,6.48 M949.6,188.76v-12.03 M841.05,168.08c-0.07-0.77-0.73-1.16-1.48-1.16s-1.41,0.39-1.48,1.16
			c-0.04,0.4,0.05,1.36,0.24,1.72c0.17,0.32,0.56,0.62,1,0.72c0.18,0.03,0.29,0.03,0.47,0c0.44-0.1,0.83-0.41,1-0.72
			C841,169.43,841.09,168.48,841.05,168.08L841.05,168.08z M837.68,187.36l-0.18-6.65l-0.79-0.08l-0.24-0.24l-0.38-3.55l0.17-3.84
			c0.02-0.21,0.31-0.46,0.52-0.53c2.21-0.72,3.39-0.72,5.6,0c0.21,0.07,0.5,0.32,0.52,0.53l0.17,3.84l-0.38,3.55l-0.24,0.24
			l-0.79,0.08l-0.18,6.65 M839.58,179.8v7.56 M809.86,168.08c-0.07-0.77-0.73-1.16-1.48-1.16c-0.74,0-1.41,0.39-1.48,1.16
			c-0.04,0.4,0.05,1.36,0.24,1.72c0.17,0.32,0.56,0.62,1,0.72c0.18,0.03,0.3,0.03,0.47,0c0.44-0.1,0.83-0.41,1-0.72
			C809.81,169.43,809.9,168.48,809.86,168.08L809.86,168.08z M806.48,187.36l-0.18-6.65l-0.79-0.08l-0.24-0.24l-0.38-3.55l0.17-3.84
			c0.02-0.21,0.31-0.46,0.52-0.53c2.21-0.72,3.39-0.72,5.6,0c0.21,0.07,0.5,0.32,0.52,0.53l0.16,3.84l-0.38,3.55l-0.24,0.24
			l-0.79,0.08l-0.18,6.65 M808.38,179.8v7.56"/>
		<path class="st0" d="M1089.45,175.12h-9.93 M1066.43,172.69l-1.09,4.57l0.35,0.57l4.59,1.02c1.39,0.28,1.88,1.98,1.76,2.85
			l-0.59,8.76 M1068.53,190.44l-0.26-8.06c0-0.32-0.17-0.49-0.55-0.5h-5.25c-2.5,0-3.04-1.94-3-3.83c0.08-2.52,0.2-6.67,1.15-9.36
			c1.27-3.6,4.85-3.28,6.65-1.92c1.17,0.92,2.3,3.39,3.2,4.63c0.07,0.07,0.16,0.12,0.26,0.15l5.85,0.93
			c1.45,0.34,1.27,2.5,0.08,2.65l-6.28,0.01c-0.43-0.05-0.76-0.18-1.13-0.38l-3.91-3.18 M1070.39,160.67
			c0.14-1.5-1.04-2.53-2.5-2.84c-1.46-0.32-2.91,0.14-3.32,1.59c-0.21,0.75-0.38,2.62-0.13,3.39c0.22,0.68,0.89,1.42,1.71,1.81
			c0.4,0.15,0.51,0.17,0.93,0.2c0.89-0.01,1.78-0.43,2.22-0.96C1069.81,163.24,1070.31,161.46,1070.39,160.67L1070.39,160.67z
			 M1056.7,172.9l0.98,7.97c0.29,2.07,1.36,3.05,3.24,3.03l6.21,0.04 M1100.77,172.9l-0.98,7.97c-0.29,2.07-1.36,3.05-3.24,3.03
			l-6.08,0.04 M1094.01,159.02c1.14-1.43,5.49-0.97,5.35,1.54c-0.04,0.71-0.5,2.69-0.98,3.29c-1.26,1.58-4.55,1.59-4.95-0.77
			C1093.26,162.15,1093.36,159.83,1094.01,159.02L1094.01,159.02z M1092.56,170.36l-0.09,6.96c0.02,0.2-0.07,0.36-0.3,0.44
			l-5.25,1.1c-1.39,0.28-1.75,1.84-1.62,2.72l0.73,8.89 M1088.93,190.44l0.26-8.06c0-0.32,0.17-0.49,0.55-0.5h5.25
			c2.5,0,2.83-1.97,3-3.39l0.8-6.28c0.15-1.28,0.29-2.57,0.03-4.03c-0.14-1.03-0.91-1.71-1.84-1.93c-1.23-0.29-4.57,1-5.91,1.41
			c-0.49,0.07-0.76-0.02-0.9-0.52l-0.65-4.53c-0.21-1.46-2.71-0.95-2.56,0.6l0.41,6.32c0.15,0.87,1.06,1.53,1.7,1.56l6.34-0.66
			 M1086.86,163.49l-1.13-2.41c-0.04-0.09,0-0.2,0.09-0.25l4.02-2.4l1.76,3.78l-2.03,0.81 M1076.47,172.73l-0.31-2.82h3.93
			l-0.57,5.21h-3.12 M1078.72,175.12v15.73 M1097.01,183.87l1.45,6.56 M1060.79,183.87l-1.45,6.56 M1053.97,190.86h52.57"/>
		<path class="st0" d="M680.21,149.92c0,2.61-2.11,4.72-4.72,4.72c-2.61,0-4.72-2.11-4.72-4.72 M717.11,136.43h-36.05l-10.29,13.45
			v0.04h56.62v-0.04L717.11,136.43L717.11,136.43z M689.65,149.92c0,2.61-2.11,4.72-4.72,4.72c-2.61,0-4.72-2.11-4.72-4.72
			 M699.08,149.92c0,2.61-2.11,4.72-4.72,4.72c-2.61,0-4.72-2.11-4.72-4.72 M708.52,149.92c0,2.61-2.11,4.72-4.72,4.72
			c-2.61,0-4.72-2.11-4.72-4.72 M717.96,149.92c0,2.61-2.11,4.72-4.72,4.72c-2.61,0-4.72-2.11-4.72-4.72 M727.39,149.92
			c0,2.61-2.11,4.72-4.72,4.72c-2.61,0-4.72-2.11-4.72-4.72 M680.21,149.88l6.84-13.45 M689.65,149.88l3.25-13.45 M699.08,149.92
			v-13.49 M717.96,149.88l-6.84-13.45 M708.52,149.88l-3.25-13.45 M721.88,174.44v-18.29 M676.29,174.44v-18.29 M673.78,192.86
			v-18.42h50.61v18.42 M670.34,192.86h57.48 M712.45,174.41l-0.17-4.04 M700.8,174.41l0.77-6.07c1.09-2.52,11.78-2.52,12.88,0
			l0.83,6.07 M703.7,170.4l-0.19,4 M710.98,159.89c-0.14-1.51-1.48-2.27-2.97-2.27s-2.83,0.76-2.97,2.27
			c-0.07,0.79,0.1,2.66,0.49,3.37c0.34,0.62,1.13,1.21,2,1.42c0.42,0.06,0.53,0.06,0.95,0c0.88-0.2,1.67-0.8,2.01-1.42
			C710.88,162.55,711.05,160.68,710.98,159.89L710.98,159.89z M683.38,165.26h3.27v-4.1h-3.27V165.26L683.38,165.26z M686.23,171.68
			h3.27v-4.1h-3.27V171.68L686.23,171.68z M680.53,171.68h3.27v-4.1h-3.27V171.68L680.53,171.68z M676.36,177.56h45.44
			 M681.06,136.43v-4.86h36.05v4.86"/>
		<path class="st0" d="M725.06,210.59c-0.15,0.77-0.14,2.65,0.19,3.41c0.36,0.83,1.32,1.6,2.24,1.8c1.28,0.28,2.44-0.1,2.98-1.38
			c0.36-0.84,0.61-2.42,0.6-3.1 M731.18,227.06l6.66-0.95c0.65,0,1.8-1.69,1.1-1.9l-5.58,0l-1.79-5.21
			c-0.21-0.66-1.11-1.15-1.92-1.41c-0.94-0.3-3.72-0.72-4.58-0.72c-0.99,0-2.08,0.38-2.68,1.13c-1.6,2-1.45,5.83-1.77,8.43
			c0.14,2.53,0.22,4.55,0.34,7.08c0.02,0.26,0.17,0.46,0.4,0.61c0.19,0.12,0.78,0.23,1.07,0.23c0.3,0.02,0.68-0.27,0.69-0.7
			l0.03-1.93l-0.04-5.19l0.76-4.68 M722.77,234.39l-0.41,14.24 M725.2,248.64l1.82-15.11l0.13-0.01l0.44,15.15 M730.59,248.64
			l0.38-14.87c0.14-3.55,0.25-4.8,0.19-6.85l-0.42-4.66 M735.49,220.09c0.29,1.17,1.16,2.13,2.31,2.58h1.77
			c1.15-0.45,2.02-1.41,2.31-2.58H735.49L735.49,220.09z M739.86,218.66c0.16-0.31,0.25-0.57,0.29-0.79
			c0.18-1.06-0.89-1.15-0.89-2.09c0-1.13,1.55-1.03,0.6-2.87 M737.79,218.66c0.16-0.31,0.25-0.57,0.29-0.79
			c0.18-1.06-0.89-1.15-0.89-2.09c0-1.13,1.56-1.03,0.6-2.87 M731.2,211.04c-0.01-0.57,0.37-1.63,0.55-2.17
			c0.04-0.11,0.19-0.19,0.28-0.25c1.65-1.16,0.7-3.54-1.25-3.25c-0.53-1.63-3.5-1.91-4.33-0.42c-1.86-0.65-3.24,1.5-1.85,2.95
			c0.07,0.08,0.21,0.19,0.23,0.3c0.08,0.56,0.25,1.68,0.12,2.24C724.74,211.44,731.23,212.07,731.2,211.04L731.2,211.04z
			 M733.1,233.12h16.92 M761.08,230.78l-0.96,7.78c-0.28,2.02-1.33,2.98-3.17,2.96l-6.11,0.04 M749.26,218.09
			c0.11-1.47,1.4-2.27,2.86-2.34c1.46-0.07,2.78,0.6,2.95,2.06c0.09,0.76-0.05,2.58-0.42,3.28c-0.32,0.62-1.08,1.23-1.93,1.47
			c-0.41,0.08-0.52,0.08-0.93,0.04c-0.86-0.16-1.64-0.69-1.99-1.28C749.41,220.66,749.2,218.86,749.26,218.09L749.26,218.09z
			 M751.58,230.57l1.06,4.47l-0.34,0.56l-4.7,1c-1.36,0.27-1.89,1.98-1.77,2.83l0.85,9.09 M749.52,248.5l0.26-8.11
			c0-0.31,0.17-0.48,0.53-0.49h5.12c2.44,0,2.97-1.9,2.93-3.74c-0.08-2.46-0.2-6.86-1.12-9.49c-1.24-3.52-4.73-3.2-6.49-1.88
			c-1.14,0.9-2.25,3.31-3.13,4.52c-0.07,0.07-0.16,0.12-0.25,0.15l-5.68,0.91c-1.41,0.33-1.25,2.44-0.07,2.59l6.09,0
			c0.42-0.05,0.75-0.18,1.1-0.37l3.82-3.11 M757.27,241.51l1.66,7.37 M762.31,248.86h-44.86 M741.56,233.12v15.74"/>
	</g>
	<path class="st3" d="M1098.47,323.48H663.11c-19.7,0-35.82-16.12-35.82-35.82V96.3c0-19.7,16.12-35.82,35.82-35.82h435.36
		c19.7,0,35.82,16.12,35.82,35.82v191.36C1134.29,307.36,1118.17,323.48,1098.47,323.48z"/>
</g>
<g>
	<path class="st4" d="M720.83,493.22h-80.34c-9.26,0-16.83-7.57-16.83-16.83v-80.34c0-9.26,7.57-16.83,16.83-16.83h80.34
		c9.26,0,16.83,7.57,16.83,16.83v80.34C737.65,485.65,730.08,493.22,720.83,493.22z"/>
	<g>
		<line class="st0" x1="632.65" y1="480.78" x2="728.65" y2="480.78"/>
		<g>
			<polygon class="st0" points="680.56,388.22 698.61,388.22 698.61,401.27 680.56,401.27 680.56,388.22 			"/>
			<polyline class="st0" points="720.79,480.78 720.79,438.55 728.39,438.55 728.39,432.71 680.56,411.39 632.92,432.71 
				632.92,438.55 640.51,438.55 640.51,480.78 			"/>
			<path class="st0" d="M680.65,419.07c-2.99,0-5.42,2.8-5.42,6.25c0,3.45,2.42,6.26,5.42,6.26c2.99,0,5.42-2.8,5.42-6.26
				C686.07,421.87,683.65,419.07,680.65,419.07L680.65,419.07z"/>
			<line class="st0" x1="680.56" y1="411.39" x2="680.56" y2="401.27"/>
			<polyline class="st0" points="655.33,459.39 655.33,456.89 707.39,456.89 707.39,459.39 			"/>
			<g>
				<line class="st0" x1="683.7" y1="470.78" x2="694.06" y2="470.78"/>
				<line class="st0" x1="668.66" y1="470.78" x2="679.02" y2="470.78"/>
				<polyline class="st0" points="696.43,480.19 696.43,460.5 666.3,460.5 666.3,480.19 				"/>
				<line class="st0" x1="681.36" y1="460.5" x2="681.36" y2="480.19"/>
			</g>
			<polyline class="st0" points="721.33,480.33 721.33,439.93 640.82,439.93 640.82,480.33 			"/>
		</g>
	</g>
</g>
<path class="st4" d="M997.17,489h-80.34c-9.26,0-16.83-7.57-16.83-16.83v-80.34c0-9.26,7.57-16.83,16.83-16.83h80.34
	c9.26,0,16.83,7.57,16.83,16.83v80.34C1014,481.43,1006.43,489,997.17,489z"/>
<g>
	<line class="st0" x1="765.79" y1="480.54" x2="861.79" y2="480.54"/>
	<g>
		<polygon class="st0" points="813.7,387.98 831.75,387.98 831.75,401.03 813.7,401.03 813.7,387.98 		"/>
		<polyline class="st0" points="853.93,480.54 853.93,438.31 861.53,438.31 861.53,432.47 813.7,411.15 766.06,432.47 
			766.06,438.31 773.65,438.31 773.65,480.54 		"/>
		<path class="st0" d="M813.79,418.83c-2.99,0-5.42,2.8-5.42,6.25c0,3.45,2.42,6.26,5.42,6.26c2.99,0,5.42-2.8,5.42-6.26
			C819.21,421.63,816.78,418.83,813.79,418.83L813.79,418.83z"/>
		<line class="st0" x1="813.7" y1="411.15" x2="813.7" y2="401.03"/>
		<polyline class="st0" points="788.47,459.15 788.47,456.65 840.53,456.65 840.53,459.15 		"/>
		<g>
			<line class="st0" x1="816.84" y1="470.54" x2="827.19" y2="470.54"/>
			<line class="st0" x1="801.8" y1="470.54" x2="812.16" y2="470.54"/>
			<polyline class="st0" points="829.56,479.95 829.56,460.26 799.43,460.26 799.43,479.95 			"/>
			<line class="st0" x1="814.5" y1="460.26" x2="814.5" y2="479.95"/>
		</g>
		<polyline class="st0" points="854.47,480.09 854.47,439.69 773.96,439.69 773.96,480.09 		"/>
	</g>
</g>
<line class="st0" x1="720.35" y1="755.1" x2="999.24" y2="755.1"/>
<polyline class="st0" points="976.41,755.1 976.41,593.12 998.47,593.12 998.47,570.75 859.52,488.96 721.12,570.75 721.12,593.12 
	743.18,593.12 743.18,755.1 "/>
<polyline class="st0" points="976.24,753.36 976.24,598.42 744.07,598.42 744.07,753.36 "/>
<g>
	<g>
		
			<rect x="834.23" y="517.27" transform="matrix(-1 -1.224647e-16 1.224647e-16 -1 1669.9503 1067.5995)" class="st5" width="1.5" height="33.05"/>
	</g>
	<g>
		
			<rect x="885.23" y="517.27" transform="matrix(-1 -1.224647e-16 1.224647e-16 -1 1771.9503 1067.5995)" class="st5" width="1.5" height="33.05"/>
	</g>
	<path class="st5" d="M888.92,518.83c-0.78,0.05-1.37,0.73-1.37,1.51v33.74c0,0.46-0.37,0.82-0.83,0.82h-23.6
		c0.91-0.73,2.13-1.6,3.66-2.46c3.52-1.99,9.45-4.36,17.7-4.36v-0.75v-0.75v-31.5v-0.8v-0.7c-8.63,0-14.85,2.92-18.55,5.38
		c-2.79,1.85-4.59,3.7-5.45,4.69c-0.86-0.99-2.66-2.84-5.45-4.69c-3.7-2.45-9.91-5.38-18.55-5.38v0.7v0.8v31.5v0.75v0.75
		c8.24,0,14.17,2.37,17.7,4.36c1.52,0.86,2.74,1.73,3.66,2.46h-23.6c-0.46,0-0.83-0.37-0.83-0.82v-33.74c0-0.78-0.59-1.46-1.37-1.51
		c-0.85-0.06-1.56,0.62-1.56,1.46v36.08c0,0.81,0.65,1.46,1.46,1.46h24.69c0.46,0,0.85,0.37,0.85,0.84
		c-0.01,0.78,0.62,1.41,1.4,1.41h3.2c0.77,0,1.4-0.63,1.4-1.4v-0.04c0-0.45,0.36-0.81,0.81-0.81h24.47c0.95,0,1.72-0.77,1.72-1.73
		v-35.81C890.48,519.45,889.77,518.77,888.92,518.83z M861.23,525.08c1.07-1.33,8.13-9.41,21.75-9.98v31.5
		c-7.83,0.27-13.53,2.6-17,4.57c-2.18,1.24-3.75,2.47-4.75,3.36V525.08z M837.98,546.6v-31.5c7.45,0.31,12.86,2.88,16.16,5.06
		c3.23,2.13,5.08,4.29,5.59,4.92v29.45c-1-0.89-2.57-2.12-4.75-3.36C851.51,549.2,845.81,546.87,837.98,546.6z"/>
	<path class="st5" d="M840.98,524.35v1.51c5.92,0.76,10.32,2.93,13.16,4.8c0.99,0.66,1.86,1.31,2.59,1.93v-1.93
		c-0.52-0.4-1.09-0.81-1.7-1.22C852,527.45,847.3,525.13,840.98,524.35z"/>
	<path class="st5" d="M840.98,537.85v1.51c5.92,0.76,10.32,2.93,13.16,4.8c0.99,0.66,1.86,1.31,2.59,1.93v-1.93
		c-0.52-0.4-1.09-0.81-1.7-1.22C852,540.95,847.3,538.63,840.98,537.85z"/>
	<path class="st5" d="M855.02,524.95c-3.02-2-7.72-4.32-14.05-5.1v1.51c5.92,0.76,10.32,2.93,13.16,4.8
		c0.99,0.66,1.86,1.31,2.59,1.93v-1.93C856.21,525.77,855.64,525.36,855.02,524.95z"/>
	<path class="st5" d="M840.98,528.85v1.51c5.92,0.76,10.32,2.93,13.16,4.8c0.99,0.66,1.86,1.31,2.59,1.93v-1.93
		c-0.52-0.4-1.09-0.81-1.7-1.22C852,531.95,847.3,529.63,840.98,528.85z"/>
	<path class="st5" d="M840.98,533.35v1.51c5.92,0.76,10.32,2.93,13.16,4.8c0.99,0.66,1.86,1.31,2.59,1.93v-1.93
		c-0.52-0.4-1.09-0.81-1.7-1.22C852,536.45,847.3,534.13,840.98,533.35z"/>
	<path class="st5" d="M879.98,528.85c-6.33,0.78-11.03,3.1-14.05,5.1c-0.62,0.41-1.18,0.82-1.7,1.22v1.94
		c3.01-2.52,8.22-5.78,15.75-6.74V528.85z"/>
	<path class="st5" d="M879.98,533.35c-6.33,0.78-11.03,3.1-14.05,5.1c-0.62,0.41-1.18,0.82-1.7,1.22v1.94
		c3.01-2.52,8.22-5.78,15.75-6.74V533.35z"/>
	<path class="st5" d="M879.98,524.35c-6.33,0.78-11.03,3.1-14.05,5.1c-0.62,0.41-1.18,0.82-1.7,1.22v1.94
		c3.01-2.52,8.22-5.78,15.75-6.74V524.35z"/>
	<path class="st5" d="M879.98,519.85c-6.33,0.78-11.03,3.1-14.05,5.1c-0.62,0.41-1.18,0.82-1.7,1.22v1.94
		c3.01-2.52,8.22-5.78,15.75-6.74V519.85z"/>
	<path class="st5" d="M879.98,537.85c-6.33,0.78-11.03,3.1-14.05,5.1c-0.62,0.41-1.18,0.82-1.7,1.22v1.94
		c3.01-2.52,8.22-5.78,15.75-6.74V537.85z"/>
</g>
<g>
	<path class="st0" d="M357.85,656.05c-0.28-2.41-2.99-3.61-6.01-3.61c-3.02,0-5.73,1.2-6.01,3.61c-0.15,1.26,0.21,4.23,0.99,5.36
		c0.69,0.98,2.28,1.93,4.05,2.25c0.73,0.09,1.2,0.09,1.93,0c1.77-0.32,3.37-1.27,4.05-2.25C357.64,660.29,358,657.31,357.85,656.05
		L357.85,656.05z"/>
	<path class="st0" d="M345.54,716.1l-2-21.71l-3.35-0.27l-1.02-0.79l-1.61-11.6l0.71-12.55c0.07-0.7,1.32-1.52,2.2-1.74l5.94-1.63
		c6.7,3.08,4.17,3.08,10.87,0l5.94,1.63c0.88,0.22,2.13,1.04,2.2,1.74l0.71,12.55l-1.61,11.6l-1.02,0.79l-3.35,0.27l-2,21.71"/>
	<line class="st0" x1="351.84" y1="691.41" x2="351.84" y2="716.11"/>
	<line class="st0" x1="360.19" y1="674.64" x2="360.19" y2="694.39"/>
	<line class="st0" x1="343.54" y1="674.64" x2="343.54" y2="694.39"/>
</g>
<g>
	<path class="st0" d="M472.27,689.86c-0.12-1.01-1.24-1.52-2.49-1.52c-1.25,0-2.37,0.51-2.49,1.52c-0.06,0.53,0.09,1.78,0.41,2.25
		c0.28,0.41,0.94,0.81,1.68,0.95c0.3,0.04,0.5,0.04,0.8,0c0.73-0.14,1.39-0.53,1.68-0.95C472.18,691.64,472.33,690.38,472.27,689.86
		L472.27,689.86z"/>
	<path class="st0" d="M467.17,715.1l-0.83-9.13l-1.39-0.12l-0.42-0.33l-0.67-4.88l0.29-5.28c0.03-0.29,0.55-0.64,0.91-0.73
		l2.46-0.68c2.77,1.29,1.73,1.29,4.5,0l2.46,0.68c0.36,0.09,0.88,0.44,0.91,0.73l0.29,5.28l-0.67,4.88l-0.42,0.33l-1.39,0.12
		l-0.83,9.13"/>
	<line class="st0" x1="469.78" y1="704.72" x2="469.78" y2="715.11"/>
	<line class="st0" x1="473.23" y1="697.67" x2="473.23" y2="705.97"/>
	<line class="st0" x1="466.34" y1="697.67" x2="466.34" y2="705.97"/>
</g>
<g>
	<path class="st0" d="M404.84,656.05c-0.28-2.41-2.99-3.61-6.01-3.61c-3.02,0-5.73,1.2-6.01,3.61c-0.15,1.26,0.21,4.23,0.99,5.36
		c0.69,0.98,2.28,1.93,4.05,2.25c0.73,0.09,1.2,0.09,1.93,0c1.77-0.32,3.37-1.27,4.05-2.25
		C404.63,660.29,404.99,657.31,404.84,656.05L404.84,656.05z"/>
	<path class="st0" d="M392.52,716.1l-2-21.71l-3.35-0.27l-1.02-0.79l-1.61-11.6l0.71-12.55c0.07-0.7,1.32-1.52,2.2-1.74l5.94-1.63
		c6.7,3.08,4.17,3.08,10.87,0l5.94,1.63c0.88,0.22,2.13,1.04,2.2,1.74l0.71,12.55l-1.61,11.6l-1.02,0.79l-3.35,0.27l-2,21.71"/>
	<line class="st0" x1="398.83" y1="691.41" x2="398.83" y2="716.11"/>
	<line class="st0" x1="407.17" y1="674.64" x2="407.17" y2="694.39"/>
	<line class="st0" x1="390.52" y1="674.64" x2="390.52" y2="694.39"/>
</g>
<g>
	<path class="st0" d="M444.93,672.27c-0.2-1.68-2.06-2.52-4.13-2.52c-2.08,0-3.94,0.84-4.13,2.52c-0.1,0.88,0.14,2.95,0.68,3.73
		c0.47,0.69,1.57,1.35,2.79,1.57c0.5,0.06,0.82,0.06,1.32,0c1.22-0.22,2.32-0.88,2.79-1.57
		C444.79,675.22,445.04,673.14,444.93,672.27L444.93,672.27z"/>
	<path class="st0" d="M436.47,714.1l-1.37-15.12l-2.3-0.19l-0.7-0.55l-1.11-8.08l0.49-8.74c0.05-0.49,0.91-1.06,1.51-1.21l4.09-1.13
		c4.61,2.15,2.87,2.15,7.47,0l4.09,1.13c0.6,0.15,1.46,0.72,1.51,1.21l0.49,8.74l-1.11,8.08l-0.7,0.55l-2.3,0.19l-1.38,15.12"/>
	<line class="st0" x1="440.8" y1="696.9" x2="440.8" y2="714.11"/>
	<line class="st0" x1="446.54" y1="685.22" x2="446.54" y2="698.97"/>
	<line class="st0" x1="435.09" y1="685.22" x2="435.09" y2="698.97"/>
</g>
<g>
	<g class="st6">
		<polygon class="st7" points="1160.5,61.47 1247.5,8.52 1334.5,61.47 1334.5,185.5 1160.5,185.5 1160.5,61.47 		"/>
		<g>
			<polyline class="st8" points="1160.5,62.47 1160.5,61.47 1161.35,60.95 			"/>
			<line class="st9" x1="1163.09" y1="59.89" x2="1245.78" y2="9.57"/>
			<polyline class="st8" points="1246.65,9.04 1247.5,8.52 1248.35,9.04 			"/>
			<line class="st9" x1="1250.09" y1="10.1" x2="1332.78" y2="60.42"/>
			<polyline class="st8" points="1333.65,60.95 1334.5,61.47 1334.5,62.47 			"/>
			<line class="st10" x1="1334.5" y1="64.47" x2="1334.5" y2="183.5"/>
			<polyline class="st8" points="1334.5,184.5 1334.5,185.5 1333.5,185.5 			"/>
			<line class="st11" x1="1331.52" y1="185.5" x2="1162.49" y2="185.5"/>
			<polyline class="st8" points="1161.5,185.5 1160.5,185.5 1160.5,184.5 			"/>
			<line class="st10" x1="1160.5" y1="182.5" x2="1160.5" y2="63.47"/>
		</g>
	</g>
	<polygon class="st1" points="1160.5,61.47 1247.5,8.52 1334.5,61.47 1334.5,185.5 1160.5,185.5 1160.5,61.47 	"/>
</g>
<g class="st6">
	<polygon class="st7" points="1171.5,249.47 1258.5,196.52 1345.5,249.47 1345.5,373.5 1171.5,373.5 1171.5,249.47 	"/>
	<g>
		<polyline class="st8" points="1171.5,250.47 1171.5,249.47 1172.35,248.95 		"/>
		<line class="st9" x1="1174.09" y1="247.89" x2="1256.78" y2="197.57"/>
		<polyline class="st8" points="1257.65,197.04 1258.5,196.52 1259.35,197.04 		"/>
		<line class="st9" x1="1261.09" y1="198.1" x2="1343.78" y2="248.42"/>
		<polyline class="st8" points="1344.65,248.95 1345.5,249.47 1345.5,250.47 		"/>
		<line class="st10" x1="1345.5" y1="252.47" x2="1345.5" y2="371.5"/>
		<polyline class="st8" points="1345.5,372.5 1345.5,373.5 1344.5,373.5 		"/>
		<line class="st11" x1="1342.52" y1="373.5" x2="1173.49" y2="373.5"/>
		<polyline class="st8" points="1172.5,373.5 1171.5,373.5 1171.5,372.5 		"/>
		<line class="st10" x1="1171.5" y1="370.5" x2="1171.5" y2="251.47"/>
	</g>
</g>
<polygon class="st1" points="1346.5,66.47 1433.5,13.52 1520.5,66.47 1520.5,190.5 1346.5,190.5 1346.5,66.47 "/>
<path class="st0" d="M1393.3,241.64h18.52 M1393.3,238.6h18.52 M1393.3,235.55h18.52 M1358.87,213.28v31.43 M1391.22,244.71v-12.13
	h20.6v12.13 M1415.67,244.71v-16.79 M1418.01,228.38l-26.79-5.27v-9.84 M1394.3,213.98l-19.25-4.46l-19.26,4.46 M1381.45,225.65
	v-7.37h4.56v7.37H1381.45L1381.45,225.65z M1364.08,225.65v-7.37h4.56v7.37H1364.08L1364.08,225.65z M1372.76,225.65v-7.37h4.56
	v7.37H1372.76L1372.76,225.65z M1364.08,239.94v-7.37h4.56v7.37H1364.08L1364.08,239.94z M1372.76,239.94v-7.37h4.56v7.37H1372.76
	L1372.76,239.94z M1381.45,244.71v-12.14h4.56v12.14 M1354.46,244.71h65.97 M1383.22,208.55v2.86 M1366.83,208.55v2.86"/>
<path class="st0" d="M1435.81,283.13c0.79,0,1.43,0.96,1.43,2.13c0,1.18-0.64,2.13-1.43,2.13c-0.79,0-1.43-0.96-1.43-2.13
	C1434.37,284.09,1435.02,283.13,1435.81,283.13L1435.81,283.13z M1416.93,292.36h0.73c1.72,0,3.13,2.1,3.13,4.66v7.21h-6.98v-7.21
	C1413.8,294.46,1415.21,292.36,1416.93,292.36L1416.93,292.36z M1426.72,285.01l9.08-6.13l9.66,6.47 M1446.62,307.72v-13.95h21.86
	v13.95 M1438.47,307.72v-11.01h-5.33v11.01 M1430.34,307.72v-16.57h1.4v-3.03l-14.45-9.02l-14.45,9.02v3.03h1.4v16.57
	 M1473.73,307.72v-16.57h1.4v-3.03l-17.58-9.02l-17.58,9.02v3.03h1.4v16.57 M1422.43,282.15l17.31-11.45l14.94,9.78 M1382.46,307.72
	h110.75 M1487.63,303.66v4.06 M1481.62,302.78v4.94 M1480.75,302.78c-1.83,0-3.33-2.43-3.33-5.4v-9.93c0-3.75,2.17-5.54,4.21-5.54
	c2.04,0,4.21,1.79,4.21,5.54v9.93c0,2.97-1.5,5.4-3.33,5.4C1482.46,302.78,1480.79,302.78,1480.75,302.78L1480.75,302.78z
	 M1487.18,288.1c0.15-0.03,0.3-0.04,0.45-0.04c1.53,0,3.15,1.34,3.15,4.14v7.42c0,2.22-1.12,4.04-2.49,4.04c-0.03,0-1.28,0-1.31,0
	c-0.54,0-1.04-0.28-1.45-0.76 M1398,303.97v3.75 M1392.31,302.69v5 M1386.53,303.35v4.31 M1397.37,303.97
	c-1.31,0-2.39-1.75-2.39-3.88v-7.13c0-2.69,1.56-3.98,3.02-3.98c1.46,0,3.02,1.29,3.02,3.98v7.13c0,2.13-1.08,3.88-2.39,3.88
	C1398.6,303.97,1397.4,303.97,1397.37,303.97L1397.37,303.97z M1393.85,302.32c-2.34,1.22-5.76-0.6-5.76-5v-9.53
	c0-3.6,2.08-5.32,4.04-5.32c1.9,0,3.91,1.62,4.04,4.99 M1388.39,302.8c-0.36,0.35-0.78,0.55-1.23,0.55c-0.03,0-1.23,0-1.26,0
	c-1.31,0-2.39-1.75-2.39-3.88v-7.13c0-2.69,1.56-3.98,3.02-3.98c0.1,0,0.2,0.01,0.3,0.02 M1468.48,297.36h-19.7 M1468.48,300.91
	h-19.7 M1468.48,304.46h-19.7"/>
<g>
	<path class="st0" d="M543.94,672.53c-0.15-1.62-1.55-2.44-3.11-2.44c-1.56,0-2.96,0.81-3.11,2.44c-0.08,0.85,0.11,2.85,0.51,3.61
		c0.35,0.66,1.18,1.3,2.1,1.52c0.38,0.06,0.62,0.06,1,0c0.92-0.22,1.74-0.86,2.1-1.52C543.84,675.38,544.02,673.38,543.94,672.53
		L543.94,672.53z"/>
	<path class="st0" d="M537.58,713.01l-1.03-14.64l-1.73-0.18l-0.52-0.53l-0.83-7.82l0.36-8.46c0.04-0.47,0.68-1.02,1.14-1.17
		l3.07-1.1c3.46,2.08,2.16,2.08,5.62,0l3.07,1.1c0.45,0.15,1.1,0.7,1.14,1.17l0.36,8.46l-0.83,7.82l-0.53,0.53l-1.73,0.18
		l-1.03,14.64"/>
	<line class="st0" x1="540.84" y1="696.37" x2="540.84" y2="713.02"/>
	<line class="st0" x1="545.15" y1="685.06" x2="545.15" y2="698.38"/>
	<line class="st0" x1="536.55" y1="685.06" x2="536.55" y2="698.38"/>
</g>
<g>
	<path class="st0" d="M561.81,686.97c-0.12-1.04-1.23-1.57-2.48-1.57c-1.25,0-2.36,0.52-2.48,1.57c-0.06,0.55,0.09,1.84,0.41,2.32
		c0.28,0.43,0.94,0.84,1.67,0.98c0.3,0.04,0.49,0.04,0.79,0c0.73-0.14,1.39-0.55,1.67-0.98
		C561.72,688.81,561.87,687.52,561.81,686.97L561.81,686.97z"/>
	<path class="st0" d="M556.72,713.02l-0.82-9.42l-1.38-0.12l-0.42-0.34l-0.67-5.03l0.29-5.44c0.03-0.3,0.55-0.66,0.91-0.75
		l2.45-0.71c2.76,1.34,1.72,1.34,4.48,0l2.45,0.71c0.36,0.1,0.88,0.45,0.91,0.75l0.29,5.44l-0.67,5.03l-0.42,0.34l-1.38,0.12
		l-0.83,9.42"/>
	<line class="st0" x1="559.33" y1="702.31" x2="559.33" y2="713.02"/>
	<line class="st0" x1="562.77" y1="695.03" x2="562.77" y2="703.6"/>
	<line class="st0" x1="555.9" y1="695.03" x2="555.9" y2="703.6"/>
</g>
<g>
	<path class="st0" d="M576.33,692.31c-0.08-0.83-0.87-1.25-1.74-1.25c-0.88,0-1.66,0.42-1.75,1.25c-0.04,0.43,0.06,1.46,0.29,1.85
		c0.2,0.34,0.66,0.67,1.18,0.78c0.21,0.03,0.35,0.03,0.56,0c0.51-0.11,0.98-0.44,1.18-0.78
		C576.27,693.77,576.37,692.75,576.33,692.31L576.33,692.31z"/>
	<path class="st0" d="M572.75,713.02l-0.58-7.49l-0.97-0.09l-0.29-0.27l-0.47-4l0.21-4.33c0.02-0.24,0.38-0.52,0.64-0.6l1.73-0.56
		c1.95,1.06,1.21,1.06,3.16,0l1.73,0.56c0.25,0.08,0.62,0.36,0.64,0.6l0.2,4.33l-0.47,4l-0.3,0.27l-0.97,0.09l-0.58,7.49"/>
	<line class="st0" x1="574.58" y1="704.51" x2="574.58" y2="713.02"/>
	<line class="st0" x1="577.01" y1="698.72" x2="577.01" y2="705.53"/>
	<line class="st0" x1="572.17" y1="698.72" x2="572.17" y2="705.53"/>
</g>
<g>
	<path class="st12" d="M1327.77,530.81H1084.9c-14.06,0-25.56-11.5-25.56-25.56v-50.87c0-14.06,11.5-25.56,25.56-25.56h242.87
		c14.06,0,25.56,11.5,25.56,25.56v50.87C1353.33,519.31,1341.83,530.81,1327.77,530.81z"/>
	<g>
		<path class="st0" d="M1089.45,515.74v-57.89h40.75v57.89 M1124.77,457.85v-3.76h-29.89v3.76 M1093.42,463.32h8.38 M1105.63,463.32
			h8.38 M1117.85,463.32h8.38 M1093.42,467.64h8.38 M1105.63,467.64h8.38 M1117.85,467.64h8.38 M1093.42,471.95h8.38
			 M1105.63,471.95h8.38 M1117.85,471.95h8.38 M1093.42,476.27h8.38 M1105.63,476.27h8.38 M1117.85,476.27h8.38 M1093.42,480.59
			h8.38 M1105.63,480.59h8.38 M1117.85,480.59h8.38 M1093.42,484.91h8.38 M1105.63,484.91h8.38 M1117.85,484.91h8.38
			 M1093.42,489.23h8.38 M1105.63,489.23h8.38 M1117.85,489.23h8.38 M1093.42,493.55h8.38 M1105.63,493.55h8.38 M1117.85,493.55
			h8.38 M1093.42,497.87h8.38 M1105.63,497.87h8.38 M1117.85,497.87h8.38 M1093.42,502.19h8.38 M1105.63,502.19h8.38
			 M1117.85,502.19h8.38 M1093.42,506.51h8.38 M1105.63,506.51h8.38 M1117.85,506.51h8.38 M1093.42,510.83h8.38 M1105.63,510.83
			h8.38 M1117.85,510.83h8.38 M1137.39,515.74h-55.13"/>
		<path class="st0" d="M1174.06,455.54v-4.06 M1168.88,455.54v-4.06 M1163.71,455.54v-4.06 M1158.53,455.54v-4.06 M1174.06,461.16
			v-4.06 M1168.88,461.16v-4.06 M1163.71,461.16v-4.06 M1158.53,461.16v-4.06 M1174.06,468.37v-5.47 M1168.88,468.37v-5.47
			 M1163.71,468.37v-5.47 M1158.53,468.37v-5.47 M1174.06,478.82v-8.74 M1168.88,478.82v-8.74 M1163.71,478.82v-8.74
			 M1158.53,478.82v-8.74 M1145.73,515.74h40.9 M1174.06,515.74v-34.57 M1168.88,515.74v-34.57 M1163.71,515.74v-34.57
			 M1158.53,515.74v-34.57 M1176.54,515.74v-64.27 M1171.36,515.74v-64.27 M1166.18,515.74v-64.27 M1161.01,515.74v-64.27
			 M1155.83,515.74v-64.27 M1176.54,446.6v-2.72h-20.7v2.72 M1181.18,515.74V446.6h-30v69.14"/>
		<path class="st0" d="M1222.81,515.74v-38.54h-23.68v38.54 M1202.4,480.84h3.83v5.16h-3.83V480.84L1202.4,480.84z M1209.06,480.84
			h3.83v5.16h-3.83V480.84L1209.06,480.84z M1215.71,480.84h3.83v5.16h-3.83V480.84L1215.71,480.84z M1202.4,489.63h3.83v5.16h-3.83
			V489.63L1202.4,489.63z M1209.06,489.63h3.83v5.16h-3.83V489.63L1209.06,489.63z M1215.71,489.63h3.83v5.16h-3.83V489.63
			L1215.71,489.63z M1202.4,498.43h3.83v5.16h-3.83V498.43L1202.4,498.43z M1209.06,498.43h3.83v5.16h-3.83V498.43L1209.06,498.43z
			 M1215.71,498.43h3.83v5.16h-3.83V498.43L1215.71,498.43z M1202.4,507.22h3.83v5.16h-3.83V507.22L1202.4,507.22z M1209.06,507.22
			h3.83v5.16h-3.83V507.22L1209.06,507.22z M1215.71,507.22h3.83v5.16h-3.83V507.22L1215.71,507.22z M1222.81,477.21h1.4
			 M1197.73,477.21h1.4 M1193.92,515.74h34.1 M1209.67,477.21v-2.19h-8.64v2.19 M1220.92,477.21v-2.19h-8.64v2.19"/>
		<path class="st0" d="M1268.99,515.74v-62.7h-26.89v62.7 M1245.84,456.49V460 M1249.07,456.49V460 M1252.31,456.49V460
			 M1255.54,456.49V460 M1258.77,456.49V460 M1262.01,456.49V460 M1265.24,456.49V460 M1245.84,462.74v3.52 M1249.07,462.74v3.52
			 M1252.31,462.74v3.52 M1255.54,462.74v3.52 M1258.77,462.74v3.52 M1262.01,462.74v3.52 M1265.24,462.74v3.52 M1245.84,468.99
			v3.52 M1249.07,468.99v3.52 M1252.31,468.99v3.52 M1255.54,468.99v3.52 M1258.77,468.99v3.52 M1262.01,468.99v3.52
			 M1265.24,468.99v3.52 M1245.84,475.24v3.52 M1249.07,475.24v3.52 M1252.31,475.24v3.52 M1255.54,475.24v3.52 M1258.77,475.24
			v3.52 M1262.01,475.24v3.52 M1265.24,475.24v3.52 M1245.84,481.49v3.52 M1249.07,481.49v3.52 M1252.31,481.49v3.52
			 M1255.54,481.49v3.52 M1258.77,481.49v3.52 M1262.01,481.49v3.52 M1265.24,481.49v3.52 M1245.84,487.74v3.52 M1249.07,487.74
			v3.52 M1252.31,487.74v3.52 M1255.54,487.74v3.52 M1258.77,487.74v3.52 M1262.01,487.74v3.52 M1265.24,487.74v3.52
			 M1245.84,493.99v3.52 M1249.07,493.99v3.52 M1252.31,493.99v3.52 M1255.54,493.99v3.52 M1258.77,493.99v3.52 M1262.01,493.99
			v3.52 M1265.24,493.99v3.52 M1245.84,500.24v3.52 M1249.07,500.24v3.52 M1252.31,500.24v3.52 M1255.54,500.24v3.52
			 M1258.77,500.24v3.52 M1262.01,500.24v3.52 M1265.24,500.24v3.52 M1245.84,506.49v3.52 M1249.07,506.49v3.52 M1252.31,506.49
			v3.52 M1255.54,506.49v3.52 M1258.77,506.49v3.52 M1262.01,506.49v3.52 M1265.24,506.49v3.52 M1237.46,515.74h36.16
			 M1265.91,453.04v-2.3h-12.65v2.3"/>
		<path class="st0" d="M1312.49,455.54v-4.06 M1307.32,455.54v-4.06 M1302.14,455.54v-4.06 M1296.96,455.54v-4.06 M1312.49,461.16
			v-4.06 M1307.32,461.16v-4.06 M1302.14,461.16v-4.06 M1296.96,461.16v-4.06 M1312.49,468.37v-5.47 M1307.32,468.37v-5.47
			 M1302.14,468.37v-5.47 M1296.96,468.37v-5.47 M1312.49,478.82v-8.74 M1307.32,478.82v-8.74 M1302.14,478.82v-8.74
			 M1296.96,478.82v-8.74 M1284.17,515.74h40.9 M1312.49,515.74v-34.57 M1307.32,515.74v-34.57 M1302.14,515.74v-34.57
			 M1296.96,515.74v-34.57 M1314.97,515.74v-64.27 M1309.79,515.74v-64.27 M1304.62,515.74v-64.27 M1299.44,515.74v-64.27
			 M1294.27,515.74v-64.27 M1314.97,446.6v-2.72h-20.7v2.72 M1319.62,515.74V446.6h-30v69.14"/>
	</g>
</g>
<path class="st12" d="M1328.44,761h-242.87c-14.06,0-25.56-11.5-25.56-25.56v-50.87c0-14.06,11.5-25.56,25.56-25.56h242.87
	c14.06,0,25.56,11.5,25.56,25.56v50.87C1354,749.5,1342.5,761,1328.44,761z"/>
<g>
	<path class="st0" d="M1087.45,637.74v-57.89h40.75v57.89 M1122.77,579.85v-3.76h-29.89v3.76 M1091.42,585.32h8.38 M1103.63,585.32
		h8.38 M1115.85,585.32h8.38 M1091.42,589.64h8.38 M1103.63,589.64h8.38 M1115.85,589.64h8.38 M1091.42,593.95h8.38 M1103.63,593.95
		h8.38 M1115.85,593.95h8.38 M1091.42,598.27h8.38 M1103.63,598.27h8.38 M1115.85,598.27h8.38 M1091.42,602.59h8.38 M1103.63,602.59
		h8.38 M1115.85,602.59h8.38 M1091.42,606.91h8.38 M1103.63,606.91h8.38 M1115.85,606.91h8.38 M1091.42,611.23h8.38 M1103.63,611.23
		h8.38 M1115.85,611.23h8.38 M1091.42,615.55h8.38 M1103.63,615.55h8.38 M1115.85,615.55h8.38 M1091.42,619.87h8.38 M1103.63,619.87
		h8.38 M1115.85,619.87h8.38 M1091.42,624.19h8.38 M1103.63,624.19h8.38 M1115.85,624.19h8.38 M1091.42,628.51h8.38 M1103.63,628.51
		h8.38 M1115.85,628.51h8.38 M1091.42,632.83h8.38 M1103.63,632.83h8.38 M1115.85,632.83h8.38 M1135.39,637.74h-55.13"/>
	<path class="st0" d="M1172.06,577.54v-4.06 M1166.88,577.54v-4.06 M1161.71,577.54v-4.06 M1156.53,577.54v-4.06 M1172.06,583.16
		v-4.06 M1166.88,583.16v-4.06 M1161.71,583.16v-4.06 M1156.53,583.16v-4.06 M1172.06,590.37v-5.47 M1166.88,590.37v-5.47
		 M1161.71,590.37v-5.47 M1156.53,590.37v-5.47 M1172.06,600.82v-8.74 M1166.88,600.82v-8.74 M1161.71,600.82v-8.74 M1156.53,600.82
		v-8.74 M1143.73,637.74h40.9 M1172.06,637.74v-34.57 M1166.88,637.74v-34.57 M1161.71,637.74v-34.57 M1156.53,637.74v-34.57
		 M1174.54,637.74v-64.27 M1169.36,637.74v-64.27 M1164.18,637.74v-64.27 M1159.01,637.74v-64.27 M1153.83,637.74v-64.27
		 M1174.54,568.6v-2.72h-20.7v2.72 M1179.18,637.74V568.6h-30v69.14"/>
	<path class="st0" d="M1220.81,637.74v-38.54h-23.68v38.54 M1200.4,602.84h3.83v5.16h-3.83V602.84L1200.4,602.84z M1207.06,602.84
		h3.83v5.16h-3.83V602.84L1207.06,602.84z M1213.71,602.84h3.83v5.16h-3.83V602.84L1213.71,602.84z M1200.4,611.63h3.83v5.16h-3.83
		V611.63L1200.4,611.63z M1207.06,611.63h3.83v5.16h-3.83V611.63L1207.06,611.63z M1213.71,611.63h3.83v5.16h-3.83V611.63
		L1213.71,611.63z M1200.4,620.43h3.83v5.16h-3.83V620.43L1200.4,620.43z M1207.06,620.43h3.83v5.16h-3.83V620.43L1207.06,620.43z
		 M1213.71,620.43h3.83v5.16h-3.83V620.43L1213.71,620.43z M1200.4,629.22h3.83v5.16h-3.83V629.22L1200.4,629.22z M1207.06,629.22
		h3.83v5.16h-3.83V629.22L1207.06,629.22z M1213.71,629.22h3.83v5.16h-3.83V629.22L1213.71,629.22z M1220.81,599.21h1.4
		 M1195.73,599.21h1.4 M1191.92,637.74h34.1 M1207.67,599.21v-2.19h-8.64v2.19 M1218.92,599.21v-2.19h-8.64v2.19"/>
	<path class="st0" d="M1266.99,637.74v-62.7h-26.89v62.7 M1243.84,578.49V582 M1247.07,578.49V582 M1250.31,578.49V582
		 M1253.54,578.49V582 M1256.77,578.49V582 M1260.01,578.49V582 M1263.24,578.49V582 M1243.84,584.74v3.52 M1247.07,584.74v3.52
		 M1250.31,584.74v3.52 M1253.54,584.74v3.52 M1256.77,584.74v3.52 M1260.01,584.74v3.52 M1263.24,584.74v3.52 M1243.84,590.99v3.52
		 M1247.07,590.99v3.52 M1250.31,590.99v3.52 M1253.54,590.99v3.52 M1256.77,590.99v3.52 M1260.01,590.99v3.52 M1263.24,590.99v3.52
		 M1243.84,597.24v3.52 M1247.07,597.24v3.52 M1250.31,597.24v3.52 M1253.54,597.24v3.52 M1256.77,597.24v3.52 M1260.01,597.24v3.52
		 M1263.24,597.24v3.52 M1243.84,603.49v3.52 M1247.07,603.49v3.52 M1250.31,603.49v3.52 M1253.54,603.49v3.52 M1256.77,603.49v3.52
		 M1260.01,603.49v3.52 M1263.24,603.49v3.52 M1243.84,609.74v3.52 M1247.07,609.74v3.52 M1250.31,609.74v3.52 M1253.54,609.74v3.52
		 M1256.77,609.74v3.52 M1260.01,609.74v3.52 M1263.24,609.74v3.52 M1243.84,615.99v3.52 M1247.07,615.99v3.52 M1250.31,615.99v3.52
		 M1253.54,615.99v3.52 M1256.77,615.99v3.52 M1260.01,615.99v3.52 M1263.24,615.99v3.52 M1243.84,622.24v3.52 M1247.07,622.24v3.52
		 M1250.31,622.24v3.52 M1253.54,622.24v3.52 M1256.77,622.24v3.52 M1260.01,622.24v3.52 M1263.24,622.24v3.52 M1243.84,628.49v3.52
		 M1247.07,628.49v3.52 M1250.31,628.49v3.52 M1253.54,628.49v3.52 M1256.77,628.49v3.52 M1260.01,628.49v3.52 M1263.24,628.49v3.52
		 M1235.46,637.74h36.16 M1263.91,575.04v-2.3h-12.65v2.3"/>
	<path class="st0" d="M1310.49,577.54v-4.06 M1305.32,577.54v-4.06 M1300.14,577.54v-4.06 M1294.96,577.54v-4.06 M1310.49,583.16
		v-4.06 M1305.32,583.16v-4.06 M1300.14,583.16v-4.06 M1294.96,583.16v-4.06 M1310.49,590.37v-5.47 M1305.32,590.37v-5.47
		 M1300.14,590.37v-5.47 M1294.96,590.37v-5.47 M1310.49,600.82v-8.74 M1305.32,600.82v-8.74 M1300.14,600.82v-8.74 M1294.96,600.82
		v-8.74 M1282.17,637.74h40.9 M1310.49,637.74v-34.57 M1305.32,637.74v-34.57 M1300.14,637.74v-34.57 M1294.96,637.74v-34.57
		 M1312.97,637.74v-64.27 M1307.79,637.74v-64.27 M1302.62,637.74v-64.27 M1297.44,637.74v-64.27 M1292.27,637.74v-64.27
		 M1312.97,568.6v-2.72h-20.7v2.72 M1317.62,637.74V568.6h-30v69.14"/>
</g>
</svg>
