<?xml version="1.0" encoding="UTF-8" standalone="no"?>
<svg
   xmlns:dc="http://purl.org/dc/elements/1.1/"
   xmlns:cc="http://creativecommons.org/ns#"
   xmlns:rdf="http://www.w3.org/1999/02/22-rdf-syntax-ns#"
   xmlns:svg="http://www.w3.org/2000/svg"
   xmlns="http://www.w3.org/2000/svg"
   id="svg1194"
   version="1.1"
   viewBox="0 0 210 297"
   height="297mm"
   width="210mm">
  <defs
     id="defs1188" />
  <metadata
     id="metadata1191">
    <rdf:RDF>
      <cc:Work
         rdf:about="">
        <dc:format>image/svg+xml</dc:format>
        <dc:type
           rdf:resource="http://purl.org/dc/dcmitype/StillImage" />
        <dc:title></dc:title>
      </cc:Work>
    </rdf:RDF>
  </metadata>
  <g
     id="layer1">
    <g
       id="g34"
       transform="matrix(0.26458333,0,0,0.26458333,-1.3032562,22.583631)">
      <path
         style="clip-rule:evenodd;fill:none;fill-rule:evenodd;stroke:#000000;stroke-width:1.27530003;stroke-miterlimit:22.92560005"
         id="path4"
         d="m 246.05,89.1 c 4.33,0 7.84,3.51 7.84,7.84 0,4.33 -3.51,7.83 -7.84,7.83 -4.33,0 -7.83,-3.51 -7.83,-7.83 0,-4.33 3.51,-7.84 7.83,-7.84 z m -67.74,28.3 c 1.49,-4.26 9.33,-9.2 17.3,-7.99 5.38,-9.11 25.34,-10.25 31.17,-3.68 2.35,-1.83 5.44,-3.39 9.06,-4.6 m 20.48,2.76 c 2.24,-3.23 6.95,-5.46 12.41,-5.46 7.04,0 12.84,3.71 13.69,8.5 5.37,-1.68 13.07,1.12 15.59,6.53 3.75,-1.94 10.52,-0.48 11.31,4.02 M 277.69,97.41 c 1.82,-3.23 6.29,-5.51 11.52,-5.51 4.01,0 7.58,1.34 9.84,3.43 3.95,-4.34 10.85,-7.22 18.71,-7.22 6.7,0 12.7,2.09 16.77,5.39 m -101.7,4.01 h -5.78 m 6.82,-5.15 h -4.49 m -1.58,0 h -2.75 m 13.67,-5.62 h -5.98 m 35.23,7.48 h -9.93 m 3.79,-5.19 h -4.47 m -3.63,-4.08 h -5.16 m -4.39,-2.15 h -3.73 m 22.69,6.23 h 1.95"
         class="st0" />
      <path
         style="clip-rule:evenodd;fill:none;fill-rule:evenodd;stroke:#000000;stroke-width:1.27530003;stroke-miterlimit:22.92560005"
         id="path6"
         d="m 313.09,237.62 v 14.48 m -13.74,-18.08 v 18.02 m 4.94,-12.89 c -1.47,0.7 -3.22,1.04 -5,1.03 m -1.99,-0.17 c -4.24,-0.67 -8.1,-3.35 -8.1,-7.83 V 218 c 0,-5.35 5.02,-7.91 9.75,-7.91 4.73,0 9.75,2.56 9.75,7.91 v 0.43 m 2.53,23.64 c -3.02,-0.17 -5.43,-2.7 -5.43,-5.76 v -10.6 c 0,-4 3.75,-5.91 7.29,-5.91 3.53,0 7.29,1.91 7.29,5.91 v 10.6 c 0,3.17 -2.6,5.77 -5.77,5.77 -0.04,0 -0.82,0 -1.58,0 m -82.11,9.97 h 91.92 M 274.23,236.94 H 285 m -31.08,0 h 3.3 m 17.01,-3.07 H 285 m -31.08,0 h 3.37 M 273.1,240 H 285 m -31.08,0 h 4.11 m 11.54,-18.86 c -0.15,-1.63 -1.61,-2.45 -3.24,-2.45 -1.63,0 -3.09,0.82 -3.24,2.45 -0.08,0.85 0.11,2.87 0.53,3.63 0.37,0.67 1.23,1.31 2.19,1.53 0.46,0.07 0.58,0.07 1.04,0 0.96,-0.22 1.82,-0.86 2.19,-1.53 0.42,-0.76 0.61,-2.78 0.53,-3.63 z m 1.55,19.04 1.58,-0.08 c 0.62,0.16 1.14,-1.32 1.2,-1.81 0.35,-2.31 0.16,-6.51 -1.01,-8.64 -1.18,-2.16 -11.88,-2.29 -13.14,0 -1.17,2.13 -1.36,6.32 -1.01,8.64 0.06,0.49 0.58,1.97 1.2,1.81 l 1.58,0.08 m 6.2,1.45 -0.52,9.65 c -0.13,1.06 2.92,0.94 3.08,0.15 l 1.51,-9.6 c 0.59,-2.55 -3.97,-2.94 -4.07,-0.2 z m -2.8,0 0.52,9.65 c 0.13,1.06 -2.92,0.94 -3.08,0.15 l -1.51,-9.6 c -0.58,-2.55 3.98,-2.94 4.07,-0.2 z m 7.67,-4.54 c -0.99,0.07 -2.08,0.18 -3.02,0.47 -0.52,0.16 -0.89,1.23 -0.66,1.87 m -5.17,0 c 0.23,-0.64 -0.14,-1.71 -0.66,-1.87 -0.94,-0.3 -2.03,-0.4 -3.02,-0.47 m 11.63,0.07 -0.34,-5.11 m -10.39,5.11 0.34,-5.11 m 3.76,10.97 h 2.41 m -13.55,0 h 7.04 m -4.74,0 v 9.03 M 285,243.02 h -13.06 m 10.76,0 v 9.03 m -40.99,0 v -8.78 m 0,-1.3 v -33.04 m 9.04,1.38 h -1.9 l -1.54,2.35 v 0.06 h 4.97 v -0.06 z m -9.04,-1.39 c 0,-3.28 1.79,-5.94 4.01,-5.94 2.21,0 4,2.66 4,5.94 m -8.01,0 c 0,-3.28 -1.79,-5.94 -4,-5.94 -2.21,0 -4,2.66 -4,5.94 m 0.94,1.39 h -1.9 l -1.54,2.35 v 0.06 h 4.97 v -0.06 z"
         class="st0" />
      <path
         style="clip-rule:evenodd;fill:none;fill-rule:evenodd;stroke:#000000;stroke-width:1.27530003;stroke-miterlimit:22.92560005"
         id="path8"
         d="m 367.38,296.46 1.19,-1.67 0.03,-0.01 3.32,1.83 v 0.01 l -4.87,-0.18 -6.52,0.73 c -1.89,0 -1.89,2.87 0,2.87 l 7.04,-0.18 8.64,0.18 c 1.24,0 2.45,-0.71 2.86,-1.91 l 1.59,-4.58 m -0.98,-1.69 1.91,2.67 1.49,4.75 c 0.52,1.44 3.04,0.8 2.57,-0.53 l -1.39,-5.36 c -0.02,-0.12 -0.07,-0.25 -0.13,-0.37 l -2.59,-4.86 c -0.34,-0.64 -0.83,-0.98 -1.52,-1.22 -1.43,-0.49 -2.99,0.27 -3.48,1.7 l -1.96,5.66 -5.15,-2.99 c -0.85,-0.62 -2.01,-0.33 -2.51,0.58 l -2.73,4.87 m 11.49,-15.17 c 0.12,-0.35 0.29,-0.62 0.48,-0.83 1.24,-1.32 5.36,-0.44 4.97,2.06 -0.11,0.71 -0.7,2.34 -1.22,2.9 -0.57,0.61 -1.64,0.98 -2.5,0.87 -1.2,-0.15 -2.08,-0.84 -2.16,-2.12 -0.05,-0.84 0.22,-2.29 0.43,-2.88 z m 26.5,16.1 V 267.7 m -3.74,22.03 c -5.34,-0.87 -9.58,-3.75 -10.64,-7.71 -2.58,-7.8 -2.56,-12.03 -0.63,-15.24 0.33,-0.54 0.67,-1.04 1,-1.53 0.88,-1.29 1.66,-2.48 1.75,-4.12 0.17,-2.97 2.67,-5.31 4.81,-6.87 2.62,-1.91 4.9,-2.88 9.09,-2.17 0.79,0.13 5.12,1.21 5.89,1.45 3.66,1.14 5.65,4.52 7.23,8.29 1.72,4.12 -0.71,7.27 0.83,9.05 1.78,2.06 1.28,6.5 0.71,8.91 -1.39,5.83 -10.04,10.26 -16.06,10.29 m -0.24,-14.79 -5.02,-3.09 m 5.02,7.26 8.87,-5.46 m -8.87,10.71 -9.07,-5.59 m 28.58,13.76 c 3.84,-0.13 7.59,-2.61 8.37,-5.14 1.83,-4.97 1.98,-7.66 0.95,-9.71 -0.17,-0.35 -0.36,-0.66 -0.54,-0.97 -0.47,-0.82 -0.89,-1.58 -0.89,-2.63 0.01,-1.89 -1.39,-3.38 -2.61,-4.38 -1.49,-1.22 -2.81,-1.83 -5.33,-1.38 -0.3,0.05 -1.42,0.34 -2.34,0.58 m -5.93,19.25 c 1.38,2.21 3.79,3.94 6.17,4.3 m 2.13,4.92 v -8.32 m 51.14,10.65 H 350.3 m 98.56,-0.07 0.16,-8.56 0.18,-7.34 m -4.24,0.98 0.59,6.65 0.48,8.22 m -2.75,0 0.48,-8.22 0.59,-6.65 m -4.24,-0.99 0.18,7.34 0.16,8.56 m 1.19,-38.09 c -0.07,0.79 0.1,2.67 0.5,3.38 0.34,0.62 1.15,1.22 2.04,1.42 0.35,0.05 0.62,0.05 0.97,0 0.89,-0.2 1.69,-0.8 2.04,-1.42 0.39,-0.71 0.57,-2.59 0.5,-3.38 -0.3,-3.05 -5.76,-3.05 -6.05,0 z m 19.5,32.56 0.56,0.02 0.87,-0.27 c 0.05,-1.58 0.08,-2.67 0.01,-4.39 l -0.71,-2.56 c -0.28,-0.97 -1.19,-1.33 -2.39,-1.31 -1.12,0.02 -2.74,0 -2.85,-0.07 l -2.99,-1.96 -1.15,-6.3 c -0.01,-1.21 -0.62,-6.01 -1.2,-7.19 -0.54,-1.08 -1.11,-1.87 -2.35,-2.18 -1.24,-0.31 -6.78,-0.31 -8.02,-0.01 -1.54,0.37 -2.69,2.04 -2.79,3.59 l -0.28,4.35 c -0.07,0.6 -0.07,0.84 -0.03,1.44 l 0.51,6.51 c 0.05,0.3 0.63,0.62 1.03,0.89 0.19,0.12 0.41,0.06 0.61,-0.06 m 20.38,14.64 0.49,-3.67 c 0.04,-0.18 0.05,-0.36 0.04,-0.55 l 0.09,-1.46 -0.25,-4.93 m -2.15,11.29 -0.08,-3.82 c -0.01,-0.12 0,-0.24 0.02,-0.36 l 0.27,-2.36 m -9.61,-21.74 0.8,5.49 c 0.59,2.42 1.17,4.84 1.75,7.26 0.21,0.54 0.45,-0.02 0.92,0.43 1.16,1.1 2.64,2.44 3.48,3.31 0.03,1.21 0.13,2.17 0.14,3.3 0.02,1.3 -0.05,2.77 -0.08,4.17 -0.01,0.27 0,0.47 0.03,0.73 l 0.53,3.64 m -7.54,-16.08 c -0.01,-2.14 -0.05,-4.27 -0.16,-6.36 0.06,-1.98 0,-4.17 0.15,-6.17 m -9.1,0.01 c 0.15,2 0.13,4.18 0.19,6.16 -0.13,2.39 -0.2,4.62 -0.23,7.12 m 16.6,-2.55 c 0.09,-0.99 0.98,-1.48 1.96,-1.48 0.99,0 1.87,0.49 1.97,1.48 0.05,0.52 -0.07,1.74 -0.32,2.2 -0.22,0.4 -0.75,0.79 -1.33,0.92 -0.28,0.04 -0.35,0.04 -0.63,0 -0.58,-0.13 -1.1,-0.52 -1.33,-0.92 -0.25,-0.46 -0.37,-1.69 -0.32,-2.2 z m -88.43,-10.53 h 1.5 m -5.06,5.07 h 1.5 m -5.14,-4.17 h 1.5 m 10.88,0.27 h 1.5 m -9.75,-3.9 h 1.5"
         class="st0" />
      <path
         style="clip-rule:evenodd;fill:none;fill-rule:evenodd;stroke:#000000;stroke-width:1.27530003;stroke-miterlimit:22.92560005"
         id="path10"
         d="m 471.86,178.58 v 4.92 m -4.59,-4.92 v 4.92 m 2.3,-13.37 v 22.11 m 12.45,-0.07 v -5.27 h 11.54 v 5.27 m -48,0 v -5.27 h 11.54 v 5.27 m 9.96,-51.76 c -0.13,-0.35 -0.21,-0.66 -0.26,-0.94 -0.31,-2 1.51,-2.54 1.51,-4.3 0,-2.13 -2.63,-2.31 -1.02,-5.8 m 3.74,11.04 c -0.13,-0.35 -0.22,-0.66 -0.26,-0.94 -0.3,-2 1.51,-2.54 1.51,-4.3 0,-2.13 -2.64,-2.31 -1.02,-5.8 m 2.43,14.14 h 3.77 c 0.29,0 0.52,0.24 0.52,0.52 v 2.55 c 0,0.28 -0.24,0.52 -0.52,0.52 h -3.77 m -9.68,-4.86 h 9.69 v 7.35 c 0,0.85 -0.71,1.57 -1.57,1.57 h -6.55 c -0.85,0 -1.57,-0.71 -1.57,-1.57 z m 15.78,25 v 17.36 m 16.06,0 h -16.07 v 9.34 m -36.5,-9.34 h 16.07 v 9.34 m 0,-26.7 v 17.36 m -16.07,-14.99 v 24.32 h 52.57 v -24.32 m -46.2,-4.45 c 0,2.63 -2.23,4.76 -4.98,4.76 -2.75,0 -4.98,-2.13 -4.98,-4.76 m 48.9,-11.61 h -38.05 l -10.86,11.57 v 0.04 h 59.76 v -0.04 z m -28.98,11.61 c 0,2.63 -2.23,4.76 -4.98,4.76 -2.75,0 -4.98,-2.13 -4.98,-4.76 m 19.92,0 c 0,2.63 -2.23,4.76 -4.98,4.76 -2.75,0 -4.98,-2.13 -4.98,-4.76 m 19.92,0 c 0,2.63 -2.23,4.76 -4.98,4.76 -2.75,0 -4.98,-2.13 -4.98,-4.76 m 19.92,0 c 0,2.63 -2.23,4.76 -4.98,4.76 -2.75,0 -4.98,-2.13 -4.98,-4.76 m 19.92,0 c 0,2.63 -2.23,4.76 -4.98,4.76 -2.75,0 -4.98,-2.13 -4.98,-4.76 m -39.84,-0.04 7.22,-11.57 m 2.74,11.57 3.43,-11.57 m 6.53,11.61 v -11.61 m 19.92,11.57 -7.22,-11.57 m -2.74,11.57 -3.43,-11.57 m -0.85,-3.11 h 13.34 v 3.12 m -38.05,-0.01 v -3.12 h 12"
         class="st0" />
      <path
         style="clip-rule:evenodd;fill:none;fill-rule:evenodd;stroke:#000000;stroke-miterlimit:22.92560005"
         id="path12"
         d="m 516.26,243.69 c -1.49,1.83 -5.28,1.83 -6.76,0 -1.48,1.83 -5.28,1.83 -6.76,0 -1.49,1.83 -5.28,1.83 -6.77,0 m 29.44,-4.15 c -1.49,1.83 -5.28,1.82 -6.77,0 -1.48,1.83 -5.28,1.82 -6.76,0 -1.49,1.83 -5.28,1.82 -6.76,0 m 0.82,8.06 c -1.49,1.82 -5.28,1.82 -6.76,0 -1.49,1.82 -5.28,1.82 -6.76,0 m 41.35,-18.09 c -4.02,2 -1.87,3.78 1.45,4.63 4.36,1.02 8.13,1.36 12.46,2.06 3.44,0.61 3.33,2.16 1.8,3.02 -2.26,1.27 -7.51,1.82 -8.27,1.91 -2.59,0.32 -6.42,0.34 -9.25,0.86 -2.46,0.24 -3.12,2.42 -1.03,2.88 12.19,2.58 -1.18,5.11 -11.72,6.32 -11.22,1.28 -36.81,2.08 -45.41,-3.08 -3.62,-2.17 -3.34,-4.37 0.77,-5.38 1.77,-0.43 4.28,-0.86 7.26,-1.2 0.82,-0.09 3.65,-0.33 5.17,-0.88 1.82,-0.67 2.09,-1.71 -0.56,-2.2 -2.03,-0.29 -4.05,-0.58 -5.78,-0.84 -4.58,-0.87 -2.89,-2.8 0.9,-3.34 4.27,-0.63 10.66,-0.65 14.53,-0.93 3.23,-0.23 6,-1.16 8.81,-2.21 4.3,-1.62 7.84,-3.22 12.4,-3.9 9.21,-1.36 23.47,-1.21 16.47,2.28 z m 8.29,3.01 v -7.41 m -1.44,3.21 h -0.39 c -1.51,0 -4.18,-3.51 -4.18,-4.95 v -4.49 c 0,-0.7 0.53,-1.27 1.17,-1.27 l 0.59,-0.84 c 0,-0.9 0.67,-1.63 1.5,-1.63 h 3.13 c 0.96,0 3.03,1.5 3.15,1.94 0.28,1.01 2.56,0.64 2.56,2.87 v 4.5 c 0,1.47 -1,1.58 -1.96,2.38 -0.79,0.66 -2.24,1.49 -2.47,1.49 h -1.63 m -40.1,-4.24 h 1.38 c 2.13,0 1.14,-1.76 3.21,-1.76 1.47,0 3.12,-4.68 3.12,-4.85 v -5.99 c 0,-0.93 -0.92,-1.08 -1.56,-1.7 l -1.17,-1.13 c -0.82,-0.79 -1.28,-2.18 -2.38,-2.18 h -3.94 c -0.95,0 -1.75,0.32 -1.95,1.29 0,0.02 -3.24,2.54 -3.39,2.55 -2.71,0.26 -2.09,10.96 -0.52,11.51 1.31,0.46 4.35,2.25 5.06,2.25 h 0.68 m 1.58,5.61 v -8.79 m -15.92,10.52 v -6.28 m -1.45,2.08 h -0.39 c -1.51,0 -4.18,-3.51 -4.18,-4.95 v -3.35 c 0,-0.56 0.34,-1.04 0.81,-1.21 0.69,-0.24 0.81,-0.53 1,-1.32 0.17,-0.7 0.76,-1.21 1.45,-1.21 h 3.81 c 0.16,0 3.43,2.38 3.51,2.66 0.03,0.11 1.21,7.21 -0.61,8.24 l -2.3,1.15 h -1.63 m 28.34,-6.08 h 1.31 m 3.01,-3.34 h 1.31 m -5.23,-3.64 h 1.31 m -2.94,3.81 h 1.31 m 6.54,4.63 h 1.31 m 6.08,-8.87 h 1.31 m -6.15,2.48 h 1.31 m -4.29,-2.88 h 1.31 m -3.98,-2.97 h 1.31 M 504,220.69 c 0,0 0.65,-0.97 1.78,-1.01 1.14,-0.04 1.7,-2.34 1.7,-2.34 v -5.25 m -4.33,5.99 c 0.21,-0.15 0.49,-0.29 0.84,-0.3 0.8,-0.03 1.2,-1.65 1.2,-1.65 v -3.12 m -17.84,11.81 1.03,-0.61 c 0.6,-0.36 0.92,-1.41 0.92,-1.41 l -0.24,-3.16 m 55.33,5.6 c 1.46,0.14 1.59,-1.86 1.59,-2.2 v -3.41"
         class="st1" />
      <g
         id="g22">
        <path
           style="clip-rule:evenodd;fill:none;fill-rule:evenodd;stroke:#000000;stroke-width:1.13390005;stroke-miterlimit:22.92560005"
           id="path14"
           d="m 389.87,235.81 v -2.4 h 9.83 l -5.01,-6.64 h 3.63 l -4.97,-6.59 h 2.98 l -6.61,-9.69 -6.61,9.69 h 2.98 l -4.97,6.59 h 3.63 l -5.01,6.64 h 8.46 m 5.15,-13.23 h -1.6 m -0.86,0 h -1.99 m 5.79,6.6 h -3.85 m -1.12,0 h -2.68"
           class="st2" />
        <path
           style="clip-rule:evenodd;fill:none;fill-rule:evenodd;stroke:#000000;stroke-width:1.13390005;stroke-miterlimit:22.92560005"
           id="path16"
           d="m 413.62,223.85 c -0.5,-0.5 -3.39,-3.39 -3.39,-3.39 m 3.39,7.27 c -0.45,-0.45 -2.36,-2.36 -3.52,-3.52 m 3.52,-1.53 c 0.5,-0.5 3.39,-3.39 3.39,-3.39 m -3.39,7.56 c 0.45,-0.45 2.14,-2.14 3.48,-3.48 m -3.48,13.03 v -18.53 m -1.82,11.81 c -0.84,-0.04 -2.22,-0.45 -3.11,-0.86 -2.7,0 -4.89,-2.7 -4.89,-5.4 0,-0.74 0.16,-1.43 0.45,-2.06 0.23,-0.66 0.15,-1.21 -0.22,-1.64 -0.6,-0.69 -0.96,-1.59 -0.96,-2.58 0,-1.25 0.58,-2.36 1.48,-3.08 0.64,-0.48 1.06,-1.11 1.08,-1.98 0,-2.7 2.19,-4.9 4.9,-4.9 1.4,0 2.67,0.59 3.56,1.54 0.48,0.48 1,0.57 1.54,0.37 0.55,-0.22 1.16,-0.35 1.79,-0.35 2.64,0 4.78,2.14 4.78,4.78 -0.01,0.89 0.31,1.56 1,1.96 0.85,0.59 1.4,1.57 1.4,2.69 0,0.93 -0.39,1.77 -1.01,2.36 -0.48,0.51 -0.75,0.62 -0.59,1.7 0.07,0.35 0.1,0.71 0.1,1.07 0,3.12 -2.53,5.65 -5.65,5.65 -0.5,0 -0.98,-0.07 -1.45,-0.19 -0.71,0.43 -1.52,0.73 -2.41,0.87"
           class="st2" />
        <path
           style="clip-rule:evenodd;fill:none;fill-rule:evenodd;stroke:#000000;stroke-width:1.13390005;stroke-miterlimit:22.92560005"
           id="path18"
           d="m 364.29,224.58 c -0.5,-0.5 -3.39,-3.39 -3.39,-3.39 m 3.39,2.28 c 0.5,-0.5 3.39,-3.39 3.39,-3.39 m -3.39,7.12 c 0.5,-0.5 3.39,-3.39 3.39,-3.39 m -3.39,12.59 v -16.8 m -1.35,10.31 h -1.75 c -1.18,0 -2.16,-0.9 -2.3,-2.04 h -1.28 c -0.94,0 -1.72,-0.77 -1.72,-1.72 v -1.95 c -0.98,-0.11 -1.75,-0.95 -1.75,-1.95 v -6.95 c 0,-1.08 0.88,-1.97 1.97,-1.97 h 1 v -1.31 c 0,-1.39 1.14,-2.52 2.52,-2.52 h 6.41 c 1.39,0 2.52,1.14 2.52,2.52 v 0.37 h 1.75 c 0.94,0 1.72,0.77 1.72,1.72 v 0.32 h 1.71 c 1.39,0 2.52,1.14 2.52,2.52 v 6.97 c 0,1.39 -1.14,2.52 -2.52,2.52 h -1.1 c -0.01,0.93 -0.78,1.7 -1.72,1.7 h -1.63 c -0.24,1.01 -1.16,1.77 -2.25,1.77 h -2.75"
           class="st2" />
        <line
           style="clip-rule:evenodd;fill:none;fill-rule:evenodd;stroke:#000000;stroke-width:1.13390005;stroke-miterlimit:22.92560005"
           id="line20"
           y2="236.39999"
           x2="424.66"
           y1="236.39999"
           x1="354.12"
           class="st2" />
      </g>
      <path
         style="clip-rule:evenodd;fill:none;fill-rule:evenodd;stroke:#000000;stroke-width:1.13390005;stroke-miterlimit:22.92560005"
         id="path24"
         d="m 177.29,278.48 h -72.55 m 61.05,-8.85 c -1.05,-3.87 -4.19,-6.69 -7.9,-6.69 -4.57,0 -8.28,4.26 -8.28,9.52 m 1.56,-5.72 c -1.02,-0.51 -2.14,-0.8 -3.32,-0.8 -4.57,0 -8.28,4.26 -8.28,9.52 0,0.38 0.02,0.76 0.06,1.12 m 32.13,-0.22 c 0,-3.6 -2.54,-6.52 -5.67,-6.52 -3.13,0 -5.67,2.92 -5.67,6.52 m -27.3,-34.29 c 1.47,-1.97 3.49,-3.5 5.37,-3.95 m -5.37,10.74 c -1.46,-1.97 -3.49,-3.5 -5.37,-3.95 m 5.37,9.61 c 1.47,-1.97 3.49,-3.5 5.37,-3.95 m -5.37,11.88 c -0.47,-4.62 -3.49,-6.81 -5.37,-7.25 m 5.37,-21.38 v 42.09 m -3.3,-12.39 c -2.44,-0.78 -4.25,-3.36 -4.25,-6.41 v -24.97 c 0,-3.66 2.6,-6.65 5.78,-6.65 h 3.54 c 3.18,0 5.78,2.99 5.78,6.65 v 24.97 c 0,3.66 -2.6,6.65 -5.78,6.65 h -1.76 m -18.81,-8.96 c 0.97,-0.91 2.23,-1.67 3.49,-2.12 m -3.49,6.36 c -0.97,-0.91 -2.22,-1.67 -3.49,-2.12 m 3.49,5.65 c 0.94,-0.88 2.14,-1.62 3.36,-2.07 m -3.36,7.02 c -0.31,-2.15 -1.9,-3.45 -3.39,-4.09 m 3.39,-13.77 v 26.25 m -2.96,-7.73 c -2.19,-0.48 -3.82,-2.1 -3.82,-4 v -15.57 c 0,-2.28 2.33,-4.15 5.19,-4.15 h 3.18 c 2.85,0 5.19,1.87 5.19,4.15 v 15.57 c 0,2.28 -2.33,4.15 -5.19,4.15 h -1.58 m 31.9,-30.09 h 2.87 m 0.97,5.21 h 2.87 m 3.84,6.48 h 2.87 m -2.48,-10.42 h 2.87 m 4.43,-6.67 h 2.87 m -0.46,9.67 h 2.87 m -52.26,-3.86 h 2.87 m -5.48,-6.59 h 2.87 m -9.65,5.24 h 2.87"
         class="st2" />
      <path
         style="clip-rule:evenodd;fill:none;fill-rule:evenodd;stroke:#000000;stroke-width:1.27530003;stroke-miterlimit:22.92560005"
         id="path26"
         d="m 376.08,191.76 v -25.43 h -99.29 v 25.43 m -4.34,-41.09 h 52.65 v -14.21 h -52.65 z m 112.71,41.09 v -38.11 h -9.85 v -3.66 h -19.08 v 3.66 h -4.44 v -3.66 H 332.7 v 3.66 h -64.98 v 38.11 m 64.97,-38.11 h 19.09 m 4.44,0 h 19.08 m -93.52,0 v -2.98 m 34,2.98 v -2.98 m -18.86,15.66 v 25.43 m 19.68,-25.43 v 25.43 m 19.68,-25.43 v 25.43 m 19.68,-25.43 v 25.43 m -158.6,0 H 419.6 m -173.97,-20.5 c 0.23,0.86 1.15,4.66 1.29,5.56 0.07,0.45 -0.2,0.64 -0.73,0.64 l -39.56,0.45 m 36.66,4.54 c -2.3,0 -4.16,1.86 -4.16,4.16 0,2.3 1.86,4.16 4.16,4.16 2.3,0 4.16,-1.86 4.16,-4.16 0.01,-2.29 -1.86,-4.16 -4.16,-4.16 z m -32.77,0 c -2.3,0 -4.16,1.86 -4.16,4.16 0,2.3 1.86,4.16 4.16,4.16 2.3,0 4.16,-1.86 4.16,-4.16 0,-2.29 -1.86,-4.16 -4.16,-4.16 z m 36.49,6.64 1.49,-0.19 c 0.44,-0.06 1.05,-0.35 1.31,-0.71 0.5,-0.7 0.74,-2.91 0.89,-4.15 0.11,-0.89 -0.49,-0.69 -0.45,-1.5 0.11,-2.05 -0.42,-6.12 -1.11,-8.7 -0.52,-2.04 -0.85,-2.5 -3.63,-2.59 -8.16,-0.02 -16.3,0.07 -24.43,0.25 -1.82,0.09 -4.04,0.52 -5.69,1.36 -1.99,1.02 -4.44,3.05 -6.61,4.08 -1.9,0.9 -3.28,1.47 -4.2,2.23 -0.42,0.35 -0.69,0.88 -0.84,1.45 -0.25,0.96 -0.25,2.76 -0.32,3.81 l -0.25,0.36 c -0.12,0.21 -0.15,0.47 -0.13,0.78 l 0.34,2.21 c 0.07,0.53 0.46,0.91 1.03,1.01 l 2.38,0.28 m 7.44,0.02 h 25.35 m 172.3,2.69 v -6.87 m -5.23,-0.56 c 0.87,1.39 2.39,2.48 3.89,2.71 m 1.35,0.05 c 2.42,-0.08 4.78,-1.65 5.27,-3.24 1.16,-3.13 1.25,-4.83 0.6,-6.12 -0.38,-0.76 -0.9,-1.37 -0.9,-2.27 0.01,-2.41 -2.89,-4 -5,-3.63 -0.18,0.03 -0.89,0.21 -1.47,0.37 m -13.15,12.9 c -3.37,-0.55 -6.04,-2.36 -6.71,-4.86 -1.63,-4.92 -1.61,-7.58 -0.39,-9.6 0.21,-0.34 0.42,-0.66 0.63,-0.96 0.55,-0.81 1.04,-1.57 1.1,-2.6 0.11,-1.87 1.68,-3.34 3.03,-4.33 4.95,-3.61 11.66,-0.82 14,4.77 1.08,2.6 -0.44,4.58 0.52,5.7 1.12,1.3 0.81,4.1 0.44,5.62 -0.87,3.67 -6.33,6.46 -10.12,6.48 m -0.14,6.42 v -12.03 m -108.55,-8.65 c -0.07,-0.77 -0.73,-1.16 -1.48,-1.16 -0.74,0 -1.41,0.39 -1.48,1.16 -0.04,0.4 0.05,1.36 0.24,1.72 0.17,0.32 0.56,0.62 1,0.72 0.18,0.03 0.29,0.03 0.47,0 0.44,-0.1 0.83,-0.41 1,-0.72 0.2,-0.37 0.29,-1.32 0.25,-1.72 z m -3.37,19.28 -0.18,-6.65 -0.79,-0.08 -0.24,-0.24 -0.38,-3.55 0.17,-3.84 c 0.02,-0.21 0.31,-0.46 0.52,-0.53 2.21,-0.72 3.39,-0.72 5.6,0 0.21,0.07 0.5,0.32 0.52,0.53 l 0.17,3.84 -0.38,3.55 -0.24,0.24 -0.79,0.08 -0.18,6.65 m -1.9,-7.56 v 7.56 m -29.72,-19.28 c -0.07,-0.77 -0.73,-1.16 -1.48,-1.16 -0.74,0 -1.41,0.39 -1.48,1.16 -0.04,0.4 0.05,1.36 0.24,1.72 0.17,0.32 0.56,0.62 1,0.72 0.18,0.03 0.29,0.03 0.47,0 0.44,-0.1 0.83,-0.41 1,-0.72 0.2,-0.37 0.29,-1.32 0.25,-1.72 z m -3.38,19.28 -0.18,-6.65 -0.79,-0.08 -0.24,-0.24 -0.38,-3.55 0.17,-3.84 c 0.02,-0.21 0.31,-0.46 0.52,-0.53 2.21,-0.72 3.39,-0.72 5.6,0 0.21,0.07 0.5,0.32 0.52,0.53 l 0.17,3.84 -0.38,3.55 -0.24,0.24 -0.79,0.08 -0.18,6.65 m -1.9,-7.56 v 7.56"
         class="st0" />
      <path
         style="clip-rule:evenodd;fill:none;fill-rule:evenodd;stroke:#000000;stroke-width:1.27530003;stroke-miterlimit:22.92560005"
         id="path28"
         d="m 539.45,178.12 h -9.93 m -13.09,-2.43 -1.09,4.57 0.35,0.57 4.59,1.02 c 1.39,0.28 1.88,1.98 1.76,2.85 l -0.59,8.76 m -2.92,-0.02 -0.26,-8.06 c 0,-0.32 -0.17,-0.49 -0.55,-0.5 h -5.25 c -2.5,0 -3.04,-1.94 -3,-3.83 0.08,-2.52 0.2,-6.67 1.15,-9.36 1.27,-3.6 4.85,-3.28 6.65,-1.92 1.17,0.92 2.3,3.39 3.2,4.63 0.07,0.07 0.16,0.12 0.26,0.15 l 5.85,0.93 c 1.45,0.34 1.27,2.5 0.08,2.65 l -6.28,0.01 c -0.43,-0.05 -0.76,-0.18 -1.13,-0.38 l -3.91,-3.18 m 5.05,-10.91 c 0.14,-1.5 -1.04,-2.53 -2.5,-2.84 -1.46,-0.32 -2.91,0.14 -3.32,1.59 -0.21,0.75 -0.38,2.62 -0.13,3.39 0.22,0.68 0.89,1.42 1.71,1.81 0.4,0.15 0.51,0.17 0.93,0.2 0.89,-0.01 1.78,-0.43 2.22,-0.96 0.51,-0.62 1.01,-2.4 1.09,-3.19 z m -13.69,12.23 0.98,7.97 c 0.29,2.07 1.36,3.05 3.24,3.03 l 6.21,0.04 m 33.64,-11.04 -0.98,7.97 c -0.29,2.07 -1.36,3.05 -3.24,3.03 l -6.08,0.04 m 3.54,-24.92 c 1.14,-1.43 5.49,-0.97 5.35,1.54 -0.04,0.71 -0.5,2.69 -0.98,3.29 -1.26,1.58 -4.55,1.59 -4.95,-0.77 -0.17,-0.93 -0.07,-3.25 0.58,-4.06 z m -1.45,11.34 -0.09,6.96 c 0.02,0.2 -0.07,0.36 -0.3,0.44 l -5.25,1.1 c -1.39,0.28 -1.75,1.84 -1.62,2.72 l 0.73,8.89 m 2.9,-0.03 0.26,-8.06 c 0,-0.32 0.17,-0.49 0.55,-0.5 h 5.25 c 2.5,0 2.83,-1.97 3,-3.39 l 0.8,-6.28 c 0.15,-1.28 0.29,-2.57 0.03,-4.03 -0.14,-1.03 -0.91,-1.71 -1.84,-1.93 -1.23,-0.29 -4.57,1 -5.91,1.41 -0.49,0.07 -0.76,-0.02 -0.9,-0.52 l -0.65,-4.53 c -0.21,-1.46 -2.71,-0.95 -2.56,0.6 l 0.41,6.32 c 0.15,0.87 1.06,1.53 1.7,1.56 l 6.34,-0.66 m -8.55,-6.94 -1.13,-2.41 c -0.04,-0.09 0,-0.2 0.09,-0.25 l 4.02,-2.4 1.76,3.78 -2.03,0.81 m -13.1,9.71 -0.31,-2.82 h 3.93 l -0.57,5.21 h -3.12 m 2.32,0 v 15.73 m 18.29,-6.98 1.45,6.56 m -37.67,-6.56 -1.45,6.56 m -5.37,0.43 h 52.57"
         class="st0" />
      <path
         style="clip-rule:evenodd;fill:none;fill-rule:evenodd;stroke:#000000;stroke-width:1.27530003;stroke-miterlimit:22.92560005"
         id="path30"
         d="m 130.21,152.92 c 0,2.61 -2.11,4.72 -4.72,4.72 -2.61,0 -4.72,-2.11 -4.72,-4.72 m 46.34,-13.49 h -36.05 l -10.29,13.45 v 0.04 h 56.62 v -0.04 z m -27.46,13.49 c 0,2.61 -2.11,4.72 -4.72,4.72 -2.61,0 -4.72,-2.11 -4.72,-4.72 m 18.87,0 c 0,2.61 -2.11,4.72 -4.72,4.72 -2.61,0 -4.72,-2.11 -4.72,-4.72 m 18.88,0 c 0,2.61 -2.11,4.72 -4.72,4.72 -2.61,0 -4.72,-2.11 -4.72,-4.72 m 18.88,0 c 0,2.61 -2.11,4.72 -4.72,4.72 -2.61,0 -4.72,-2.11 -4.72,-4.72 m 18.87,0 c 0,2.61 -2.11,4.72 -4.72,4.72 -2.61,0 -4.72,-2.11 -4.72,-4.72 m -37.74,-0.04 6.84,-13.45 m 2.6,13.45 3.25,-13.45 m 6.18,13.49 v -13.49 m 18.88,13.45 -6.84,-13.45 m -2.6,13.45 -3.25,-13.45 m 16.61,38.01 v -18.29 m -45.59,18.29 v -18.29 m -2.51,36.71 v -18.42 h 50.61 v 18.42 m -54.05,0 h 57.48 m -15.37,-18.45 -0.17,-4.04 m -11.48,4.04 0.77,-6.07 c 1.09,-2.52 11.78,-2.52 12.88,0 l 0.83,6.07 m -11.58,-4.01 -0.19,4 m 7.47,-14.51 c -0.14,-1.51 -1.48,-2.27 -2.97,-2.27 -1.49,0 -2.83,0.76 -2.97,2.27 -0.07,0.79 0.1,2.66 0.49,3.37 0.34,0.62 1.13,1.21 2,1.42 0.42,0.06 0.53,0.06 0.95,0 0.88,-0.2 1.67,-0.8 2.01,-1.42 0.39,-0.71 0.56,-2.58 0.49,-3.37 z m -27.6,5.37 h 3.27 v -4.1 h -3.27 z m 2.85,6.42 h 3.27 v -4.1 h -3.27 z m -5.7,0 h 3.27 v -4.1 h -3.27 z m -4.17,5.88 h 45.44 m -40.74,-41.13 v -4.86 h 36.05 v 4.86"
         class="st0" />
      <path
         style="clip-rule:evenodd;fill:none;fill-rule:evenodd;stroke:#000000;stroke-width:1.27530003;stroke-miterlimit:22.92560005"
         id="path32"
         d="m 175.06,213.59 c -0.15,0.77 -0.14,2.65 0.19,3.41 0.36,0.83 1.32,1.6 2.24,1.8 1.28,0.28 2.44,-0.1 2.98,-1.38 0.36,-0.84 0.61,-2.42 0.6,-3.1 m 0.11,15.74 6.66,-0.95 c 0.65,0 1.8,-1.69 1.1,-1.9 h -5.58 L 181.57,222 c -0.21,-0.66 -1.11,-1.15 -1.92,-1.41 -0.94,-0.3 -3.72,-0.72 -4.58,-0.72 -0.99,0 -2.08,0.38 -2.68,1.13 -1.6,2 -1.45,5.83 -1.77,8.43 0.14,2.53 0.22,4.55 0.34,7.08 0.02,0.26 0.17,0.46 0.4,0.61 0.19,0.12 0.78,0.23 1.07,0.23 0.3,0.02 0.68,-0.27 0.69,-0.7 l 0.03,-1.93 -0.04,-5.19 0.76,-4.68 m -1.1,12.54 -0.41,14.24 m 2.84,0.01 1.82,-15.11 0.13,-0.01 0.44,15.15 m 3,-0.03 0.38,-14.87 c 0.14,-3.55 0.25,-4.8 0.19,-6.85 l -0.42,-4.66 m 4.75,-2.17 c 0.29,1.17 1.16,2.13 2.31,2.58 h 1.77 c 1.15,-0.45 2.02,-1.41 2.31,-2.58 z m 4.37,-1.43 c 0.16,-0.31 0.25,-0.57 0.29,-0.79 0.18,-1.06 -0.89,-1.15 -0.89,-2.09 0,-1.13 1.55,-1.03 0.6,-2.87 m -2.07,5.75 c 0.16,-0.31 0.25,-0.57 0.29,-0.79 0.18,-1.06 -0.89,-1.15 -0.89,-2.09 0,-1.13 1.56,-1.03 0.6,-2.87 m -6.59,-1.87 c -0.01,-0.57 0.37,-1.63 0.55,-2.17 0.04,-0.11 0.19,-0.19 0.28,-0.25 1.65,-1.16 0.7,-3.54 -1.25,-3.25 -0.53,-1.63 -3.5,-1.91 -4.33,-0.42 -1.86,-0.65 -3.24,1.5 -1.85,2.95 0.07,0.08 0.21,0.19 0.23,0.3 0.08,0.56 0.25,1.68 0.12,2.24 -0.21,1 6.28,1.63 6.25,0.6 z m 1.9,22.08 h 16.92 m 11.06,-2.34 -0.96,7.78 c -0.28,2.02 -1.33,2.98 -3.17,2.96 l -6.11,0.04 m -1.58,-23.47 c 0.11,-1.47 1.4,-2.27 2.86,-2.34 1.46,-0.07 2.78,0.6 2.95,2.06 0.09,0.76 -0.05,2.58 -0.42,3.28 -0.32,0.62 -1.08,1.23 -1.93,1.47 -0.41,0.08 -0.52,0.08 -0.93,0.04 -0.86,-0.16 -1.64,-0.69 -1.99,-1.28 -0.39,-0.66 -0.6,-2.46 -0.54,-3.23 z m 2.32,12.48 1.06,4.47 -0.34,0.56 -4.7,1 c -1.36,0.27 -1.89,1.98 -1.77,2.83 l 0.85,9.09 m 2.84,-0.02 0.26,-8.11 c 0,-0.31 0.17,-0.48 0.53,-0.49 h 5.12 c 2.44,0 2.97,-1.9 2.93,-3.74 -0.08,-2.46 -0.2,-6.86 -1.12,-9.49 -1.24,-3.52 -4.73,-3.2 -6.49,-1.88 -1.14,0.9 -2.25,3.31 -3.13,4.52 -0.07,0.07 -0.16,0.12 -0.25,0.15 l -5.68,0.91 c -1.41,0.33 -1.25,2.44 -0.07,2.59 h 6.09 c 0.42,-0.05 0.75,-0.18 1.1,-0.37 l 3.82,-3.11 m 4.64,12.03 1.66,7.37 m 3.38,-0.02 h -44.86 m 24.11,-15.74 v 15.74"
         class="st0" />
    </g>
  </g>
</svg>
