<?xml version="1.0" encoding="UTF-8" standalone="no"?>
<!-- Generator: Adobe Illustrator 16.0.0, SVG Export Plug-In . SVG Version: 6.00 Build 0)  -->

<svg
   xmlns:dc="http://purl.org/dc/elements/1.1/"
   xmlns:cc="http://creativecommons.org/ns#"
   xmlns:rdf="http://www.w3.org/1999/02/22-rdf-syntax-ns#"
   xmlns:svg="http://www.w3.org/2000/svg"
   xmlns="http://www.w3.org/2000/svg"
   xmlns:sodipodi="http://sodipodi.sourceforge.net/DTD/sodipodi-0.dtd"
   xmlns:inkscape="http://www.inkscape.org/namespaces/inkscape"
   version="1.1"
   id="Capa_1"
   x="0px"
   y="0px"
   width="468.614px"
   height="468.614px"
   viewBox="0 0 468.614 468.614"
   style="enable-background:new 0 0 468.614 468.614;"
   xml:space="preserve"
   sodipodi:docname="person.svg"
   inkscape:version="0.92.5 (2060ec1f9f, 2020-04-08)"><metadata
   id="metadata41"><rdf:RDF><cc:Work
       rdf:about=""><dc:format>image/svg+xml</dc:format><dc:type
         rdf:resource="http://purl.org/dc/dcmitype/StillImage" /><dc:title></dc:title></cc:Work></rdf:RDF></metadata><defs
   id="defs39" /><sodipodi:namedview
   pagecolor="#ffffff"
   bordercolor="#666666"
   borderopacity="1"
   objecttolerance="10"
   gridtolerance="10"
   guidetolerance="10"
   inkscape:pageopacity="0"
   inkscape:pageshadow="2"
   inkscape:window-width="1519"
   inkscape:window-height="1029"
   id="namedview37"
   showgrid="false"
   inkscape:zoom="0.50361277"
   inkscape:cx="234.30701"
   inkscape:cy="234.30701"
   inkscape:window-x="1745"
   inkscape:window-y="575"
   inkscape:window-maximized="0"
   inkscape:current-layer="Capa_1" />
<g
   id="g4"
   transform="matrix(1,0,0,-1,0,468.615)">
	<path
   d="m 291.299,116.517 h -3.501 C 298.433,104.157 304.9,88.139 304.9,70.602 304.899,31.666 273.219,0 234.305,0 c -38.93,0 -70.584,31.666 -70.584,70.602 0,17.537 6.477,33.555 17.093,45.915 h -3.51 c -19.645,0 -35.626,15.997 -35.626,35.645 v 117.105 c 0,19.648 15.982,35.633 35.626,35.633 h 1.372 v 128.07 c 0,20.332 10.697,35.645 24.884,35.645 h 61.468 c 14.208,0 24.908,-15.312 24.908,-35.645 V 304.9 h 1.363 c 19.642,0 35.639,-15.984 35.639,-35.633 V 152.161 c -0.006,-19.647 -15.998,-35.644 -35.639,-35.644 z"
   id="path2"
   inkscape:connector-curvature="0" />
</g>
<g
   id="g6"
   transform="matrix(1,0,0,-1,0,468.615)">
</g>
<g
   id="g8"
   transform="matrix(1,0,0,-1,0,468.615)">
</g>
<g
   id="g10"
   transform="matrix(1,0,0,-1,0,468.615)">
</g>
<g
   id="g12"
   transform="matrix(1,0,0,-1,0,468.615)">
</g>
<g
   id="g14"
   transform="matrix(1,0,0,-1,0,468.615)">
</g>
<g
   id="g16"
   transform="matrix(1,0,0,-1,0,468.615)">
</g>
<g
   id="g18"
   transform="matrix(1,0,0,-1,0,468.615)">
</g>
<g
   id="g20"
   transform="matrix(1,0,0,-1,0,468.615)">
</g>
<g
   id="g22"
   transform="matrix(1,0,0,-1,0,468.615)">
</g>
<g
   id="g24"
   transform="matrix(1,0,0,-1,0,468.615)">
</g>
<g
   id="g26"
   transform="matrix(1,0,0,-1,0,468.615)">
</g>
<g
   id="g28"
   transform="matrix(1,0,0,-1,0,468.615)">
</g>
<g
   id="g30"
   transform="matrix(1,0,0,-1,0,468.615)">
</g>
<g
   id="g32"
   transform="matrix(1,0,0,-1,0,468.615)">
</g>
<g
   id="g34"
   transform="matrix(1,0,0,-1,0,468.615)">
</g>
</svg>