<?xml version="1.0" encoding="UTF-8" standalone="no"?>
<!-- Created with Inkscape (http://www.inkscape.org/) -->

<svg
   xmlns:dc="http://purl.org/dc/elements/1.1/"
   xmlns:cc="http://creativecommons.org/ns#"
   xmlns:rdf="http://www.w3.org/1999/02/22-rdf-syntax-ns#"
   xmlns:svg="http://www.w3.org/2000/svg"
   xmlns="http://www.w3.org/2000/svg"
   xmlns:sodipodi="http://sodipodi.sourceforge.net/DTD/sodipodi-0.dtd"
   xmlns:inkscape="http://www.inkscape.org/namespaces/inkscape"
   width="210mm"
   height="297mm"
   viewBox="0 0 210 297"
   version="1.1"
   id="svg2442"
   inkscape:version="0.92.5 (2060ec1f9f, 2020-04-08)"
   sodipodi:docname="school.svg">
  <defs
     id="defs2436" />
  <sodipodi:namedview
     id="base"
     pagecolor="#ffffff"
     bordercolor="#666666"
     borderopacity="1.0"
     inkscape:pageopacity="0.0"
     inkscape:pageshadow="2"
     inkscape:zoom="2.8"
     inkscape:cx="292.14286"
     inkscape:cy="560"
     inkscape:document-units="mm"
     inkscape:current-layer="layer1"
     showgrid="false"
     inkscape:window-width="3840"
     inkscape:window-height="2054"
     inkscape:window-x="0"
     inkscape:window-y="0"
     inkscape:window-maximized="1" />
  <metadata
     id="metadata2439">
    <rdf:RDF>
      <cc:Work
         rdf:about="">
        <dc:format>image/svg+xml</dc:format>
        <dc:type
           rdf:resource="http://purl.org/dc/dcmitype/StillImage" />
        <dc:title></dc:title>
      </cc:Work>
    </rdf:RDF>
  </metadata>
  <g
     inkscape:label="Layer 1"
     inkscape:groupmode="layer"
     id="layer1">
    <line
       class="st0"
       x1="55.33136"
       y1="161.403"
       x2="129.12102"
       y2="161.403"
       id="line136"
       style="fill:none;stroke:#000000;stroke-width:0.22082996;stroke-opacity:1" />
    <polyline
       transform="matrix(0.26458333,0,0,0.18431199,-135.26123,22.229019)"
       class="st0"
       points="976.41,755.1 976.41,593.12 998.47,593.12 998.47,570.75 859.52,488.96 721.12,570.75 721.12,593.12   743.18,593.12 743.18,755.1 "
       id="polyline138"
       style="fill:none;stroke:#000000;stroke-opacity:1" />
    <polyline
       transform="matrix(0.26458333,0,0,0.18431199,-135.26123,22.229019)"
       class="st0"
       points="976.24,753.36 976.24,598.42 744.07,598.42 744.07,753.36 "
       id="polyline140"
       style="fill:none;stroke:#000000;stroke-opacity:1" />
    <g
       transform="matrix(0.26458333,0,0,0.18431199,-135.26123,22.229019)"
       id="g172"
       style="fill:none;stroke:#000000;stroke-opacity:1">
      <g
         id="g144"
         style="fill:none;stroke:#000000;stroke-opacity:1">
        <rect
           x="834.22998"
           y="517.27002"
           transform="rotate(-180,834.97515,533.79975)"
           class="st5"
           width="1.5"
           height="33.049999"
           id="rect142"
           style="fill:none;stroke:#000000;stroke-opacity:1" />
      </g>
      <g
         id="g148"
         style="fill:none;stroke:#000000;stroke-opacity:1">
        <rect
           x="885.22998"
           y="517.27002"
           transform="rotate(-180,885.97515,533.79975)"
           class="st5"
           width="1.5"
           height="33.049999"
           id="rect146"
           style="fill:none;stroke:#000000;stroke-opacity:1" />
      </g>
      <path
         class="st5"
         d="m 888.92,518.83 c -0.78,0.05 -1.37,0.73 -1.37,1.51 v 33.74 c 0,0.46 -0.37,0.82 -0.83,0.82 h -23.6 c 0.91,-0.73 2.13,-1.6 3.66,-2.46 3.52,-1.99 9.45,-4.36 17.7,-4.36 v -0.75 -0.75 -31.5 -0.8 -0.7 c -8.63,0 -14.85,2.92 -18.55,5.38 -2.79,1.85 -4.59,3.7 -5.45,4.69 -0.86,-0.99 -2.66,-2.84 -5.45,-4.69 -3.7,-2.45 -9.91,-5.38 -18.55,-5.38 v 0.7 0.8 31.5 0.75 0.75 c 8.24,0 14.17,2.37 17.7,4.36 1.52,0.86 2.74,1.73 3.66,2.46 h -23.6 c -0.46,0 -0.83,-0.37 -0.83,-0.82 v -33.74 c 0,-0.78 -0.59,-1.46 -1.37,-1.51 -0.85,-0.06 -1.56,0.62 -1.56,1.46 v 36.08 c 0,0.81 0.65,1.46 1.46,1.46 h 24.69 c 0.46,0 0.85,0.37 0.85,0.84 -0.01,0.78 0.62,1.41 1.4,1.41 h 3.2 c 0.77,0 1.4,-0.63 1.4,-1.4 v -0.04 c 0,-0.45 0.36,-0.81 0.81,-0.81 h 24.47 c 0.95,0 1.72,-0.77 1.72,-1.73 v -35.81 c 0,-0.84 -0.71,-1.52 -1.56,-1.46 z m -27.69,6.25 c 1.07,-1.33 8.13,-9.41 21.75,-9.98 v 31.5 c -7.83,0.27 -13.53,2.6 -17,4.57 -2.18,1.24 -3.75,2.47 -4.75,3.36 z m -23.25,21.52 v -31.5 c 7.45,0.31 12.86,2.88 16.16,5.06 3.23,2.13 5.08,4.29 5.59,4.92 v 29.45 c -1,-0.89 -2.57,-2.12 -4.75,-3.36 -3.47,-1.97 -9.17,-4.3 -17,-4.57 z"
         id="path150"
         inkscape:connector-curvature="0"
         style="fill:none;stroke:#000000;stroke-opacity:1" />
      <path
         class="st5"
         d="m 840.98,524.35 v 1.51 c 5.92,0.76 10.32,2.93 13.16,4.8 0.99,0.66 1.86,1.31 2.59,1.93 v -1.93 c -0.52,-0.4 -1.09,-0.81 -1.7,-1.22 -3.03,-1.99 -7.73,-4.31 -14.05,-5.09 z"
         id="path152"
         inkscape:connector-curvature="0"
         style="fill:none;stroke:#000000;stroke-opacity:1" />
      <path
         class="st5"
         d="m 840.98,537.85 v 1.51 c 5.92,0.76 10.32,2.93 13.16,4.8 0.99,0.66 1.86,1.31 2.59,1.93 v -1.93 c -0.52,-0.4 -1.09,-0.81 -1.7,-1.22 -3.03,-1.99 -7.73,-4.31 -14.05,-5.09 z"
         id="path154"
         inkscape:connector-curvature="0"
         style="fill:none;stroke:#000000;stroke-opacity:1" />
      <path
         class="st5"
         d="m 855.02,524.95 c -3.02,-2 -7.72,-4.32 -14.05,-5.1 v 1.51 c 5.92,0.76 10.32,2.93 13.16,4.8 0.99,0.66 1.86,1.31 2.59,1.93 v -1.93 c -0.51,-0.39 -1.08,-0.8 -1.7,-1.21 z"
         id="path156"
         inkscape:connector-curvature="0"
         style="fill:none;stroke:#000000;stroke-opacity:1" />
      <path
         class="st5"
         d="m 840.98,528.85 v 1.51 c 5.92,0.76 10.32,2.93 13.16,4.8 0.99,0.66 1.86,1.31 2.59,1.93 v -1.93 c -0.52,-0.4 -1.09,-0.81 -1.7,-1.22 -3.03,-1.99 -7.73,-4.31 -14.05,-5.09 z"
         id="path158"
         inkscape:connector-curvature="0"
         style="fill:none;stroke:#000000;stroke-opacity:1" />
      <path
         class="st5"
         d="m 840.98,533.35 v 1.51 c 5.92,0.76 10.32,2.93 13.16,4.8 0.99,0.66 1.86,1.31 2.59,1.93 v -1.93 c -0.52,-0.4 -1.09,-0.81 -1.7,-1.22 -3.03,-1.99 -7.73,-4.31 -14.05,-5.09 z"
         id="path160"
         inkscape:connector-curvature="0"
         style="fill:none;stroke:#000000;stroke-opacity:1" />
      <path
         class="st5"
         d="m 879.98,528.85 c -6.33,0.78 -11.03,3.1 -14.05,5.1 -0.62,0.41 -1.18,0.82 -1.7,1.22 v 1.94 c 3.01,-2.52 8.22,-5.78 15.75,-6.74 z"
         id="path162"
         inkscape:connector-curvature="0"
         style="fill:none;stroke:#000000;stroke-opacity:1" />
      <path
         class="st5"
         d="m 879.98,533.35 c -6.33,0.78 -11.03,3.1 -14.05,5.1 -0.62,0.41 -1.18,0.82 -1.7,1.22 v 1.94 c 3.01,-2.52 8.22,-5.78 15.75,-6.74 z"
         id="path164"
         inkscape:connector-curvature="0"
         style="fill:none;stroke:#000000;stroke-opacity:1" />
      <path
         class="st5"
         d="m 879.98,524.35 c -6.33,0.78 -11.03,3.1 -14.05,5.1 -0.62,0.41 -1.18,0.82 -1.7,1.22 v 1.94 c 3.01,-2.52 8.22,-5.78 15.75,-6.74 z"
         id="path166"
         inkscape:connector-curvature="0"
         style="fill:none;stroke:#000000;stroke-opacity:1" />
      <path
         class="st5"
         d="m 879.98,519.85 c -6.33,0.78 -11.03,3.1 -14.05,5.1 -0.62,0.41 -1.18,0.82 -1.7,1.22 v 1.94 c 3.01,-2.52 8.22,-5.78 15.75,-6.74 z"
         id="path168"
         inkscape:connector-curvature="0"
         style="fill:none;stroke:#000000;stroke-opacity:1" />
      <path
         class="st5"
         d="m 879.98,537.85 c -6.33,0.78 -11.03,3.1 -14.05,5.1 -0.62,0.41 -1.18,0.82 -1.7,1.22 v 1.94 c 3.01,-2.52 8.22,-5.78 15.75,-6.74 z"
         id="path170"
         inkscape:connector-curvature="0"
         style="fill:none;stroke:#000000;stroke-opacity:1" />
    </g>
  </g>
</svg>
