<?xml version="1.0" encoding="UTF-8" standalone="no"?>
<!-- Created with Inkscape (http://www.inkscape.org/) -->

<svg
   xmlns:dc="http://purl.org/dc/elements/1.1/"
   xmlns:cc="http://creativecommons.org/ns#"
   xmlns:rdf="http://www.w3.org/1999/02/22-rdf-syntax-ns#"
   xmlns:svg="http://www.w3.org/2000/svg"
   xmlns="http://www.w3.org/2000/svg"
   xmlns:sodipodi="http://sodipodi.sourceforge.net/DTD/sodipodi-0.dtd"
   xmlns:inkscape="http://www.inkscape.org/namespaces/inkscape"
   width="210mm"
   height="297mm"
   viewBox="0 0 210 297"
   version="1.1"
   id="svg2442"
   inkscape:version="0.92.5 (2060ec1f9f, 2020-04-08)"
   sodipodi:docname="school.svg">
  <defs
     id="defs2436" />
  <sodipodi:namedview
     id="base"
     pagecolor="#ffffff"
     bordercolor="#666666"
     borderopacity="1.0"
     inkscape:pageopacity="0.0"
     inkscape:pageshadow="2"
     inkscape:zoom="2.8"
     inkscape:cx="292.14286"
     inkscape:cy="560"
     inkscape:document-units="mm"
     inkscape:current-layer="layer1"
     showgrid="false"
     inkscape:window-width="3840"
     inkscape:window-height="2054"
     inkscape:window-x="0"
     inkscape:window-y="0"
     inkscape:window-maximized="1" />
  <metadata
     id="metadata2439">
    <rdf:RDF>
      <cc:Work
         rdf:about="">
        <dc:format>image/svg+xml</dc:format>
        <dc:type
           rdf:resource="http://purl.org/dc/dcmitype/StillImage" />
        <dc:title></dc:title>
      </cc:Work>
    </rdf:RDF>
  </metadata>
  <g
     inkscape:label="Layer 1"
     inkscape:groupmode="layer"
     id="layer1">
    <g
       style="fill:none;stroke:#000000;stroke-opacity:1"
       id="g144"
       transform="matrix(0.26458333,0,0,0.18431199,-135.26123,22.229019)" />
    <g
       style="fill:none;stroke:#000000;stroke-opacity:1"
       id="g148"
       transform="matrix(0.26458333,0,0,0.18431199,-135.26123,22.229019)" />
    <path
       id="path170"
       style="fill:none;stroke:#000000;stroke-width:0.22082998;stroke-opacity:1"
       d="m 97.566809,121.36122 c -1.674813,0.14377 -2.918354,0.57137 -3.717396,0.93999 -0.164042,0.0756 -0.312208,0.15114 -0.449792,0.22486 v 0.35757 c 0.796396,-0.46447 2.174875,-1.06532 4.167188,-1.24226 z m 0,-3.31761 c -1.674813,0.14376 -2.918354,0.57136 -3.717396,0.93999 -0.164042,0.0756 -0.312208,0.15113 -0.449792,0.22486 v 0.35756 c 0.796396,-0.46446 2.174875,-1.06532 4.167188,-1.24226 z m 0,0.8294 c -1.674813,0.14376 -2.918354,0.57137 -3.717396,0.93999 -0.164042,0.0756 -0.312208,0.15114 -0.449792,0.22486 v 0.35757 c 0.796396,-0.46447 2.174875,-1.06533 4.167188,-1.24226 z m 0,1.65881 c -1.674813,0.14376 -2.918354,0.57137 -3.717396,0.93999 -0.164042,0.0756 -0.312208,0.15114 -0.449792,0.22486 v 0.35757 c 0.796396,-0.46447 2.174875,-1.06533 4.167188,-1.24227 z m 0,-0.82941 c -1.674813,0.14377 -2.918354,0.57137 -3.717396,0.94 -0.164042,0.0756 -0.312208,0.15113 -0.449792,0.22486 v 0.35756 c 0.796396,-0.46446 2.174875,-1.06532 4.167188,-1.24226 z m -10.31875,0.82941 v 0.27831 c 1.566333,0.14008 2.7305,0.54003 3.481916,0.8847 0.261938,0.12164 0.492125,0.24145 0.685271,0.35572 v -0.35572 c -0.137583,-0.0737 -0.288396,-0.1493 -0.449791,-0.22486 -0.801688,-0.36678 -2.045229,-0.79439 -3.717396,-0.93815 z m 0,-0.82941 v 0.27832 c 1.566333,0.14007 2.7305,0.54003 3.481916,0.88469 0.261938,0.12165 0.492125,0.24145 0.685271,0.35573 v -0.35573 c -0.137583,-0.0737 -0.288396,-0.14929 -0.449791,-0.22486 -0.801688,-0.36678 -2.045229,-0.79438 -3.717396,-0.93815 z m 3.71475,-0.71881 c -0.799042,-0.36863 -2.042583,-0.79623 -3.717396,-0.93999 v 0.27831 c 1.566333,0.14008 2.7305,0.54003 3.481917,0.8847 0.261937,0.12164 0.492125,0.24144 0.68527,0.35572 v -0.35572 c -0.134937,-0.0719 -0.28575,-0.14745 -0.449791,-0.22302 z m -3.71475,2.37762 v 0.27831 c 1.566333,0.14008 2.7305,0.54004 3.481916,0.8847 0.261938,0.12165 0.492125,0.24145 0.685271,0.35572 v -0.35572 c -0.137583,-0.0737 -0.288396,-0.14929 -0.449791,-0.22486 -0.801688,-0.36678 -2.045229,-0.79438 -3.717396,-0.93815 z m 0,-2.48821 v 0.27831 c 1.566333,0.14008 2.7305,0.54004 3.481916,0.8847 0.261938,0.12165 0.492125,0.24145 0.685271,0.35572 v -0.35572 c -0.137583,-0.0737 -0.288396,-0.14929 -0.449791,-0.22486 -0.801688,-0.36678 -2.045229,-0.79439 -3.717396,-0.93815 z m 12.684125,-1.0174 c -0.206375,0.009 -0.362479,0.13455 -0.362479,0.27831 v 6.21869 c 0,0.0848 -0.0979,0.15113 -0.219605,0.15113 h -6.244166 c 0.240771,-0.13455 0.563562,-0.2949 0.968375,-0.45341 0.931333,-0.36678 2.500312,-0.8036 4.683125,-0.8036 v -0.13823 -0.13823 -5.80583 -0.14745 -0.12902 c -2.283354,0 -3.929063,0.53819 -4.908021,0.9916 -0.738188,0.34098 -1.214438,0.68195 -1.441979,0.86442 -0.227542,-0.18247 -0.703792,-0.52344 -1.441979,-0.86442 -0.978959,-0.45157 -2.622021,-0.9916 -4.908021,-0.9916 v 0.12902 0.14745 5.80583 0.13823 0.13823 c 2.180167,0 3.749146,0.43682 4.683125,0.8036 0.402166,0.15851 0.724958,0.31886 0.968375,0.45341 h -6.244167 c -0.121708,0 -0.219604,-0.0682 -0.219604,-0.15113 v -6.21869 c 0,-0.14376 -0.156104,-0.2691 -0.362479,-0.27831 -0.224896,-0.0111 -0.41275,0.11427 -0.41275,0.26909 v 6.64998 c 0,0.14929 0.171979,0.2691 0.386292,0.2691 h 6.532562 c 0.121708,0 0.224896,0.0682 0.224896,0.15482 -0.0026,0.14376 0.164041,0.25988 0.370416,0.25988 h 0.846667 c 0.203729,0 0.370417,-0.11612 0.370417,-0.25804 v -0.007 c 0,-0.0829 0.09525,-0.14929 0.214312,-0.14929 h 6.474354 c 0.25135,0 0.45508,-0.14192 0.45508,-0.31886 v -6.60022 c 0,-0.15482 -0.18785,-0.28015 -0.412746,-0.26909 z m -7.326313,1.15195 c 0.283104,-0.24514 2.151063,-1.73438 5.754688,-1.83943 v 5.80582 c -2.071688,0.0498 -3.579813,0.47921 -4.497917,0.84231 -0.576792,0.22855 -0.992187,0.45525 -1.256771,0.61929 z m -6.151562,3.96639 v -5.80582 c 1.971146,0.0571 3.402541,0.53081 4.275666,0.93261 0.854605,0.39259 1.344084,0.7907 1.479021,0.90682 v 5.42799 c -0.264583,-0.16404 -0.679979,-0.39074 -1.256771,-0.61929 -0.918104,-0.3631 -2.426229,-0.79254 -4.497916,-0.84231 z m 12.895876,0.68739 H 98.95331 v -6.09151 h 0.396875 z m -13.49375,0 H 85.45956 v -6.09151 h 0.396875 z M 123.0356,161.0823 V 132.525 H 61.607288 v 28.5573 m 61.473292,0.3207 v -29.85485 h 5.83671 v -4.12306 L 92.153434,112.35021 55.535101,127.42509 v 4.12306 h 5.836708 V 161.403 m -6.040449,0 h 73.78966"
       inkscape:connector-curvature="0" />
  </g>
</svg>
