<?xml version="1.0" encoding="UTF-8" standalone="no"?>
<svg
   xmlns:dc="http://purl.org/dc/elements/1.1/"
   xmlns:cc="http://creativecommons.org/ns#"
   xmlns:rdf="http://www.w3.org/1999/02/22-rdf-syntax-ns#"
   xmlns:svg="http://www.w3.org/2000/svg"
   xmlns="http://www.w3.org/2000/svg"
   xmlns:sodipodi="http://sodipodi.sourceforge.net/DTD/sodipodi-0.dtd"
   xmlns:inkscape="http://www.inkscape.org/namespaces/inkscape"
   id="svg3130"
   version="1.1"
   viewBox="0 0 210 297"
   height="297mm"
   width="210mm"
   sodipodi:docname="workplace2_combined.svg"
   inkscape:version="0.92.5 (2060ec1f9f, 2020-04-08)">
  <sodipodi:namedview
     pagecolor="#ffffff"
     bordercolor="#666666"
     borderopacity="1"
     objecttolerance="10"
     gridtolerance="10"
     guidetolerance="10"
     inkscape:pageopacity="0"
     inkscape:pageshadow="2"
     inkscape:window-width="3840"
     inkscape:window-height="2054"
     id="namedview7498"
     showgrid="false"
     inkscape:zoom="6.7277216"
     inkscape:cx="233.41452"
     inkscape:cy="704.20054"
     inkscape:window-x="0"
     inkscape:window-y="0"
     inkscape:window-maximized="1"
     inkscape:current-layer="svg3130" />
  <defs
     id="defs3124" />
  <metadata
     id="metadata3127">
    <rdf:RDF>
      <cc:Work
         rdf:about="">
        <dc:format>image/svg+xml</dc:format>
        <dc:type
           rdf:resource="http://purl.org/dc/dcmitype/StillImage" />
        <dc:title></dc:title>
      </cc:Work>
    </rdf:RDF>
  </metadata>
  <path
     id="rect10015"
     style="fill:none;fill-opacity:1;stroke:#000000;stroke-width:0.39687499;stroke-miterlimit:4;stroke-dasharray:none;stroke-opacity:1"
     d="m 33.170853,95.860367 h 55.372879 v 1.376456 H 33.170853 Z M 30.400028,134.5388 h 60.642746 v 0.19664 H 30.400028 Z m 34.599514,-33.90046 h 5.078121 v 8.68626 h -5.078121 z m 13.720375,0 h 5.078121 v 8.68626 h -5.078121 z m -27.44075,0 h 5.078121 v 8.68626 h -5.078121 z m -13.720375,0 h 5.078121 v 8.68626 h -5.078121 z m 27.577728,13.35077 h 5.078121 v 8.68626 H 65.13652 Z m -5.432422,16.673 a 0.19036864,0.16951217 0 0 1 -0.190369,0.16951 0.19036864,0.16951217 0 0 1 -0.190369,-0.16951 0.19036864,0.16951217 0 0 1 0.190369,-0.16951 0.19036864,0.16951217 0 0 1 0.190369,0.16951 z m -1.380627,-4.13059 h 4.987969 v 7.9287 H 58.323471 Z M 34.464073,97.274246 H 87.277195 V 134.52925 H 34.464073 Z m 44.39283,16.714864 h 5.078121 v 8.68626 h -5.078121 z m -27.44075,0 h 5.078121 v 8.68626 h -5.078121 z m -13.720375,0 h 5.078121 v 8.68626 h -5.078121 z" />
</svg>
